<mxfile host="65bd71144e" pages="5">
    <diagram id="3D3bEZcCuzl8r_ZEKV-4" name="gs">
        <mxGraphModel dx="600" dy="583" grid="1" gridSize="10" guides="1" tooltips="1" connect="1" arrows="1" fold="1" page="1" pageScale="1" pageWidth="850" pageHeight="1100" math="0" shadow="0">
            <root>
                <mxCell id="0"/>
                <mxCell id="1" parent="0"/>
                <mxCell id="_SUTj0Vu-gXyJGRvz1xc-1" value="IPO&lt;br&gt;Input / Process / Output" style="rounded=1;whiteSpace=wrap;html=1;fillColor=#b0e3e6;strokeColor=#0e8088;fontStyle=1;" parent="1" vertex="1">
                    <mxGeometry x="50" y="40" width="140" height="40" as="geometry"/>
                </mxCell>
                <mxCell id="_SUTj0Vu-gXyJGRvz1xc-6" value="" style="edgeStyle=orthogonalEdgeStyle;rounded=0;orthogonalLoop=1;jettySize=auto;html=1;" parent="1" source="_SUTj0Vu-gXyJGRvz1xc-2" target="_SUTj0Vu-gXyJGRvz1xc-5" edge="1">
                    <mxGeometry relative="1" as="geometry"/>
                </mxCell>
                <mxCell id="_SUTj0Vu-gXyJGRvz1xc-2" value="Process / output" style="rounded=1;whiteSpace=wrap;html=1;fillColor=#fff2cc;strokeColor=#d6b656;fontStyle=1;" parent="1" vertex="1">
                    <mxGeometry x="40" y="140" width="140" height="40" as="geometry"/>
                </mxCell>
                <mxCell id="_SUTj0Vu-gXyJGRvz1xc-8" value="" style="edgeStyle=orthogonalEdgeStyle;rounded=0;orthogonalLoop=1;jettySize=auto;html=1;" parent="1" source="_SUTj0Vu-gXyJGRvz1xc-5" target="_SUTj0Vu-gXyJGRvz1xc-7" edge="1">
                    <mxGeometry relative="1" as="geometry"/>
                </mxCell>
                <mxCell id="_SUTj0Vu-gXyJGRvz1xc-5" value="strore&lt;br&gt;&quot;welcome&quot; in&amp;nbsp;&lt;br&gt;memory" style="whiteSpace=wrap;html=1;rounded=1;fontStyle=1;strokeColor=#b85450;fillColor=#f8cecc;" parent="1" vertex="1">
                    <mxGeometry x="50" y="250" width="120" height="60" as="geometry"/>
                </mxCell>
                <mxCell id="_SUTj0Vu-gXyJGRvz1xc-25" value="" style="edgeStyle=orthogonalEdgeStyle;rounded=0;orthogonalLoop=1;jettySize=auto;html=1;" parent="1" source="_SUTj0Vu-gXyJGRvz1xc-7" target="_SUTj0Vu-gXyJGRvz1xc-24" edge="1">
                    <mxGeometry relative="1" as="geometry"/>
                </mxCell>
                <mxCell id="_SUTj0Vu-gXyJGRvz1xc-7" value="print it onto the standard output." style="whiteSpace=wrap;html=1;rounded=1;fontStyle=1;strokeColor=#9673a6;fillColor=#e1d5e7;" parent="1" vertex="1">
                    <mxGeometry x="50" y="390" width="120" height="60" as="geometry"/>
                </mxCell>
                <mxCell id="_SUTj0Vu-gXyJGRvz1xc-9" value="JDK 1.8 : 1.7 feature &amp;gt; move upwards" style="rounded=1;whiteSpace=wrap;html=1;fillColor=#e1d5e7;strokeColor=#9673a6;fontStyle=1;" parent="1" vertex="1">
                    <mxGeometry x="330" y="50" width="150" height="40" as="geometry"/>
                </mxCell>
                <mxCell id="_SUTj0Vu-gXyJGRvz1xc-12" value="" style="edgeStyle=orthogonalEdgeStyle;rounded=0;orthogonalLoop=1;jettySize=auto;html=1;" parent="1" source="_SUTj0Vu-gXyJGRvz1xc-10" target="_SUTj0Vu-gXyJGRvz1xc-11" edge="1">
                    <mxGeometry relative="1" as="geometry"/>
                </mxCell>
                <mxCell id="_SUTj0Vu-gXyJGRvz1xc-14" value="" style="edgeStyle=orthogonalEdgeStyle;rounded=0;orthogonalLoop=1;jettySize=auto;html=1;" parent="1" source="_SUTj0Vu-gXyJGRvz1xc-10" target="_SUTj0Vu-gXyJGRvz1xc-13" edge="1">
                    <mxGeometry relative="1" as="geometry"/>
                </mxCell>
                <mxCell id="_SUTj0Vu-gXyJGRvz1xc-10" value="C:\Program Files\Java\jdk1.8.0_202" style="text;whiteSpace=wrap;html=1;fillColor=#dae8fc;strokeColor=#6c8ebf;" parent="1" vertex="1">
                    <mxGeometry x="320" y="110" width="220" height="30" as="geometry"/>
                </mxCell>
                <mxCell id="_SUTj0Vu-gXyJGRvz1xc-11" value="bin&lt;br&gt;javac.exe&lt;br&gt;java.exe" style="whiteSpace=wrap;html=1;align=left;verticalAlign=top;strokeColor=#6c8ebf;fillColor=#dae8fc;" parent="1" vertex="1">
                    <mxGeometry x="290" y="190" width="120" height="60" as="geometry"/>
                </mxCell>
                <mxCell id="_SUTj0Vu-gXyJGRvz1xc-13" value="lib&lt;br&gt;.jar files (libraries)" style="whiteSpace=wrap;html=1;align=left;verticalAlign=top;strokeColor=#6c8ebf;fillColor=#dae8fc;" parent="1" vertex="1">
                    <mxGeometry x="500" y="190" width="120" height="60" as="geometry"/>
                </mxCell>
                <mxCell id="_SUTj0Vu-gXyJGRvz1xc-17" value="" style="edgeStyle=orthogonalEdgeStyle;rounded=0;orthogonalLoop=1;jettySize=auto;html=1;" parent="1" source="_SUTj0Vu-gXyJGRvz1xc-15" target="_SUTj0Vu-gXyJGRvz1xc-16" edge="1">
                    <mxGeometry relative="1" as="geometry"/>
                </mxCell>
                <mxCell id="_SUTj0Vu-gXyJGRvz1xc-15" value="source code (.java)&lt;br&gt;&lt;br&gt;Welcome.java" style="rounded=1;whiteSpace=wrap;html=1;fillColor=#e6d0de;strokeColor=#996185;verticalAlign=middle;align=center;fontStyle=1;gradientColor=#d5739d;" parent="1" vertex="1">
                    <mxGeometry x="360" y="310" width="130" height="110" as="geometry"/>
                </mxCell>
                <mxCell id="_SUTj0Vu-gXyJGRvz1xc-19" value="" style="edgeStyle=orthogonalEdgeStyle;rounded=0;orthogonalLoop=1;jettySize=auto;html=1;" parent="1" source="_SUTj0Vu-gXyJGRvz1xc-16" target="_SUTj0Vu-gXyJGRvz1xc-18" edge="1">
                    <mxGeometry relative="1" as="geometry"/>
                </mxCell>
                <mxCell id="_SUTj0Vu-gXyJGRvz1xc-16" value="javac.exe" style="whiteSpace=wrap;html=1;rounded=1;fontStyle=1;strokeColor=#996185;fillColor=#e6d0de;gradientColor=#d5739d;" parent="1" vertex="1">
                    <mxGeometry x="575" y="335" width="120" height="60" as="geometry"/>
                </mxCell>
                <mxCell id="_SUTj0Vu-gXyJGRvz1xc-21" value="" style="edgeStyle=orthogonalEdgeStyle;rounded=0;orthogonalLoop=1;jettySize=auto;html=1;" parent="1" source="_SUTj0Vu-gXyJGRvz1xc-18" target="_SUTj0Vu-gXyJGRvz1xc-20" edge="1">
                    <mxGeometry relative="1" as="geometry"/>
                </mxCell>
                <mxCell id="_SUTj0Vu-gXyJGRvz1xc-18" value="Welcome.class&lt;br&gt;(byte code)" style="whiteSpace=wrap;html=1;rounded=1;fontStyle=1;strokeColor=#996185;fillColor=#e6d0de;gradientColor=#d5739d;" parent="1" vertex="1">
                    <mxGeometry x="775" y="335" width="120" height="60" as="geometry"/>
                </mxCell>
                <mxCell id="_SUTj0Vu-gXyJGRvz1xc-23" value="" style="edgeStyle=orthogonalEdgeStyle;rounded=0;orthogonalLoop=1;jettySize=auto;html=1;" parent="1" source="_SUTj0Vu-gXyJGRvz1xc-20" target="_SUTj0Vu-gXyJGRvz1xc-22" edge="1">
                    <mxGeometry relative="1" as="geometry"/>
                </mxCell>
                <mxCell id="_SUTj0Vu-gXyJGRvz1xc-20" value="java Welcome" style="whiteSpace=wrap;html=1;rounded=1;fontStyle=1;strokeColor=#996185;fillColor=#e6d0de;gradientColor=#d5739d;" parent="1" vertex="1">
                    <mxGeometry x="775" y="450" width="120" height="60" as="geometry"/>
                </mxCell>
                <mxCell id="_SUTj0Vu-gXyJGRvz1xc-22" value="output produced" style="whiteSpace=wrap;html=1;rounded=1;fontStyle=1;strokeColor=#996185;fillColor=#e6d0de;gradientColor=#d5739d;" parent="1" vertex="1">
                    <mxGeometry x="775" y="590" width="120" height="60" as="geometry"/>
                </mxCell>
                <mxCell id="_SUTj0Vu-gXyJGRvz1xc-24" value="monitor" style="rounded=1;whiteSpace=wrap;html=1;fontStyle=1;strokeColor=#9673a6;fillColor=#e1d5e7;" parent="1" vertex="1">
                    <mxGeometry x="50" y="530" width="120" height="60" as="geometry"/>
                </mxCell>
                <mxCell id="muIRPWJBNSs1VL0YuEx7-1" value="" style="shape=image;verticalLabelPosition=bottom;labelBackgroundColor=#ffffff;verticalAlign=top;aspect=fixed;imageAspect=0;image=https://cdn4.vectorstock.com/i/1000x1000/83/08/a-hen-and-her-seven-eggs-vector-1198308.jpg;" parent="1" vertex="1">
                    <mxGeometry x="40" y="690" width="145.96" height="150" as="geometry"/>
                </mxCell>
                <mxCell id="muIRPWJBNSs1VL0YuEx7-2" value="App - main()&lt;br&gt;variable&lt;br&gt;method()&lt;br&gt;OBJECT" style="rounded=1;whiteSpace=wrap;html=1;fillColor=#dae8fc;strokeColor=#6c8ebf;verticalAlign=bottom;" parent="1" vertex="1">
                    <mxGeometry x="730" y="800" width="190" height="60" as="geometry"/>
                </mxCell>
                <mxCell id="muIRPWJBNSs1VL0YuEx7-3" value="" style="shape=image;verticalLabelPosition=bottom;labelBackgroundColor=#ffffff;verticalAlign=top;aspect=fixed;imageAspect=0;image=https://www.computerhope.com/jargon/m/memory-ddr4.png;" parent="1" vertex="1">
                    <mxGeometry x="230" y="700" width="181.1" height="131.43" as="geometry"/>
                </mxCell>
            </root>
        </mxGraphModel>
    </diagram>
    <diagram id="avTKGqMcMff2ms3zipq_" name="DataTypes">
        <mxGraphModel dx="1024" dy="1700" grid="1" gridSize="10" guides="1" tooltips="1" connect="1" arrows="1" fold="1" page="1" pageScale="1" pageWidth="850" pageHeight="1100" math="0" shadow="0">
            <root>
                <mxCell id="T3Ad4oUNQ0FxvJtLQagC-0"/>
                <mxCell id="T3Ad4oUNQ0FxvJtLQagC-1" parent="T3Ad4oUNQ0FxvJtLQagC-0"/>
                <mxCell id="T3Ad4oUNQ0FxvJtLQagC-3" value="Integer" style="rounded=1;whiteSpace=wrap;html=1;fillColor=#d0cee2;strokeColor=#56517e;verticalAlign=bottom;" parent="T3Ad4oUNQ0FxvJtLQagC-1" vertex="1">
                    <mxGeometry x="90" y="35" width="260" height="125" as="geometry"/>
                </mxCell>
                <mxCell id="T3Ad4oUNQ0FxvJtLQagC-2" value="int = 100" style="rounded=1;whiteSpace=wrap;html=1;fillColor=#e1d5e7;strokeColor=#9673a6;fontStyle=1;" parent="T3Ad4oUNQ0FxvJtLQagC-1" vertex="1">
                    <mxGeometry x="140" y="80" width="150" height="40" as="geometry"/>
                </mxCell>
                <mxCell id="0mw4o3VPXT7KkiS1V7eE-0" value="" style="shape=image;verticalLabelPosition=bottom;labelBackgroundColor=#ffffff;verticalAlign=top;aspect=fixed;imageAspect=0;image=data:image/png,iVBORw0KGgoAAAANSUhEUgAAAVYAAACTCAMAAADiI8ECAAACeVBMVEX///9zc3O+0Oa7zuaowd+RqsiToK/m7PX5+v3G1ejy9fro6+7B0+eeudrg6PLK2Or8/frU4O6Qpb6cqLYAAADa5sPX5L7t8uLN3qvc58jT4ra7zZexv5SirY3f4tmSrs/d4eavxuKKmKiutp74+vPj7NPm6evM09zo8NzT4fP09PSDg4PW285oaGienp6ersLY2NjGxsaLi4sAACp3n9Lm8NPq//8YAAD//+VIIk8AACKEi5r89tg9J13dw5lGYpy+kGRYWFi7u7s5AAAAAEYAABAsAAAAADEjAADE5/Pa8v/b/P/E3fwAAFjxtoB4gIsAACQAABoAAAwAFCXJv7j/7desdVbCrqbW6OuwydasmXBUUWV1LhGKaFZ0pLzr0pxHcJ/GmmBZkLzu5bJMRWR+PSau195mLxu88fOWZkiBUzRgcWlCOEaNfGRKIAtkprJiWDwIJj/W++xYGi6Twcx/QRm/iFY6UG6bZSjWyoTy/dOHZztPbHyLjoBlJSAlXIufeT9ITV1Tj6ZkRCCCQgA8WFtwck9rbWBiPDy21cplZnOMl3hCQkLBsXMWCj5rQzUXcbi6gzsAMHvm0rgAI0tEKwCFTQAmJgAAP3U5haSeiYvRuKFgPxOsoJV9iaifxKeXzub//sAAI2Gjzf0AJCJUUUI9fa4KOl6NWENJTXklPXhRHwCYhmUAGWpup+XH78hKAAAWQlEsLzZOOiinlJH3zqjxwpyeYjVGAEFytsxsLjHVn3FeWInAs7qnjVo/isJTRjmqh21QMkEoN0gASphPPhUnER98mpSDt/Q1Fw1XcZBER0AxKR/LoFJ2ZGhcLk82AB+nYQF0eqakD5adAAAVdElEQVR4nO2di18T177FJyQQCOQFo0Fr82IIJJAQIgRqLI9o1YRUfBAFVEBQKihWWhUqUERtEQq+gj1UhJvKFdRaW/EAt4dTldqeKrWn5/YvunuSzGQCee2QBOqdpZ8h2TNr7998ZzOZmMwSQWjRokWLFi1akZAgJK101atdgrWpoShzpete5RKkZorgtT59pete5RKkYiG41qwLeyFvlgDWEM6sazasdN2rXDTWiCgkrAIaawDhWDGnnMT2VzoeF+6vItpdK6lPaKwBJEgVkbSq1QcaBQcbHY8LD9VQqWK1dSrKs7U0Vv9yYy08XI81HKk82uiakZgn1m6Mxhq83Net1g+OibCmquZDx080WlsYJz8UWR+qTzSKMpuPMypLTrWq+z8ir1tprAHkxmr7GGDbd/rMaWzwgkiEnf2wsKRGVNumb68RZYrx2Up5O0BjDSBBanqmU7ZPj4ny750+2ij6pDszU3T2w3MdnV1dGvGnfWAlaBNlkhKtp7H6lxtr/vmazIaeyqN9hWcvgKdnP8wvqcHbZ09npqdnfjKcSRGNNYAEqevSXVpz8fiAMf/SZ58vZINnAGvDRXVvXH7q5ePH+9LXX+zt/47YMp3GGkAUrOn5QOmOv2uzzzWdznc2pDsWriWNNTgJUtesW6qGls87vTSTSqWx+pd3rIFEYw0gQeraNfCisQYQjTUiEqSuXwsvGmsAAawhiMYaQIK1qW+FIBprIInf9qEvvvC1Bmilq171Uol9qLfX1xqgla76L6sshSJrpWt485SrQRBN7kpX8aZJxcCXDNVK1/GGSafFl1rdStfxZgk/BeCiTwPhVCKDeMRQrGQdb5icpwBcWvpqIGxSDDDUanVpKVgwBuhXrbBJhctodPxY6VreNOXSL1eREI01IqKxRkQ01oiIxhoR0Vgjov/nWFVqRkRUWhpggzCMu4qPnEKzMuOG4X3tSpUejGisERGNNSKisUZENNaIiMYaEdFYIyIa6zJEvX/HU9ldfu78D8PIMq53xSZ7b5dRzWyeP2Xo/K3nhKH4QEp/y2cUxQbfKRVvhWFkmZADI54HVq6M6U/+1nL5YSg+kNLXhGASpIZhZJkQanM2lzrLWOyQx02ICta1IaTVYG+F4TtoAGt88ELYsVKKeTlYY5ddemCFiDV7+SPDYY1fghXGTD0+CcnLrz2g0tfCUw0XVigci7DyQqS6ElgXJ1b4SrAIF1bni1F8cC9Z3rFyoLkmRQkreTv/fjNmq6Lc3m/94BjmVaLwYOVwBlEU7dZT4NnA87KgsIIm1X6NTLBf5uewiHOWNMXHRAcrCauhIA87nEehZ3tHH0msfID1iqUINXG0GRkcdqI2Q8hJ1HbUlbE5CtDAkWaABoVUCpZsNkfoiRUck81X9w68MF26hvikGn/9hn5JY3SwrifeEGBzpxZEs40jVZgtx5bSlTva+ElxUXkGhlVnybFCjY0hryS2DBNWNntwd/mpbv3+LShaY96HokN2tup8t5ltu4midsWXeEP17r+hw2Y2m70YK5tTvX08Xlx55qtbBotqNCuLy7Yli7Ni9SPlWXIzG7uVJVGM3h7Syc3YaFayXqwRjo7h/XCY0cFKvnPa919HKj/ObreLfq8/PDl/p/rC4MaqT7pFTacLz9d/vaXzo9nTxJaZYcGawOMN7um8u7Hvdh2veuso+hK7dIOt6Og2i5u7q+bvWKTGii2PqvfkjewYB2+almBNxA8AGzuKdp6sk7b096LjM/994u574yP9jFcTio5W9TuNLTd3qcfM7ZOMV/Xim22laB7Ayo4y1nOXG+9tuJ/900ei2b7zP5TUlJye/VDU8MC25XhveWXtUKUoWxxerEkA6xWT+Juxi3nm6e0Pt5rY178141izwWRFh3OvguWj6knLyL/GwVtOvidWPk/a3m3m8bAzxWVN3coKdW/BoyK0XmHkaxmMm9cqtr1kS4Xs6w/A1N8xyTh5Q/tNtzI3Bn/vGiWsREZCQ8+x3+9eSH0gatiaffm7Qx8d6rtclXn4wuBEIVg5t0CNU0gPC9YYobJ6U81D1N4xHHdqOHdbnWZbfa7ml8k4fsdwSopsXUGNZtuz6qHxkYJxoVC4GKuQ93A7l11hOnMtsak4reBC145HI9tZPF7m9506HGueOcPEa79h5q0p6NbpxipO5gGkoJ+oYXXey59ZtJBftK3mk2Fby+O0A7Yj60vXn6gaKe1reLcvOzv/fI37rv/0MGFlCpVvn5h6EavMuDg1nKQcfT5VZxqdGhiYGtcempqq47dMPfg8b7RtvOIEjjXBE2uCUJj9ZPfUC/uZa5XNxblbHg8U4FiFwsrbLwZeFUs70KkrduVTdKrN1NE6MFBf8SpP6JQsKlhTCVg2Y/66tL70t7u+M643rgN/zo12dfWl52/o6jKmp/VR0hTS14UHK5/PVwI5lo6F0Nkg5BMLpdCxBrTzYzyxxoD1GRo5V6qRCH+M5RvlyRpWrhxvzZUnGyXKSoNcwueDLZKTpBq5nJuhYeG98PlRw0rczZ+/Lt0VU0H8yc9ft84VXkG97T9MWGUJMGJ6YmXyQ1WUsIYQp7AmTFiTILQYK9QxoYoVJazw9/2vDQ/WGBgtxgpzSDwUJawhxCmsAqxwZqqihRU6TSFcWP3+A/+Sf/BfjBXK7Va0sIaQUhEerCwZjFiLsIZIlcmMDlbfn2X5UTiwJnElUPLAyuWyQhU3Glix9A2hKAxYEZUcTlKKl5eQHLrCUHtgpfnQF3d9rQEKB9Z4KZw8buVKjEsJWWGoPbB8fAKgYmiMvj/mikplfhXqhy745y4rKI0WyYrG/b7axZ+hWnMzQt9xbTS+W7EM4V/Zicr9vrP2RQ3WtK28UDsTfGpaXjURlkqNL43GyI/UZF/cUvhO6Fj/sbqxunIUonDbf9PfGf0mZLqfEYsIStT9QhdWZ8M844AJObSf0W8O3NFIr9qCXB7tHdMLRhjq08jMr7d6JREvH0pE6kcUQoBmJ5CZ+s3v6rFL9sPPkOkjZQ6s1vsCpNm0WYlM30cuxSL7fgjYz/SDMiQDOShBjtoL+Yj1f/Q771i+fj+IwxE9qciUCmPEv9IITgINxUX1CFJU32RCsEMWB9ZPrjAYagvWjH+CeNSEnA2MtSQPcZ4EZu2Cps7eK2U7JyJdOqw07nNqxEOAANadE7XFCHJYcn4cKfw3jpWN1P6Mrzubh0wvBIl1DhwZF9aiYsT68erDqtLosrKyGFNgkaWL9J1js51pB5SC2ZrRf+ptz1PACdWWtjsuCTtbZ0zR197XNHfrDzYGg7XwsnyUi3xvQtp/sB4wNq3G2eqQKjpxKpgWv3LFtFJwxanSShFErFWAFtAsRQRaqSoRUcQjqiAuR4Ej3rWtQpuoQLDEiNceiujMuoiIxhoR0VgjIhprRERjjYhorBFRlC6wVqVUy0+K8CX1VOT6jriWiXV5tyGGOnpoPuc/NsLLHfgYvGWZb7n/SlgVNNZI+GisEfHRWCPio7FGxEdjjYiPxhoRX+LqxcpepIyUxS2eivduc6ncl43j1+bT598mDWDj+Fgtz4C2xfF89IVrKVWOxEcShw9JeKHZnAkKHDgXV+IKQIC1uXItZJBVspy2BC82lj/f0u/McFhwk1vmPDTxLLiv3zAJrHA2PoEV7hs7PKbzpwzuWxdsAitcmoU3FrA7KqtydQW3o0yZazQ4WwLLeUqDtAm5ThtkyghP4rRBYuVIpEvbIKedLMfxAxqr8yugsFj5sSFh5cU6vzsDizXW+RkgNNaMpW0suFgCN1aoLyoynTaAFWq0BAIrG8omJLFC2UisCVA2r1ghd5TE6rmjgTqREVjh+Kwk1qC5+MBKSpVtNBqVrugH7Eeet5wCgg+LTboqjDl67EflosgIDz8FK4cjBqMYXZFV8RUJPiMRgJJIrJRG29IAikVyY6UUaUwxg5GTPLcU/0i1SQishMUjB0NVwXQ2p3gmNbADYMWeolMFRALH9O4kb9ka7tnqaoifR6emJOnbXi7a2tNPxWo7iaKb7M6V1tt5/oJVSKzUQ3z4fe8hIW55wXpp99SVRttrdMIDSfzh9ynPSaxJztJ2v35vjLIxNnsN76kd3XXMYzTvWN1XtdjTbv3gnSq5kmM1pLXsLtclcWw6g4l6dcxhEbOVuDzO/+YZImKmb6m5lczjjOCbj3BthpgRp5+wkVhxm+D6z3pVRcqoTmbrutmmY7GtOkMVhzOq0xmSsFFdDh4soRnTA1uMCyuLcjGOYwVLm05Xpcc7YXEUf9fp5GbKFnwCK59oUlzKwy/zsY4JMztxVCcvU4DRWImjF6/o4kgniTUGrxs/4iV3LGINKCg7ziLWmZq+0ugsHE7RxmMcNgUMzytWd8WqpyiK1udvq+Hs655/vqenxz6zt/95m4n6hmIJVvY8OpmjzN6ytxSVjKA9T1ot7Y9/uvnA6SdtHljxrIPEefTxk0nj84IXpRLx7bbSTfa5VvUvV+ztk+ptNbabPQOOYAkmgVVIKeHw+wBE9jeTd1GuoxPT7OPeHQ8oWNkk1gQS65courWKLQZYE5uHSndMONItJC1PdpUuKImNlARWJtuBtZ49vb3q4GQpWj+ya9xWMN6EfnZzWMke3HiMbXvdUzpk8ouVlOLpZE7Ldkv7z9YnEtAjk63oaC2/u4lLTS0ksHKFRAvb2I5OZG/JE32f195ttr2SnEfHtTm86e0yttsoo9qcWIcsI0MWMCXY7Gp0gVGQN/8i65e6dQVtWSdv2E52C41MsKEbK6UEgBUstptUX3ZXOzq51Nn1Lwm1yAQSK9EivVRnzBHyxB11ZtuOPM7cVmUFo7fgEef6t2VuI594yWLiz8S36/EIjV0sTvu3aZvGbdvGm4bNM4AKjvXppk41OPAOm9ArVrJiYeXTbvPIDontP7/eVwqLNtkB1qHycgOTGv64GKtQKzPrm+7kbnnpxvot2G2H34fNiXXYUj00jtfOG0QXysu51W3lY+YGtK283BUsgcd1kFgpXEucWC2KL+seDuNYmzrLY83UIkmsMTxXkoL0zDNQjVIBZiuOteT9tILyrB2P2M5anQI2ClahFhzx+aGR3VxO+420XZZqdLzpmrloqwzHmvh0FyiZxfOHlVTlQ3Tgb5MmbQf6jKe0FTw+YR/Z01O6YBFSRPLhO58rs58M/LanPnvbS/GWR/sLXryeNLV/Cwp1+LlebRXPX733wu7CenHvQH3u7RelPY0PW0tL/6xsby0dkJDBEjICK99dgbIEHRioy/2m9bftjk62N54E9lhqkTEkVqJFe2YCFDU6ULC3Z7xj428F9dlbPisteMSrRgfayP1LIrDKHJbbrQMFedIzrb9tqqnY9uI1Ot686beCib7Lr9GBvJEnPaU9LiPfK1Z33IDQaDCMJSl583dkQr5yv8EgwxfyJEoiAcEnnpvgalFWGAyxygwdq1LHVY7i/v2xeCqEwy9cZOMAmzLXIDcYmMbkJKPcgrsloAU0zLfFteyWSDUGAxks4caaICRLwC1gROBhCUEnufKMqwtxHVuT3FsImQRWJtGYoeEKHftnkFsyNMAOHidruErwmNw/cDRIrHw8CQNUIgR7Bgqs1Bi4GhloGMOfyw1cvAi5xdW7V6wJfLfwwI39BRvzyCfOBUVcAmuSh4l8vKgzQiwPm5KyyjWKEvyOoAXdMk+bLMeFNYZag9KjMmXFyT1owQR1AwIrc3GihWtg98KjYiaJ1WMHKBbl0uH5/ATvWBcpI0XC9530QGKNgcmHcGP1bcuNS4ljeo5Mweqvd2NcSk4S1UnOVsiUEeJKgOUHwFIlecW6NM3BXzSHGytUQESINhaBNVA0hWfJMhIr1GhurFC2GK9Y4ZIeSD5MGFdSaLYYN1YomxsrpI3ACmVjesMqiYFJfaBijYKNghXGRmBlQiVaULHC2LxjhegByM0HRjEh2kissHEhLqwsSBuBFcrmHStk0gPBBy4sgktcYMHaXFghbcRJANJGnFshgzC8YI2P4cZCyYU1gRWSjS+DtDmxgmsfKCU7sQphbU6sPFjbUqwIkhEHpZTl2aRyOJvr4/lEOFuc6w4qFZxL7rLFp8D5vGFVJcJpebb40GxIdGzxodno/2ea1pujipBTIhBEDPfpMSlBBfT/3WEzVoUQvmIz5mAVxgQoT0Ul5YkgFx/VajTC7ulRu/txUR6ct6R+UYOgejwYH9ZOGjeXBxeCILZthQ+maWjLyBCIq4sXtY757andTnmCfVyGL8UdkGSQe5Refn8E5y1ZMtj1l5DDn2sLMlti87vwWB3xAEjRYqzFfqOiPOJ0nFi97WkANd06fsC08xkieBo7/0sbQ663Mhh/6gPaZjoZEqSkv+uECZlW9/6pt/77V3WbogX0kBww38ra9RxUOX+r94SlqHdvf39QiTMOrHOd6mSkpLzruR0ZUfdO1fl1YNr5Ba3QiRUrUR+oQmwtvQfK5k61MvrLfHhs/YyP7QIwTA6yj4vM1GOX5xkLZidWawvjftD5IrP1wG39qazwjzLHbBXcs7iOsj9Zrx4Dy7k6/Uxd4R8W5OyzzRfzBO0vg52teJX76vFxoGZrbTFSeMY0VyeYqUMOmpCrMf5rNDYtGJMcWAWH85CGI2Yxgge2+Jmthf+wgNlaW4ds/uDYPgmysx77QIactTsKFuwbR8CaIHUPjzlBzr6srXeeBM79p5/BCBymM3KxLgE/t07XNdTpEVvx5lJ8AghgsHKRnV8hm2GwHgZ1lbycy0NmFgT/e2HD/UD/MRN5EihsPoYIDllGerKu/gAOjs/TydfF8cjsaQfHcSdWcBIYfOQouPBqJ4ORHOzr5j085gSpXbgFfhV/fwYO2B/KoHwC27v6ORzruXfNyOC1zaX4rzIUVrxsZPORoLHGI4N14NVuHMdaJzqQEThcjcSKnR9HNh8wf2rBk0VqH/g8x30NVp2xg6ld2GwB9c05sF6XOArGDsl82byovfOLBXCNdekaeNxwRJMjmGnT6AJe/2Cjmq4/8dk6060v6ez6p9l62XGGrAU9BBzSOnqxTaOfleDHE5vvN1QGdIDfjq5NuipV0wUw6lnHqIcMmrhARhwrNtoypDFbn8vB6fJp+a2LP4BpV27wdW7d92v5B3Zrk7x3DCnq0c1OYAfLq4s5zoKnX2h0SUGU6pBApQITW+DMPVPheSYqVWLAqQ5c4O2bIB48wN/UOn+SPQRhViFgWAE+chCjOfrFexYQo3K+fsCLH/w50EDxTicYAcPrEqg4riF9l8Zx7BS+E6pE8FCFb4sX7PiRCHc1MnIK8tJqxWVt7meouStdBS1atGjRovVX0v8BhFGM5KhsCvgAAAAASUVORK5CYII=;" vertex="1" parent="T3Ad4oUNQ0FxvJtLQagC-1">
                    <mxGeometry x="410" y="-50" width="488.57" height="210" as="geometry"/>
                </mxCell>
            </root>
        </mxGraphModel>
    </diagram>
    <diagram id="fvTrLc6WiqZMpUHENaW4" name="OOPS">
        <mxGraphModel dx="1874" dy="600" grid="1" gridSize="10" guides="1" tooltips="1" connect="1" arrows="1" fold="1" page="1" pageScale="1" pageWidth="850" pageHeight="1100" math="0" shadow="0">
            <root>
                <mxCell id="DfZiOr1Gd_-NJ0TTqh6M-0"/>
                <mxCell id="DfZiOr1Gd_-NJ0TTqh6M-1" parent="DfZiOr1Gd_-NJ0TTqh6M-0"/>
                <mxCell id="DfZiOr1Gd_-NJ0TTqh6M-6" value="" style="edgeStyle=orthogonalEdgeStyle;rounded=0;orthogonalLoop=1;jettySize=auto;html=1;" parent="DfZiOr1Gd_-NJ0TTqh6M-1" source="DfZiOr1Gd_-NJ0TTqh6M-2" target="DfZiOr1Gd_-NJ0TTqh6M-5" edge="1">
                    <mxGeometry relative="1" as="geometry"/>
                </mxCell>
                <mxCell id="DfZiOr1Gd_-NJ0TTqh6M-8" value="" style="edgeStyle=orthogonalEdgeStyle;rounded=0;orthogonalLoop=1;jettySize=auto;html=1;" parent="DfZiOr1Gd_-NJ0TTqh6M-1" source="DfZiOr1Gd_-NJ0TTqh6M-2" target="DfZiOr1Gd_-NJ0TTqh6M-7" edge="1">
                    <mxGeometry relative="1" as="geometry"/>
                </mxCell>
                <mxCell id="DfZiOr1Gd_-NJ0TTqh6M-2" value="Classes and Objects" style="rounded=1;whiteSpace=wrap;html=1;fillColor=#b0e3e6;strokeColor=#0e8088;fontStyle=1;" parent="DfZiOr1Gd_-NJ0TTqh6M-1" vertex="1">
                    <mxGeometry x="110" y="30" width="140" height="40" as="geometry"/>
                </mxCell>
                <mxCell id="DfZiOr1Gd_-NJ0TTqh6M-3" value="&amp;nbsp;static (class)" style="rounded=1;whiteSpace=wrap;html=1;fillColor=#e1d5e7;strokeColor=#9673a6;fontStyle=1" parent="DfZiOr1Gd_-NJ0TTqh6M-1" vertex="1">
                    <mxGeometry x="-190" y="330" width="230" height="40" as="geometry"/>
                </mxCell>
                <mxCell id="DfZiOr1Gd_-NJ0TTqh6M-4" value="instance" style="rounded=1;whiteSpace=wrap;html=1;fillColor=#e1d5e7;strokeColor=#9673a6;fontStyle=1" parent="DfZiOr1Gd_-NJ0TTqh6M-1" vertex="1">
                    <mxGeometry x="370" y="430" width="230" height="40" as="geometry"/>
                </mxCell>
                <mxCell id="DfZiOr1Gd_-NJ0TTqh6M-5" value="CLASS: specification OR blueprint for creating objects" style="rounded=1;whiteSpace=wrap;html=1;fontStyle=1;strokeColor=#0e8088;fillColor=#b0e3e6;" parent="DfZiOr1Gd_-NJ0TTqh6M-1" vertex="1">
                    <mxGeometry y="130" width="120" height="60" as="geometry"/>
                </mxCell>
                <mxCell id="DfZiOr1Gd_-NJ0TTqh6M-7" value="OBJECT : occurance of a class" style="whiteSpace=wrap;html=1;rounded=1;fontStyle=1;strokeColor=#0e8088;fillColor=#b0e3e6;" parent="DfZiOr1Gd_-NJ0TTqh6M-1" vertex="1">
                    <mxGeometry x="210" y="130" width="120" height="60" as="geometry"/>
                </mxCell>
                <mxCell id="DfZiOr1Gd_-NJ0TTqh6M-12" value="" style="edgeStyle=orthogonalEdgeStyle;rounded=0;orthogonalLoop=1;jettySize=auto;html=1;" parent="DfZiOr1Gd_-NJ0TTqh6M-1" source="DfZiOr1Gd_-NJ0TTqh6M-9" target="DfZiOr1Gd_-NJ0TTqh6M-11" edge="1">
                    <mxGeometry relative="1" as="geometry"/>
                </mxCell>
                <mxCell id="DfZiOr1Gd_-NJ0TTqh6M-18" style="edgeStyle=orthogonalEdgeStyle;rounded=0;orthogonalLoop=1;jettySize=auto;html=1;entryX=1;entryY=0.5;entryDx=0;entryDy=0;" parent="DfZiOr1Gd_-NJ0TTqh6M-1" source="DfZiOr1Gd_-NJ0TTqh6M-9" target="DfZiOr1Gd_-NJ0TTqh6M-15" edge="1">
                    <mxGeometry relative="1" as="geometry"/>
                </mxCell>
                <mxCell id="DfZiOr1Gd_-NJ0TTqh6M-9" value="javaBook" style="rounded=1;whiteSpace=wrap;html=1;fillColor=#e1d5e7;strokeColor=#9673a6;fontStyle=1" parent="DfZiOr1Gd_-NJ0TTqh6M-1" vertex="1">
                    <mxGeometry x="240" y="310" width="230" height="40" as="geometry"/>
                </mxCell>
                <mxCell id="DfZiOr1Gd_-NJ0TTqh6M-14" value="" style="edgeStyle=orthogonalEdgeStyle;rounded=0;orthogonalLoop=1;jettySize=auto;html=1;" parent="DfZiOr1Gd_-NJ0TTqh6M-1" source="DfZiOr1Gd_-NJ0TTqh6M-10" target="DfZiOr1Gd_-NJ0TTqh6M-13" edge="1">
                    <mxGeometry relative="1" as="geometry"/>
                </mxCell>
                <mxCell id="DfZiOr1Gd_-NJ0TTqh6M-20" style="edgeStyle=orthogonalEdgeStyle;rounded=0;orthogonalLoop=1;jettySize=auto;html=1;" parent="DfZiOr1Gd_-NJ0TTqh6M-1" source="DfZiOr1Gd_-NJ0TTqh6M-10" edge="1">
                    <mxGeometry relative="1" as="geometry">
                        <mxPoint x="-10" y="400" as="targetPoint"/>
                    </mxGeometry>
                </mxCell>
                <mxCell id="DfZiOr1Gd_-NJ0TTqh6M-10" value="classicFictionBook" style="rounded=1;whiteSpace=wrap;html=1;fillColor=#e1d5e7;strokeColor=#9673a6;fontStyle=1" parent="DfZiOr1Gd_-NJ0TTqh6M-1" vertex="1">
                    <mxGeometry x="240" y="355" width="230" height="50" as="geometry"/>
                </mxCell>
                <mxCell id="DfZiOr1Gd_-NJ0TTqh6M-11" value="0134685997" style="ellipse;whiteSpace=wrap;html=1;rounded=1;fontStyle=1;strokeColor=#9673a6;fillColor=#e1d5e7;" parent="DfZiOr1Gd_-NJ0TTqh6M-1" vertex="1">
                    <mxGeometry x="605" y="300" width="120" height="60" as="geometry"/>
                </mxCell>
                <mxCell id="DfZiOr1Gd_-NJ0TTqh6M-13" value="1844132390" style="ellipse;whiteSpace=wrap;html=1;rounded=1;fontStyle=1;strokeColor=#9673a6;fillColor=#e1d5e7;" parent="DfZiOr1Gd_-NJ0TTqh6M-1" vertex="1">
                    <mxGeometry x="605" y="350" width="120" height="60" as="geometry"/>
                </mxCell>
                <mxCell id="DfZiOr1Gd_-NJ0TTqh6M-15" value="Amazon" style="ellipse;whiteSpace=wrap;html=1;rounded=1;fontStyle=1;strokeColor=#82b366;fillColor=#d5e8d4;" parent="DfZiOr1Gd_-NJ0TTqh6M-1" vertex="1">
                    <mxGeometry x="-135" y="370" width="120" height="60" as="geometry"/>
                </mxCell>
                <mxCell id="uDfpj5gOAk_nrGFroR3H-0" value="COLLECTION" style="rounded=1;whiteSpace=wrap;html=1;fillColor=#d0cee2;strokeColor=#56517e;verticalAlign=bottom;" parent="DfZiOr1Gd_-NJ0TTqh6M-1" vertex="1">
                    <mxGeometry x="-200" y="560" width="210" height="130" as="geometry"/>
                </mxCell>
                <mxCell id="uDfpj5gOAk_nrGFroR3H-4" value="" style="edgeStyle=orthogonalEdgeStyle;rounded=0;orthogonalLoop=1;jettySize=auto;html=1;" parent="DfZiOr1Gd_-NJ0TTqh6M-1" source="uDfpj5gOAk_nrGFroR3H-1" target="uDfpj5gOAk_nrGFroR3H-3" edge="1">
                    <mxGeometry relative="1" as="geometry"/>
                </mxCell>
                <mxCell id="uDfpj5gOAk_nrGFroR3H-6" value="" style="edgeStyle=orthogonalEdgeStyle;rounded=0;orthogonalLoop=1;jettySize=auto;html=1;" parent="DfZiOr1Gd_-NJ0TTqh6M-1" source="uDfpj5gOAk_nrGFroR3H-1" target="uDfpj5gOAk_nrGFroR3H-5" edge="1">
                    <mxGeometry relative="1" as="geometry"/>
                </mxCell>
                <mxCell id="uDfpj5gOAk_nrGFroR3H-1" value="Object" style="rounded=1;whiteSpace=wrap;html=1;fillColor=#fad9d5;strokeColor=#ae4132;fontStyle=1;verticalAlign=middle;" parent="DfZiOr1Gd_-NJ0TTqh6M-1" vertex="1">
                    <mxGeometry x="-160" y="590" width="130" height="40" as="geometry"/>
                </mxCell>
                <mxCell id="uDfpj5gOAk_nrGFroR3H-3" value="Integer" style="whiteSpace=wrap;html=1;rounded=1;fontStyle=1;strokeColor=#ae4132;fillColor=#fad9d5;" parent="DfZiOr1Gd_-NJ0TTqh6M-1" vertex="1">
                    <mxGeometry x="80" y="540" width="120" height="60" as="geometry"/>
                </mxCell>
                <mxCell id="uDfpj5gOAk_nrGFroR3H-5" value="String" style="whiteSpace=wrap;html=1;rounded=1;fontStyle=1;strokeColor=#ae4132;fillColor=#fad9d5;" parent="DfZiOr1Gd_-NJ0TTqh6M-1" vertex="1">
                    <mxGeometry x="80" y="660" width="120" height="60" as="geometry"/>
                </mxCell>
                <mxCell id="vXHW-TZrkR5Rs4_hYeQm-1" value="Encapsulation" style="shape=image;verticalLabelPosition=bottom;labelBackgroundColor=#ffffff;verticalAlign=top;aspect=fixed;imageAspect=0;image=data:image/jpeg,/9j/4AAQSkZJRgABAQAAAQABAAD/2wCEAAkGBxIQEBUSEhIQEhUQEA8QFRAWFRUVEA8PFRUWFhUVFRUYHSggGBolGxUVITEhJSkrLi4uFx80OTQsOCgtLisBCgoKDg0OFxAQGyslHyUtLS0tLS0tKy0tLS0tLS0tLS0tLS0vLS0tLS0tLS0tLS0tLS0tLS0tLS0tLS0tLS0tLf/AABEIAK8BIAMBIgACEQEDEQH/xAAcAAEAAQUBAQAAAAAAAAAAAAAABQECAwQGBwj/xABEEAACAQEEBgUICAMIAwAAAAAAAQIDBAUREgYhMUFRkUJhcYGhBxMUQ1KSwdEVIiMyU4Kx8BZi4Rczc7KzwsPSY5Oi/8QAGgEBAAIDAQAAAAAAAAAAAAAAAAECAwQFBv/EADYRAAIBAgMFBQYGAgMAAAAAAAABAgMRBCExEhNBUZEFFGFxsUKBkqHB0SIyUuHw8TNTFYKi/9oADAMBAAIRAxEAPwD3EAAAAAAAAAAAAAAAAAAAAAAAAAAAAAAAAAAAAAAAAAAAAAAAAAAAAAAAAAAAAAAAAAAAAAAAAAxV60YRzSaSW9kNpK7BlBz1o0ixeFKOP8z2GP6SrPpR7MDk1e28JTdk3LyWXV2v7rmysJU45eZ0oOdV51lvi+4tV81nuiUj2/hH+rp9mx3Sp4dTpAc+r2q/ylkr8qLoIn/nsHzl8LCwlR8up0YOcWkU/wAP9TYjfj302Xj23gn7b+GX2IeEqrh80TYIiF9p9CRVX7RUsspKLXE2KfaeEqSUY1Ff3ldxV/SyWBoxvag9lWHMyRt1J7KlP30binF6NFHTmtU+htAwK00306fvIvVWL6S5osUeWpkBRFQAAAAAAAAAAAAAAAAAAAAAAAAAAADBa7TGlCU5vCMVi2eb26/Z2ytgm1BPVHdhxZk8q1+OOWzxeGOuRy2j9owWJ57tevOScI6L5v7L1vyO12bhls72WvA6+VdU44RMcLbLiRMrVmZWnWPMulzOusPlmSvpslvLvpGXYQ1SsVhWG6yJ7tG17Ez6fLiXeny4kP54r54ruivdo8iYV4SKq8ZdRD+dLlVI3RXu0eRPWe2tvcc3XvSLk2444tvE3qdfCE3wpT54YHJyqGxhKdpSZnweEjeTtyJv6Qp+yPTafBkFnK5zes/4kbvdY+PUnfTafGS5lVb4bpyXeyBzlM5ZXHdVzZ0cbzw2VZr8zM8L5mtlefvHK5y5TLb2otH839zHLBQevojsIX9WWy0S5m5R0lrrbVT7UjiITN+zU3LUg8XXjpJ9X9zUq4CjbNLojvbFpYscKiXajo7LaoVY5oNNeKPN6VyVGsU1jwLrBeFayVNeK1609jRv4ftKtStv1eL42z/c5Fbs+lUvuHmuB6cDVu+2RrU1OO/auDNo9ApKSutDiNNOzAAJIAAAAAAAAAABRsWYKgxedj7UeaKOvH24c0RtJak2Z4Vp5VdW2Se7F6+CxNCw18jwXUdTf2j1erVk4QxTb15or9WRlPQ61J/diu2pD4M8tKakmpc36s9ThZwVOKbWiKUa5nhWNqhotaEtcqS/P8kZLTo/XpQzJRqa0sINyksd+GGw0JbF9V1OnGtRdltIjqtfWXwrGOV2Vm/7ufJoyQu6sug+9pfEyOi7aGdunbNrqirrMp6SX/R9XhH3o/MO66n/AI1+eHzI3T5MhOnzXVCFoxL41i2N2yXTpL86+BkjYX+JR95/Ih0WVahwZdaq2FCo+OWPNnOOZ0tosalScFVp4uUXj9bDBY8Ikergf41LlV/6l6MFFO7WvNGTDzpwjLads/EjPOFuclZaO1OjOlL+XGUW/eSRGWywVaP34SWOx7Yvsa1MzqKehtQqUpu0ZK/R9HmW5yuY18xXMNkybBmzlVMwZiqkNkhwNyMyauW1qE0pbJan1PcznYTN6lMxSVndGpXpKUdlnplC0JajSvalGrHDetj4MibFbnKCbexYPuM1a8acd+Z8EbcsRGcLS0PMLCyhUutUSGhducKjpN6m8OxndnmF21H57Olhi0emweKT4pHS7IqN0XF8Hl5M0e1IJVVLms/MuAB1TmgAAAhr0v8ApUHlxzT9lbF2shdOtLFZV5ik/tZrW/Yj8zmNH45/tJ69erHe+Jxu0u0nRWzT158vLm/kuT4b+Fwe8W8n+X1Ozp3lWra8cker94mbGo9tRsiFeGGpGOrbtZ5uWMqyd5zk/e/RWRtd3bf4UkvInW3+JLma8qaxxc8e9EZC1NrealW0vEwvEuWTbfm2/UvTw076/JE9khx8WWvzf7xIenWbMjcuDMDnHki24aecmSTlT4LkUdWnwXJETKo1xFObbKuXgX7v4sk3aororwDrRqRcGvvpw2+0aGR8DNQpPMjHKeWRDpRWZy9SvSW6Xj8yz0ml7Hgit72SUa9RJalVqYbNmZ4GorNLgdeMrxT5+R6CMYNJ318WbLttP2FyRT09exHw+Rh9EnwKwsE3u/Uum/4idmnz+bMnp7XRRX6Rlwj4lI3fP9pmSN2vi+RP4yj3KLfTp9QVunxXIyK7JdfIyRuuXHwKtT8Su1RXIwwtk+K5GeFreDUkpRe2LWMWuxm1YbrxmlJ6kdFC56Tjg4rDk18i9LD1Z5rI0sRiaMGk10PPL4uhYedo45elDa4dnFEDiegW+xuz1OMZY4Pit6fWcpfVgVOeaP3KizLqe9GSnUldwnqjr4LF7aUZO/J/R+K9CMzAuUSqRkN7IRibdKLMMEbEGY5swVGbtFNrDE3KMEaFKeBtUZmC2ZoVUycu5YziutHpkFgkuCSOE0QsTqVVJ7IfWfbuO9PSdl0nGk5Pj9Dyfac06qiuH1AAOmc0Gle9tVnoTqvoRb7Xu8TdOK8qtqcLFlXTzeCw+Jir1N3TlJcF/RenHbko8zxq3XtK02mdWTbxk/1OwsFry00luS5nnlkpZYZm8HuXVu5633HSWC2YpLsPN4yipJJcD1EIqyS0OxstbE2XMiLDVJFyOFUhZmeUcyVu60R2SeGvU93eal4TXnHl2ceJrwkY6stZRRzMcKKU3I27PaHHYbMbfxXIi4yL8SHBMmVGMtUSErUnuKU7Rhsw5GhmK5iu7Q3KJD02XHwRs2S34NY4NcP6kNmL4T1jYKyw8WrWMOkt4ThaJKLWVqEl9VY4OEXvIl3pU4+EfkbOlEvtIPjRh+sl8CFzHUoSbpRfgdbC0IbmGS0XBcjfleNR9OQVvqfiS95mhmKKRlz5mxuY8l0RIfSFT25duLLvpSr+JPmyNzDMMyNzHkuiJSN7VV6yXM2IX3WXT5pEHiXQkLy5vqY5Yam9YrojqLHfk8yUsGn1YHQ0rbhq5HAU6hNULxwS2t6iFXnF2bZzMVgYu2yiavP7SDXeu1fvxObvChns0uNN5l2bzdna51NWOVcEZFBZKi3ebq/5GV295UTRSinQS8Gn5HC4lUc7/FFDjLkzYhpHQfTa7VI6TwtVey+h2ljsLLKNWD/7InomxFEJSvug/WU+bJCheNN7KlOX5ka06U1qn0LNqX5Wn5O/oSUUS9z3fOtNRim2zFcl3uu1w4np9w3bChTWVa3tk9rRt4Ts+VR7U8l6nD7Sx8aEdmOcjYumwRs9NQW3bJ8WbwB6GKUVZaHkJScm5PVgAEkA4byoUs1KHDLU/wBp3JzWnVlz2XMvVyx/K9T8cDVxsXLDzS5emZlou1SL8TwW22Z47d6eHWlgZLDinrJG1UfrPtK2azM4TrfgzPTQlkSt31CahLURdko4EpGLS2HIrZs2FLgXRkYa71meCMVYwpZl46lKci/EtpmTAMs2UxKpsYhMggpiy+OJQqiAR2kqeal/gr/UqkLrJvSN66X+D/yVCFbN3C/415v1Z1MN/iiUwKpFMRiZzPmMCuBTEYgjMqkXpFmJVMMq7mxDA3aLRHwZs05GGaNerG5K0pkjQoOrGcVtlTml2uLXxIezyxO+0Tu7CDqSX3tUU+G9m32dh3UrLkjiY+oqNNvjwPI/7JI/ze8Zafkihvx5s9481H2Y8kXZFwXI9VseL6nne8r9Efhj9jxayeSGjvjKXM6W6fJrQpYYU4rreB6MCN3F6lu+1F+Wy8kl6ERd9x06SWrZuWwlwDIjVnOU3eTuAACoANW0WyMNrxfBfEENpam0YLXQjUpyhLZOLi+8h7TfT4qPZtIm0X2t8se8tsX1MUq0Uee3xYpULROlPbCXdKL2SXU0X2LAndJHTtUU00qkMcstzXsy6v0OYs1fB5ZfVktqZ5fG4SVB5fl4fY9H2fjIYiNr/iWq+v8ANDo7MokhhHAgaFU2naGcqUszo7ttknBIx14oj1aiypagpeBkjSdyShFF+REXG0lfSusi/gW3TJLIimREb6UV9K6xdcid1LmSWVFUkRnpXWVVp6yG/AndM1dJpfaQXCjHxnMhnI2L+tqdXD2Ywjs6sfiRTt0FtnHwNyjTexHI7OHhs0o35G7mKYkZO9qS9ZD3oljvqivWQ5ozqhN8H0LudNayXVEsmUxIV6Q0F6xeJY9JrOun4S+RZYaq/ZfQwyxeHWtSPxIn8xVM5x6VWf2pe6/kFpZRexVJdkSXg636X0MXf8JoqsPiR1NM2aUcSDuu83WayULR2ygkvFnoGj9zyeEpx7txSODqzls2sYsRiadOO1dM3dFdH3Ueeaagt/tdSO/pwSSSWCSwS4I1LrpuMdepasEbx6HDYaFCFo+88TjcVOvUblotEAAbJpgAAAAAAAAFGc1eNGabTxx/U6Yx1aUZLCSTJTsUnDaR5xbqM+sha9F47z1C03NGWx9z+ZFWnR1vop9mBZu5qSoSPPaiykJfVtp5frJ4rZJapR7GemWjRVvovkQ9s0Fz7U+Rr1VdWsZacZRaayZ5FT0xnSllazpb9ku/czbnp6n6ufgdzaPJbTm9aNf+yOj182aDwlB5ypu/h/Z2aXaGIirbSfmv6OInp691N97Nf+Op4/3a97+h6PDyS2dbnzZsw8lNmXQRKwmHWlP5/uZX2hiX7a+FfVHmP8dz/D/+iyWnVXdTj7z+R65S8l9lXq48jepeTqzR9UvdCwtH/V8w8fiP9n/lHiL01tD2Qh4haVWyWyHKMn8T3uloLQjspLkblLQ+kvVLkiywsOFJeo7/AF+NR9Inz7Tvu8pfdpP/ANb+JIWepe09kFHtike/UtGYLoRXI26dxxXRih3RP2I9Au0Kq1m+q+iPmW0aG26tOU5pOU5OTbb2syU/Jza3wXcfTqueHVyMsbrprczdipJWvY1JToSd3G/vf3Pmil5MLS9rS7jeo+Sas9s3yPo2Nhprol8bNBdFfqWs+ZG9pLSC6fufP9HyQN7ZyJKz+R+lvcn3s9xVKK6K5IyDZ8WO8LhFdEeQ2PySUFtpt9q+ZP2Hyc0KeynFdyO/BG7iT3ypwdiCsWjNGnuXciVo2SENkUbALKKWhhnVnLVgAEmMAAAAAAAAAAAAAAAAAAAAAFMEVAAAAAAAAAAAAAAAAAAAAAAAAAAAAAAAAAAAAAAAAAAAAAAAAAAAAAAAAAAAAAAAAAAAAAAAAAAAAAAAAAAAAAAAAAAAAAAAAAB//9k=;" parent="DfZiOr1Gd_-NJ0TTqh6M-1" vertex="1">
                    <mxGeometry x="330" y="522.5" width="288" height="175" as="geometry"/>
                </mxCell>
                <mxCell id="vXHW-TZrkR5Rs4_hYeQm-3" value="Metadata" style="shape=image;verticalLabelPosition=bottom;labelBackgroundColor=#ffffff;verticalAlign=top;aspect=fixed;imageAspect=0;image=https://cdn01.pharmeasy.in/dam/products/049311/crocin-advance-500mg-strip-of-15-tablets-3-1653986116.jpg;" parent="DfZiOr1Gd_-NJ0TTqh6M-1" vertex="1">
                    <mxGeometry x="650" y="510" width="277.33" height="240" as="geometry"/>
                </mxCell>
                <mxCell id="vXHW-TZrkR5Rs4_hYeQm-9" style="edgeStyle=orthogonalEdgeStyle;rounded=0;orthogonalLoop=1;jettySize=auto;html=1;" parent="DfZiOr1Gd_-NJ0TTqh6M-1" source="vXHW-TZrkR5Rs4_hYeQm-4" target="vXHW-TZrkR5Rs4_hYeQm-8" edge="1">
                    <mxGeometry relative="1" as="geometry"/>
                </mxCell>
                <mxCell id="vXHW-TZrkR5Rs4_hYeQm-4" value="Feature Phone" style="shape=image;verticalLabelPosition=bottom;labelBackgroundColor=#ffffff;verticalAlign=top;aspect=fixed;imageAspect=0;image=data:image/jpeg,/9j/4AAQSkZJRgABAQAAAQABAAD/2wCEAAoHCBYWFRgVFhUZGRgaGhgaGhgcGBwcGhocGhwaGhgcGhocIS4lHCErIRocJjgmKy8xNTU1HCQ7QDs0Py40NTEBDAwMEA8QHhISHzQsJSs0NDQ0NDQ0NDQ0NDQ0NDQ0NDQ0NDQ0NDQxNDc0NDQ0NDQ0NjQ0NDQ0NDQ0NDQ0NDQ0NP/AABEIAOkA2QMBIgACEQEDEQH/xAAcAAABBQEBAQAAAAAAAAAAAAAAAQIDBAUGBwj/xABAEAACAQEFBQQIBAUDBAMAAAABAgARAwQSITEFQVFhcQYigZEHEzKhscHR8EJScuEjYoKishSS8SQzQ2MVNFP/xAAaAQACAwEBAAAAAAAAAAAAAAAAAQMEBQIG/8QALREAAgIBAwIEBQUBAQAAAAAAAAECAxEEEjEhQQUTUWEicYGhsTJCkdHxFCP/2gAMAwEAAhEDEQA/ANwtnl8IViE8I7Ok82aolItN0RVpFrGApIjYLJLOwdjRVJ6AmSRrnLhN/IjlOK5eCOJUfeU1bLYNqRVqKOLH6aShfL5s+719ffrOo1VGxsP6UxH3SxHRWvnC+ZFLURXGWV2iqv2Jm3n0i7Ks/Ys7a2PHDhH9zA+6ZVv6X1FfVXBF4FrSp8QqD4yaOgX7n/BG9VLsvudK6HhEwcRORHpkvNf/AK13pw7/AMcU1tnelu7uQt5ueAGnfs2DU6qQpA6EyR6Ct92c/wDTNdkbAB8IAZ8Zs3e63e9WYt7paq6ndU6/lNe8rcmmTbgoxUggjIiVLtJKtZXVepPVqVJ4fR/kbprIzacB4xrvXWRseEqMsCOa6xCKRVEWkQAKaxa10jMOee6KXAjyGB1aRC8UNGMc8oMBpgBWDQXOcjEc0jsMKRKZZmACVAyBi1+841V4Qwcz5iAGuV4/v5xKRrHP575cuFzNowXj5AbyfpLFNLulhf4iG66NSy/p7sgs7JnICgnp9JpjZGBC9taJZoMyzMAB1JNB5yh237W2Wy7NbOyQNeHFVU6KNMb0zIrou+h0pPCtt7evF7fHeLVnO4E0Vf0oMl8BNWvS1Q7ZfqylK2yfLx7I9h2n292Xdqizx3lxl3RRK83aikcwGnIbV9Lt7cFbBLO7ruouNx/Uww/2zzgxyNTcD1ljtg4x3Ni+9or1b19bavabziJYeCnur4ATMtcTGrHl90jGtSeGWn2ZGTWLAD2QAa58JHCEYBCEIAbvZXtJbXG3FtZGoNA6E9114Nz4HUGfQAeyv92S82BriGn4qj2kYbmB+6GfMU7T0c9sTcLejkm72hAtF1wnQWijiN4Go6CMUllHobJhJBic5023LgrqLezIZWAYlcwQRUMOIIpOYK0NZjavT+VLcuHx7FzTXb1tlyvuJhO+BJ3QIgw4SkWxrkb5GuZyEkCcY4KBpABFXic41hFY8o0jzgAtMo0jnHZRKwAXFGld8BXdFI0zrAAQxfL3QpH0PKAGiDlwnRdmVFXO+i+Wf7TnPw85qdnb1hda6Hun5fKbPhizCfr0MrXyxOtvjLPHPS2znal4DVy9WFrph9WhFOVSfGs4qey+nbYf/Zvqj/02nvazP+Qr+meNS4IIQhAAhCEACEIQAIQhAAhCEAPW/RD2zCkXC8N3WNLBm0VjrZk8G/DzqN4nZ7e2Z6tsSjunTl/LPnVGINQaEZgjjPoL0edqF2jdjYWx/wCos1Afi66LaDnuPPqIpRU4uMuGcyTTUo8ozlBi4daay7tC6tZsVO7yI3ESoZg3UuqTi/8ATTptjZFNf4xkaRz0jyI0tykJKIxpEbPdBk37+ccKmAEYEMPEyRQIb6e+ADBHaUgxppEausWAEZ+EZjbj9+cVVJ5QwDjDDGau6MuT4Ww16dRpJTv4cd/hM62tClth4qGU81NGHvX3zS8Pu2XY9ShrqvMqfsdtte4LfrlaWLU76EA/lcZqfBgDPlq8WLIzIwwsrFWB1DKaMD0IM+oOzd7zK7jmOu8ffCeRemnYHqL4Lwo7l4GI8BaLQOPEYW6kzXsjtkUaZ7oJ9+55tCEJwTBCEIAEIQgAQhCABCEIAE0tg7YtLrbpb2RoyGtNzD8StxBGUzYQA+nrC9We0Lql4sdSNN6sPaRuYPyO+cxbJQkHLrOC9GPa7/RXjBaN/wBPakB6nJG0W0HTQ8ugnsXaXZo/7qaH2qc9D0Mh1FHnQx3XAQs8me7s+TltdI48o7DHVpMFrHJqp5GKnHyjWB0+6R7tTWQu0Qx/jGM54QVeMUKBDADK0rWLTjHVG6IQTy6wYDWrxjcEmwxMBhgZqNacK9ZlbYRsAtBm1mcdBvGjjxUnxpNBqb5E7gCklhLbJSI5RysFjZN6oQyngymbXbnYov8AcHRRVwPWWXHGoPd8RiX+qcRsa2wM1l+Ru7zRqlKdM1/pnovZy91BSvMfOekjJW0qS7GFh03uL4f5PlQiJO69LPZ3/S31mUUsrxW0TgGr/EXwY16MJwsjLQQhCABCEIAEIQgAQhCABCEIAAnunoj7VC8WJuNuavZr/DJ/HZDLDzK/CnAzwuXtj7Re72yW9maOjBlPTUHkRUHkTATWT3vatxNk5WmRzB4j67pmO4rSdmrpfrqlsmjoHTkSM1PjUHpOIvSBCcZprr8Jn67T5/8AWP1J9JbtflS+n9AWrGlpD61m9hf6my8hqfdHiyA1OI/2+UzGjQJVaorr84xxHZ/tHEcpyAgXnAn3eUKARCYDHA7ouA8PhGoCddI7DygInVGbXux6WQ6xcPh7v+YqA/fznYmZW2VwMlvuU4LT9DkZ/wBLUPQmb+x72QQRqpqOm8SnerEOhRqFWBBHEETL2HeWUFHPfs2wN/MPwt4rQ9azX8Nu/YzL19OVvjyjr/SLsAX+4sEFbSzHrbLiSozXxWo604T5nM+rez17qChPNem8Tw30s9m/9JfC6ClleMVovANX+IvgxxDk4G6XZx2ywQ1T3xTODhCE5JQhCEACEIQAIQhAAhCEACAhACAHv/oRvZe4uh0s7Zgv6XVXp/uLec3O1OzBUWgGROfI7j4yh6HtkNYbPVnBDW7m1AO5SFVPMLi/qna3qwDoynQikFjh8PoziaeMrldUeZNkcvvqYgTlLl8uxVip1BofDfK5WYeppdU3F/T3Rpae5WwUl9fZkeHl745uURhACV+CcQCNBArHlc5GWA18pyxitG4ouGucXLiPOMDQC51gTGV+/wB4uLMbhJMnAjPlp0ExNp2ZsrRLx+F6WdpwzPcbwJw9Gm1gjL7dUdGRvZZSpz3SSqxwkpHE4KSaZf2PfCrAjVcx03ibfbHs+u0bm1mKB8nsmP4XAyryOankeU8/2De2AKP7dm2B+dNG/qWhno3Z2+g9wnI5r8xPR5VtamuxhpOm5wfD/J8u3u7PZu1m6lXVirKdVIyIMrz6I9I/o9W/D19hRLyooa5LagaBjuYaBvA5UI8D2hcLSwdrO1RkdcirChH1HMZGQlspwhCABCEIAEIQpAAhLF0ur2jYLNHdjoqKWbyAJnc7C9FF+t6NaKt3Q77Q1enJFzryYrADz8Cen+jz0bvbMLzfFKXde8qNkbWmYxA+ynM67ss53Wx+wtx2cq2rqbe2Hsu4BoRTNE9lacTUjjJdp7Xe1yJwp+QfM74CbOpXbF3rhFoopkMiAPGlKS/WuYnmzPlTnX3U+sv7J2q9kwFapUBlOmZzK8D8YCyXu1N3o4b8w94/ak5t1oZ2PasdxOOI/CcnaL7oavTefQpLlfdFajUKjVOD4ePoyr1z5cI4DfX76QJ45REbwE82ehExHoYxjTX/AIkpURQucAyMRCc47AeXnFEXDFgMkyLy8I4mlAcouOnz4+QiVO6tJ0AAeHMxxXl+3hGlONaywo6xrqI5rbNn6m1S8DJWolryBPcc9CadDOj2TeSpABoRmpkV7uqujI4qrAgjkZhbEt3XFZOf4lkQpO9l1RvEfAzY8Ov/AGSMzX0blvXKPX7lehaKGGu8cDKe29gXa9rhvFitoBoSKMv6XFGXwMxdkbRwkN+E+0PvhOss7QEAjMHQy9ZDa+nBVou3x68rk8k2v6FUJJu15K/yWq4h4OlCB1Uzlb16Idop7K2Vp+m0p/mFn0TMG9X12zQ0H4RWlRuJIzzy6V84yc8GHou2rWn+l8fXWNP85fu3og2i3tCxT9VpX/BWnsrXh/zP/uP1kZtW/O1f1N9YC3Hnuz/Qi2Rt72o4rZoT5OxH+M2E7FbKulCyG2YGmK2c4S3AIoAc8sJne7MvLOrKx7wGTb6NUDqQQfdOV/01HR2HfVWsj/I9VrTqVA54l4wBsdYbTKrgu939Wm4Ki2Ce8Yv7ZMu2rWzGK0yG9ltC6rXe6si93iRprSMaNpXI511Go0zgLLN61UXmzqKC0SopuNdRX8rUBB3EDWhB5a+XdlJBU60poQcqg8KVr0oRXKtnYl7Ng+FicKELUnWyf2K81oR0UcZ1t92atpmcm0rSoI3BhlWm4ggjjmag+TzxLWppQb/caa7/AHTV2HcDa2q/kQh3PTNV6kjyBmuezQrUuFG8gVNOROQ8ayO/7WsrunqrGg5jM13nix5zpRbfQjlNRWWR9o7yGYKDkuvU6zDcSrabXSuav1y+ssWVsriqnqN46zQqcElFMxr42OTm1giZI3DJnErsDXIeM834jpfJtyuH1X9HpPDdV51WHyuj/sfSI3KKY3EN0zjRDDFpzgTXfDGOU5AuIMqcItBXL78Inh9PGLTf/wATsRJGIKwGe+ISFGp88zGIlM5jtIps3S9KPZ7loPzITrzKnObptCeNOH1kdrZBwVIqCCCNxG+d1TcJKSFKKawxdl3oZZ1VqEH4ec6TZ20WszQ5rvHDmJ5xsgmxd7q59jvWZ/Mh08VOU7G6W2Jc9RrPUaeyNsMM83qq5UWbonc2NurrVTr5jqJiLZlQEIowAGHjQUqv5hzHjQzNsbZlNVYg8ppWe2ajDaIGHQfA5Tmenkv09TuvVwksS6MjZZCVY7woz0zPI1OWfCnjNFbzYNozLyOf+QIHhFw2P/7L5LX78JC4SXKLCnB8SRFsxsNqv8wZfdjr/b74/bOzqsbRVJDCloF9rL2XUbyNCNSKcJLY2tghxYwzUpU5kDgAooPAZ0Eda7dshpVug+sahJ8IJW1xXVoxHCUzZSRqcaip4kNQqfCNs0LewjPzVSR/uaiiXbfbldLMdWzMxb1t22euEnDrioQtOIC7uZnTqcVmXQiWohJ4gmzTTZahg1uVVahiuLEzkaBjoBkMhWoymhee0Cj2FJPE5D6zi7f1wPeeh1pQfSPsbZwBjzBKitKEFiFGnMidVqtvDycXSuUW44X5NW/7StHBqcqEhRkDTdzkbbAcqHHfLUOLKhBFQddJDHreWUGjsq5nJmA4k0BpLNtOYpR6FKjU7ZNzy2ypfNj4EJcqN9TSi8hilW4WBBLZhaBVr7R4seGmXjykl5tHY4gCSNHclmHTEThmfa3i1U1x1Gu7UVqNNeXWV4ShXLL6suWxtujhLCfryaziRPlC62+NTUUI1pz0PKOZZ3rKVqKGlzyipo7paW/rxwyBmjS4iPI3czyDTTwz16w1kUNuhSNVqmSU5e6I6L+KmlY4LxJp743pInf7rOzkmtnpkPL6mRg513xqCp+/hFcgdfeYcgOT3+7zis+4Z/CRAk8h9749KaAQAxO0t0ZlW2QfxLI4l/mX8a86iW9jbRV1S0Q91hmN/MHmD8JffMaV5fek5RQbteChysrYkpwR96+P0mlodRte1lLWUKyJ36GucDKGzbxXuHw+k0Z6SElJZPMTg4SwyMWbuSEGmrU30rQDjQjzjV2PbNXEXBXMip01BAGuXLUEbpfuN9ayJwgEMalTxoBUHdkBx0l87fpn6oczi3dcMq2qxvpwXtO6VHrz7nP2Wy7SuTPQVzqSuVBzU/seVUUtVlamJTQkdA3gc5evvaRmyBCj+VSzeDHLyHjMtL0mneGuoOpzJJzJJOdY6Xh/E/uc6pKS+FP54JbVMSleII6VFJt3e92JQKVKMMNe6WXIgmlMyMt9JjKQcwajjEtHIBIFTuHEnTpnJ7K4zXUqU3SqeEuTbvO0bACqqztpiKheeZalB0E568X1HbEzqKZhRUgHiTTvHn7pePZ+0Pec1ABJJOEA8BXQa+WZhbdnGIUqKA61GYBFc+B3daSmpxi/hX8mlKudkfiePZFRHDZgg9DEZa0qKgMpI4hWBI8aUkdrdQjqqmrAgtTQDfXhXQDx3SYCXK5OcctGXdBUz+F5NRlurDEWav5SrZHLSgPDdvJmPfnQVCKAPzv3FHge8elAOcV8RIVBVjpyA1P3vIlV7hU5ks2QO+hIJA5aGVrIQrfqaFNtty7JeoXbABhVwxJqTUVY9PdSSsJlW9yyxAYfZNTpSgOpHDIjl4zRurEopNd9K6kVOE+VJPRbu6YwU9Xp/L+LOcle8JnX7rIlGecvWi1BEzrS06zz/ium8u3fHh/k3vCdT5tO18rp9CXIRPWDhIi3X75yTCOJ85lGqXitRqeggq0+8o6hjSfOdnImI9Of0jU++fnHPTfGKDAZIxgvPzgdwihvP4RAOQ0GUzdsbLF4s2XfqrcGGhE0VA1/4j1z1nUW08o5fBzewNoM6lXytbM4XG+o0boafGdhdrYOtfPrOL7R3c2Fot7QZZLaqN67m6jL3c5t7NvgycGqsBpvBzBno9DqFKOGYXiGmw90Tek+z7gtq7BmzUAqvHi3PPLllxlcGBE0Jx3xxky6pqEk2smzdNggAhqaLhOp0ocXE1FfGQHY9mox2rBaV1Iw5gZfHIfQDPa8uMg9oeADtX45CVTZWzsSFoQB3mBLUNaZtnuMpSqUX8TNKNzmsxj/ACBUY3KAhDhC1FCaVq1N1a0oc8vCKVB1kL2Vqp9utNQFB30NaDKSriFAwzIqCNCMq66aiXKrYtKKM++mxNzf2NCy2vbKAMQammIVPnqfGU75t21buhmNdy0UeDAYj4GRuoORrSq4qalcQxgcytR4zeXZ1g9Gs2U5Z96lCKFCRQ0pnkR8JFfiP6Yk+l3W53SfTtk5M2loNERR4/XWD3/DgxoQGZVDDMVbJajWhNBv1nVXxLqtSWBbIlUOJiRTPAtTuGuWQnP2y43UhcCJ7CZVJpQFqZAAE0UV48oqp2OXsdaiumMXnn7klm5VlZaVXSoqDUUII3g/ecvWu2TQ/wAFAdS2IgdSMPzmfJ7ns82pameAA4eJOKmv6cvGS3Rjjc0VdNKxy2ReDKvd6xmr1fOuEDDZ+RJLeNRG2O0Uc000z1GelTumpedkP3WUBRXNWy/FqapUgjdlmdeGPfLoEbCtS7VotTpUmp4AVOcrwtkniK+hds00Gm5t/PJcdZStkzl1x8NZRvjgOq8mPlhHzh4lBS07b7YZX8Lk4alJcPKIX0yA+cSnWLi3nL5x1Os8keuNEnyjM+kENcx5n5CKskOQKjj8ayI8NJOTlpG4hwnLGCiPrwjYtmtIxD4p5ecTFSIr8TGAy0s1ZWVgCCCCOIORnJbNc3a2a7Oe4atZMd4OZXr+/KdepH38pidoNlG8WfdBW0Q4kbQgjTPdWnwk+mu8ua9CK2tTi0ze2Zea9w+H0miBOJ2DtI2iZ5OhwuuhDDfTgfqN07C6W+Na794nqKLVOJ5jU0OuReuF4VGxMuIEUPEZ1BFfh9M9c3+wbFmRiCimBssJJB0ocz7pgGOsbBmZVXIsaVO6gJJ55AwtqjL4mOm+ccRismpa7TsUHcsyxpSpGFfEtpv0B1PGYNveQzl2dMVKBVIwqK1oM6knKpOtBppNV9iEMAQWFDViK0wkVNAamtcgANPKVthjHhwjDxod414a1GdN2srxnGLzFfyW51TsjiTx8jGpGN0roAKVJJyAHUy5tDZ3qQpJAZnwhRWjDMnI8FzrykCEqQw1VgwrpUEHPlLkLN8MpGbZT5c0m+gNs+0NQQwwgMQu4GvifZOnlK1vsa1DiiYkNM8upZiTkKV030ynTf8AzVmaFkdWApUAMKHUCmo6gStfNroQAlgWIAVWfCqgbt5b3Sm42SfDNJSojHlGG9lgwd6oc0ArX8LNUeUks7VlOJWKsN4OfQ7iORyjHqWxu2J6UFBRVHBRu5nU06CNLS5XFqOJdTMusi57odCe3vlq4o1s5HIIvvVAfKU0QLWg11Nak9Scz4wtbZVFSQBzMxr92gRck7x46Dz3zp7ILPRHGbbnjqzUvNuqKWY0A1nCbR28ReUfRSxWnBNKnzr4Qv8AtB7Q1dshu0AnIX6847So0GS9Bv8AGZ2puVy2rg2NBpPJlulyeuaiopyMSnP3yDZYPqkJzJRT0yHmZcqeBnmZLDN8t4DWlf2ilIpaGo6/WPACKfOK2Z5xw6xpGeUeBCEcaxaxCaxK1yNKRDFZuEUJn9/CNrXp97pKiZfdYLqJsciwblFLRUXKM5OP7QXRrtai9oKqaLbKOBpRuvz6mbdwvo7roaqQDloQZevNmrKUK1BBBrpQ65TibraNdLY3dz/Dc1snOgqfZr19/Wauh1OHtZS1mnU45PTLvaBwGXMfCTohBDDIjMHhOOu1/ZDVT1G49ROhuXaOzNBaAoeIFR9ZtqakjB8twfU6FdrONVUnjmPrI7ba9qfZCLzoWPhmBKQ2ldzmLVPOnxla32lYj/yJ/uE5VcPQkd1iWMjrQEsWJLMcsTGppwFMlHIACRmZ9429Yj8degJmVee0w/Ah/qNPhJd8IrBA4zm84bOid5XtLYDMkDmTOQvPaC0bQhf0j5mZltenfNiT1JMilqYx4JI6Scueh19525ZJlixH+XP36TFvXaNzkgC+8/SYNo4AqzADiTQShb7Ysl0JY/yjLzOUry1Un+ktQ0MF+rqatvenc1Ziep+Up3i8qgqzAfE9BvmDeNs2jZLRByzPmZntUmpJJO8mpleTlL9TLsK0uiRfv+0y/dXup7z1+kfsLZrW9qqAZasdwXfLex+zVtbUJGBPzMCK/pGpnoOy9lpd1woOBLfiY8zKt+ojWtq5LdVb5Zas0CgADQASWo4GNWLU8pkFsuBfDjD7ECcs9+pgc9KTsQtctIitE6Z893hFA3RDE46HwiCzrrJAvCGHKAgVQN0crGNrGtaU0z+EeQwTVA5yNmrIg5O6vwjsHGGQwDMONT7pjbf2Ut4sypycZoTuP0M160hX74QjJxeUDWTzi4bbayY2N4qCpw49SKbn3kcx+83kvAYYlIYHQqQR5iXO0HZxLwuL2bQaNx5MN4nnl92feLsxqGTP2lJwt/UNehmvRqVNdHh+hQu0yfVHZvanhIHtDwnILty8D8deqqflGPtu3P46dFX6Szvk+5W/50ux1zMTKtteUX2nUdTn5azkrW92je07HliNPIZSFbOuQnLb7skVZ0d429Zr7ALnpQeZz90zbfblo3s0UchU+Z+kW6bAvFp7Ni9OJGEebTdunYa0NPWOq8lqx89JHK2uPLJY0yZyNo7MasSx5msmulxe0NERmPIE+Z3T0i5dkrumqFzxY1HkMpuWVmiAKihRwAAErT1sV0iiaNHqcBs/sTatQ2rBF4DvN9BOq2d2cu9jQquJvzN3j4bhNdnH7CFMvlKlmpsn3J41xiAOUQLzi0gFr0lZs7EHARc5IEFM+f3WS+rX7E5yAvWtOETXh8v3gNPOPOqyRiFAjUyPz3+AkjaxrfWNAOIkLOAJOsoN7cGA5nJ49KfKOazOprGXTfLR0iGRigi46xpjkiAQCDEaRLPX75xR84ACiQvZgghgDXUHP3GWOMitNfCMRiXrs3dnNfVBeJWq+4SmOxl24P8A7jOh3H74R508JKrbEukmJxXoYlj2Wuq/+KvNmY/EzUu9xsk9izReij5CTcOsWy+X0kbtnLlgopCYCY8xq6+MfaaHwiGRE85EpavzkkWyiYxUQCOw7hGmWLD2pyBGLPj5R9fsRzanr85XvGn3ygA497QjnwHKR05xtp7K9ZPORn//2Q==;" parent="DfZiOr1Gd_-NJ0TTqh6M-1" vertex="1">
                    <mxGeometry x="638.86" y="1035.32" width="139.7" height="150" as="geometry"/>
                </mxCell>
                <mxCell id="vXHW-TZrkR5Rs4_hYeQm-7" style="edgeStyle=orthogonalEdgeStyle;rounded=0;orthogonalLoop=1;jettySize=auto;html=1;entryX=0.444;entryY=1.01;entryDx=0;entryDy=0;entryPerimeter=0;" parent="DfZiOr1Gd_-NJ0TTqh6M-1" source="vXHW-TZrkR5Rs4_hYeQm-6" target="vXHW-TZrkR5Rs4_hYeQm-4" edge="1">
                    <mxGeometry relative="1" as="geometry"/>
                </mxCell>
                <mxCell id="vXHW-TZrkR5Rs4_hYeQm-6" value="SmartPhone" style="shape=image;verticalLabelPosition=bottom;labelBackgroundColor=#ffffff;verticalAlign=top;aspect=fixed;imageAspect=0;image=data:image/jpeg,/9j/4AAQSkZJRgABAQAAAQABAAD/2wCEAAoGBxQTExYTExQXFxYYGCIaGBkZGBkdGRwaIhkZHCAfHR8iHyoiHxwoIBwZIzQkJy0uMjExIiE2OzYwOiowMS4BCwsLDw4PHRERHTAnIicxMDMwMDIyMDAzMDAyMDgwMDAwMDAxMDAyMDAwMDAyMDAwMDAwMjAwMDAwMDAwMDAwMP/AABEIAMIBAwMBIgACEQEDEQH/xAAbAAABBQEBAAAAAAAAAAAAAAAEAAECAwUGB//EAD0QAAIBAwMCBAQEAwcDBQEAAAECEQADIQQSMUFRBRMiYQYycYEjQpGhUrHBBxQzctHh8CRi8UNzgpKiFf/EABoBAAMBAQEBAAAAAAAAAAAAAAABAgMEBQb/xAAtEQACAgEEAAQFBAMBAAAAAAAAAQIRIQMSMUEEMlGhE2FxgfAiQpGxUsHR4f/aAAwDAQACEQMRAD8Ara6QrC4o37sLkwwMhhGOOlW+WxLb90s0syn5mjk5jExNC67WPbKkkFchQ0HkleOQMKc8VdZuFwkbRuHWQJkkjp7D9a+cnGl8iaFpnGIhcTtIPzdv2q0KxLzyCrfUySI7DiaqNlmZd/pYmCZxGT6frzWjotE3mHzC2QZI6xx7fwz/AL1Ci75AxRac7SwAYE8RM5gN++ajrNI+3kGRywzB4gjMYorTruLjIIYwSI3QeuO0ioKh53KQFkyY2icgT+uOtaRm7oEK1ppVDu3EgBpBO0gZUzwaF1Ns7y6/Mu2ImTE8/pV3myxKMQGBP+bExB6zxUhcAEJAfLeo4Azz+4pqWMDYO3iAbcWCy/Ijhsjr0z0oe5qCVT5iUnC81N7YAW6FIUGcrImZIM/erdSRtDIdoOTBgzORA55p4GVXdQvCmfTJAHB96a3qG3QTzGYxkYP7iaZbCqXuITJEHPtIIFStuJ3MZxtE8wYj7VLarAF4csFPBUw09e/+tRs3DJUHEmT16daruX1thJJJnaYj3j7iqrgYtAaAQc/xYE/aKW1tYFYTculzABkEQT3Gf5VPzwV3QYiDGP0quxt9bAExBWMj6/TvT2rzFfLZcNkYiAP+cUnEYR5oNtMKOuOSByf5UNp9fJZSFI3SQQeeg9sxVlqysBmYiVlR6YEiMfoaoteoMm6dhyAAJaQZOJM+9NRWQCjrFUmAQAOpnM4j71daTzrZmAFHCj2z+p61nazU7QARO4Zx1H8se9F+F3FgKcKZz0jGQRmltumFF2psOhG1gQp4gbgCv7/WpXNYRcJI3oBkTxPae+RTXUuWnhhB28tOQZ4nnGftVGjuLulSWPBBgrzn7UTVdcAwy/eumBHoUDJIkz+4zWbZ8GJVyoh+Y5A7AEGe5orXoUJJlhyEJP6AnoMUboritBtj1IhZoOIxLEyOh4z1qY2o4eSTM09xlcpeVogDcMMuMke2OffNX6cIHVlYA7jGJhWJBJA67gDjvVfiOmvSSpxwre0RBz3IH0im0iy44DglCUEAL2jicAz708ONlUaN7/D4Qw8q0yBGTIjAjpQev1Bc2jeUbCCCVbavZTiJxx3k0+u07IAU2wrAHduB3EEnd1PIFOL4uBd21hkLAIUHqFHvwT06VMY7UpcgWW9WGuBtzFkm4wyTwAoOc4kfeir7su3cs78iRkZGROeIP0rMXQOhuKogv65BA45EH5SCTRRLMLYJyAc4OCF2jHQzzx0pNU6TugC3CG2puTImCeHJ4wMgAgdODVjarYiqsMIABBBEnJ+nbNBW7YDeto3DaGHCEyBHEtkcfervD9erW/LcMCWj1fMQPSCTIkxkkYHFRJNqmuP9jbNVdM7eoW2g8RtpVlTf6XrajoGIBA+m7jt7RSpfBl+MeAHxPVXbr+WSlo7JkKACY549MmRQ3huqt2jdJbzTBJDHIeZmeJ5GJxFFXtKrAZ4xvBPrAnmfz4IKmDWRrNCbO9R0MH7FeTyQQGM/Wu5NNUyDatXS4VlgwswNpBBAk9yfp71dpWJDKWaEhgAwkYyAevEx9Kz3UbYUQ0KcDBbqy9sD9avt3fMVSPyNuysBh+YHqZBrLHCGE6q0XUi2zzIfa0ZwQCp+hmrWVdo9JUxCkdehB689qBuFlO9TuV+AeV/LtHbpihtXrAmxTIKMGBwTzwT17faiCbV+nAD2kZZRkg7sYyQRkicc9aLtkSAgILKYODJGAB0J5qxL3mMH6ESZgAYzHYzH1mszxB2Ubrg2icEYAaen6zT7tCB20TKhtm4xJJaHBHSYz9Oaa3ZYFjG6R3E8R/U1duVW3EmSJUkyCYiM9OmOKfSacFWuGZ+UwZz0BE+xrRN8gU6bUwkREAqT0BH2+n70MUuMTyIAyZjoJParUsmz6yCVlZnghm5roND4DfvsTaPloT6nIwQDIAH5quGm5yqKAxV0OArgkgcLklh8sDrXQ+D/AAU7qpvsUUcLgv8AftXUeGeDWrGVEt1Y8/bsPpWhNehpeEjHMslqJhN8I2ABtLAj3/n0/auT8d0FzTXVBkqZ2nkHjEdDx9iDNekk0B4x4et+2Ub6g9iOD9s46gkU9bwsJRe1KxtHnFtdw3KhmSQOh6wP3qvTMdz3IKhhBABiY6/fNEazSC2zrlHWRAJmZkfVT0I9qZ9XsMbSdg6nknqQDk/6V5VcokqRGuIF+YA+okxgqDJzR2ntrIDgkHiOw7fXvQNnVIvqad+0QBn1e8mOvv1ooS1z0zI9KmfTGSSfaetS16CsqNs7ZPmG1PJM7QCcxOIJ6RNX6W7tG5M7QAABEj3/AJfeqg5KulwBowMj1CeR2E/rUdPfgOgTadu4R1npHtipk5d8oVhN/UrtEnD4CkZEzn6QCKloFYb9isoKExx6e57kRxVHhuoB2sRkCABBEgEgHqaI1d8rtOfUTKknA9vvmlaugZG4zXFV5aAQGAztgEz0gxB471Z4Y4V1UkONstgkk5iMTxE/Sqr2obzDuIAY/T8sAsPzMJq42gLbX7ZYlRtYKCSPcRwMER0xWVWtq+wWEWbcQB824eo5IIOQfrIH3FNY2AG0Vad5AE/LPSe/16VleE68gy4xMIOGmZnuDPP0ox9ZuuBwpnPmJAhmjr1BnrTcZZX9BZfo7Nt1ZWAVogE8coBjJIbE1K+5YFFKLjbuXIiMQeeQcCgNrO7KXBaG3NBgSQ0x0jiPaq9Q5tlFRgdm07R+cltoP0k5mltb+qAOXVyyqrqEU5Rj6jj5uw+kdaF8UZot+aoKOWWFEkJuYgDpJ9Mz7+9P4h4gULW0KC5d9LAzBhTj2ktAijbloulsgcWyCMASTLbhMQNpgHvVJqKTYAlwEklfl4EKOBilV1zQliW8wLOY2gx+9Ks98PxMAe+rW7ZC3EuI4V7NxYDgn8rDkTBHUirr7Sqsjhi4nYRmTHXqQMT70PZQNKqo2KTtUCWJkfyw0x+lRYo2wKrREnb0ZSQc8iQAYrrnJWPBTptwczuJJhlBMgdHXPI4I6irvIdQ3mb1JMxIaRH1BA4+lTvrtIZVuQWEhfmAPO2Pb3q/xjSMiMGZWjGCd20gmDnH88UlNuIjO04RbbFjvlhwYYDdADCZEn2NCHQbnAAKzhlPBaYnpAE1N1QqVt/wjeREwI6xPOczQt52dlVVIdo2kkkTIBLDmenvW0FfAGvo72yVIgRtYzJ7SR1FNdUPMAlcqV7YwY65rMtaFxcuS6uykrtDT3B5/lRWm05k9mIAAmQI6z7g/qKh6dO7GP4pptwtPb9Xpgk4G9cMCOnT96n8OaZ7rny7ZJYEOvAB7luOnNavg/gFuza83VuLVmSyq5AfM/Mw9jwJrqvhzxTRXR5eluW22/lXH7HJPvXoQ8K5ZlwNIH8D+FVtgm6fMLEHbA2LEYEiSJznHtW/EYocali6wfYrgD3mjLyZxx0rrhGMVUUXwVE001E001YEppA1GaU0wML4s8JDr56KN6wT7qJMc9Mn6SOgrg0kE3WUHdJGScD+HrH1r1quB+LfDXsXAUWbTmAQPkJ/LPRTyPuOhrz/ABWj+5fcloyhpGZpIjcu4QRyeBPc9qlZ1ItgqVMxk/lI6r3mcU1jTvdjadog5JhSZjA/0rQfwK+gNzYlxVEjaSSMckEA/fNcDhJrjA/hzrdWDOuKd/pMYEEGMckfuf0qd8CDcUnzT8wH5YEg88Ht0qrbvt7xkjp1gGc8RyaGu2hbDOrNI9QBgCJ4OcnrP0pQjd2Zl2lvJuN0vO2NoHBzmPY9q1LjA5cDPqGBjgSfvuEVg6G6DZZDbU+qWedpCxiIzHsOaO8UtFmMAE+ngn5YByRxmonBbv5+wrCbzKoDXI9J+YQYBPBjmZ+1Ss+IG3uCruUkqQvJEEervn9IoTUuiqwuFWWDhZALARMxkAxzFUabXswgW29Zn0ycgAmcdZo+HjcFl+ptkKVI2BWUqOYBDEgnLQcTUdTZe56VddpneoPHBzBmMD9KOthCzF7jbyoCrAECRA4/nVF/V27bKtsOxglnEepicyDyBHXoaIzbuuQNFL1qUkNJltwaAxChciJIJPND63TWw63S59A2woziCpgkSOKG8QFt/Jui+gcLDpsltswoKqNsxiJAo4eHm0xUgYVipDAMS3WMxErgT9ahw2pNMdGXr/FFa7uW2FuZljlsiAFXiYJgk1o2ruxAlyNwUeY7E+g54A+Y8rt9x2qi34ZZ9OpIh1yVE+XvmA5zx8pjqZqXjmk37CLilC8EB9gZ9oM/J6pMjnHanJRdRXHf/BclCeJbfSpYgExKCeTzFKrrF/TWx5ZtSVJBO85MmevenqnpR9P6DaFNdJJ8sorliSfljP8AKQw3e9B37BBL3mChTuHdpgZj+GAD9QetNdtm5cV1Zw20ssLuMgmQRgQfcxIovUahzaW3csyCQDuAlRzDCTjEz9R2pp5Qyba38PzhdKcBiU4b3A/9MgfzE1TatSHdNuxyJCiQvY8YHAqu1ddlU3LkIclGVdocGCsDMER0EYqeuJUeaqsBuOZiOwgdo+lDVYQynS6cb8bRIIYRB4IEdORWf4k7i+GAKkH8wEDEiT0zNbVvTltrWgAeHJ4wJkd8QI+lB3PFE37bykxMXIEqe0GZHSTNaaWWFdmNotMxvAJ6mfELLCOrfrW34Vb8rUAXDuSeOzAEhT1gkCs27dcXfMG8T/hn0rIjkMkD/wCsV1Xg3h9u+gDu28dZBg/cSc9SZrphG5r0RWnBzdROL/tM8Ru3dQqsTsC+kdOcn6+9Y3wjduJrLBtli3mDjH1+0Zr1DxL4TXUDbdWSvUGCPcHsaI+G/gzT6VvMVSX6FjJH0r196octNpi/tC+MP7kgFpQbrkgTwoHU964Twf8AtS1tu6pvOLlufUhUDE52kcV0H9oHgFzUQU+dCYB/MD/WuS8F+BtVfuhGTYs+pmIgDrRGqJluvB7izBlW4vyuoI+4mq5p0RURLaZVFCg94ETTGoLFNIGmpxQBOqNdpVuIVYA/UA55BE9Qcj9Opq0VKh5A8d1HiDG86t6XVoI+n9K634V8bJhSc0b8XfClu9/1FtIur80fnWMiP4uo9wR1Fc5p2WzkQSciTAA7z39q59Wo5PR09eLg9w+suE3Lyp8kvBmBIYkDn7T9Ky9R4eyMoZW2ESxmT3JOMkc/aq9Trme+ceiPTAgHMiP+6ZpHUXCsGQAJPIhZ/nXmSi08dnlyzkkmjFvzFK+YOkSY45/hPHNXakGWaIUIpJ3RtO0ZHt0+1V3fFLe0FXMwNwUc8yDNaGqRbiqGgMUU5zg+wx78YqZN2rRLKG1BBCblNswcgGCYknqe2TU/Cru4MIAaCFXvHURzgER9KHTRqrAAh1YTAMgx2nMz270X4npwjqUbad+4hed04jE8mTPeKhv9otoN4Y7Xd7W7ai5bMj09DI5nEcx1mimVzdF0ruVDtycEBRvIHOAGn7VFdOQyOrkwWuOBIiMBR/2lzMe5qepurb5uKZSQUJAVecsQRtbk9fpQ03KohRnaa9aO52Xa0GYB5JG0c5J6AYqR1DOQ+4IgO1WLQTjLD3Joq9uyUYbDycjJUHB5CxGT0x0rPv27l3YbVubZK8ECSNwIM/XAFWqbd8fUbZu6i4iWUUOCgbzNxyQFUce8kD/zV3iGn8wfgD0p6lV2UNvMQZnIAkjoRHagLtgNbVbiwC0uACpBxCx1JO3HWJrU1OmJKpIRhM+oQUndgEwAAo5xE81zYX8kp5Oduau2p23LO5x8xDW2k/5tpn6yaVZus8aIdgthNs49d0yO/pIGecd6Vehsl6FnSHxLzSbD/hGZhAPROY9wAe5q24AqAu/mk+ljECOkgSC09fpWX+IpIuKAjYVgYLKSfzfl+hgHBij910oyIVWANpEbirCQST0iBI7/AErmlBdBRIK/lB0cbTEhis8wIkTJwava8tsMsDYPSpjdzxMxPag7Nlo3TjbDB+4En6DJzWlobfp3MCREtIEKSCBJPf8ArUPCT9ARj3lcPbtFS+6IKyfLILZPTOPtTaixeuLdVtouqJX1KNwna045Ag0dJPzDaeQOCVJkervM+2aE8S8OS8xcyGG4AMYeYGABj27VrCSTQGF5d21ttsR5bYJkMoaSQYnt1EV1Pwje2XNofeIw3f69j0isBLMxbMsCvqEiU6dDz1o/4aAW6AO3efvPvXbpZdm/hW1M9MDYDgTGD7j/AFHNNeQOsTKnt1HY1Dwu5uQjrUrYQsyQN6gE+4PB/UEfpXZF9HRrQ7GvW1b5hPt1p7VkDoAOwq4IBwKVaHIOKVNSoAcUqVKgB5pxTU9AEq5zxvQaa2d11AQ5PUj1EEyBOARJxwZHauimuP8AjK4XbZ/D8vseZ/50qJwU1TL0pRjJOStGfrvhosAdKVKgRtJ9Q5M5+YyfrWLd0Kspt3JW4BwZzHII5P361oeDeKtafOMwR2NanxZqLdxbV30i4WjJjcsTk+2P1rz9XTrKwzfxHhYqO+Dwch4f4eqLvLkkE+lV4gjJ6wQecRxR4t3iCzt6SdyyRI6YI+UROKtunbuAMbxCkLxPUz/Wo+H2d6iyGDG2oLGT6vVmBweeP9K53Jy/V9jhBtV+HcBgIoSQ4M7hMwMwJXAjrRen8ReGt2rnpUeZvYicHBxmOMj9KxfGvMRty4mSNqkyMmODC+xofXaW5ZIEyxQEssiAfVA5g5rRQWAbOm06SPLNsBH3OzGTAEdeJLHriq7fl3HWxZHyttm4yQwkyoK5iDI95FUa6wNgddzAnbcHABkiJ79qyNDe/Gb8NhEnAlgA3QDlpIHHNZQhcW0Qbov2bjOGDEbzCgLtY8AZOf6ZNB2ggZgttnBAZARhWDZGCZBEZgfTFE3ntW7bXha3sX2hQvLckt9OvvQ/h+vdrsILQD5LEFtp4CgA9PpSTe1tLC9Qs6fS3C9tHXYLiGcjcvE5OIYSOvQihC4awz3NjoyhXdDlQWOHWYHBGQJ3HvUdSpdCkK2zdgAKGJKLIyIAk9vah9Pp7VrG82zcXKOW2AxycZXmPUea5tNLa27q+uv9hZj61VLsR5rCfSQqAbfygQOggfalROu8D8x2dbpQMZCoxKj/ACntTV1/G0/8vZhRqajW3GRUtJbu2yQN5EhV4AaP9zTatGuKYRRcT0ldwCMRAWOrL1+1Y1/xF7aWy9uQXhxEPj1A4jkYn2962m16XCXW22xQMFdqhQBxnLEtMjkzWcoShVItY4BtM2owCN20kTIkDrImdpH1ou+yoYZgFydqkdQDMGAM1l+LXbiAgiADCtgwCJjEkDpyRRVpA9oPNveibnDEgyGIkdIIOYNS1dP19BOwqz4qpIa4NwAgKSNzAcTxGR+lZo19u4pthAxLlh0xOQCc8GfqKR8Ss3QVAe3uB8wYa3IIPU7lg5BB7U+m0bKy3Tc3JEI3l7TmJMH2HPvWy06TKrAKbCWxIKQSckkMDxsz1jtWl8O21BVqfxVFFr0+SgIDbyfUcjIPYjAUDGazPCtUUde011+H8rN9Ckz0/wAOVhEDJGPcVzHxH4u9jxC2/AS2d3/cpJwf0rqfBGDoBPutBfHPhvmWPME7reWCgEsn5ljg4/kK2d1aOvUlcWkaunvrcRbiGVYSD7VOuL/s/wDF0X/pt3ob1WpnE/lz/wA44rtDW8JKStHDyKlTUqsQ81yfjPjy2r73bVxbjG2LYTO1YYlix4PSAD1Pauj8StM9q4iGGZGVT2JUgfvXlDoVJVhBBgg4IPaunw+mpW2c+vNxpI9O+GPE21FgXHK75IYKIAgmOp6QfvWpXlnw+93z7YtF8uu7aTEbhO6OkTzXqQqNaG2WC9Ke6OR6D1/hVu6ZYZ7ijBSZ4FYmpz3iHwvYjzBhlHzE4gTg9IPE9DHQmsnWeH6bUbSrm1cXCsCT35UmCM+xon4k8bLyiH0/z/2rlzdIOMVlq6d5Ozw81OPw58B/jngOot7boPm2h6WK5Kr1JXEY+oFC6UoqOxM+oEGDIkHIjoJjPeuj+GfGSw2MfYzwRXL3LpVG2EQhIAESysxAMckQOTxXnasIxqjDxOgtJqnhld1djs+6VZRgySoPzDkAkg8VR4od10SB6wrBuyxEAx1n+lDN4llrbiZgH+IADkSQCO4pabWwNqyQSIJX5QCCcwZyOBUqD83yORML8TD22IJATcw3EjLHrHUyYj/SgtO4S6UF3Y6Cd6ruJJXIAmIGRIq3+4Mgt3rjINzk+uSce35R7+1WHWNcCMUBmYYbQwKjidxMdxEdqcVSrlA0Gat3t3bakH0qEaLgBwTuKgZLEyf/ABT6fwkWN7pJAnY2fTuIG8gCN0dIwB74Gta+5bc3A49MgXF27mBZmU7uU54FU2btxrm9N7QZzuZgTJ+aeOOT7cVG1qNY+fzJo3FR/LRzdW4Sp3gCNysSdwWVOCFxHehH8Wba34dwi5nIALZxAOSMkY/8G24uKiXdmQPW2DIMlcYJMcVneKaAM52XAqY3KomFIDSI3dT1I+lZpp8rHsUFWvgu/dHmeXbfcSdwYwcniGHHHAp6Gu+NvZItK2EVQJtv/COwp66q1BWy/wAQ06XChvJdQzyNrNJiN4ydnEHqJzNA6SwoYqWeQxlmOSQYJ28wO30Patxbd5XIP4cmdy98ttLNj1RkdzVWpU313BiLifNDfNPsROPp0rkWpSp8f0VaH1q6fYSqtsaCrg8SIaJxhuRnmaja8BGxfLO4qCWXftBnJgEYAIAP/JDsXym8ufWDutpz6dxJOR0wIiivD9bF2XLFYB3SPUCMnufcUuxr5mVsS1DMCfWQRBZQTyD14A+kijdbYa0FZLhJu8qrDaCOIjAHGKE1Y3NfNtV2OwALzJaSZA6YMe4iihqjaW3YhZumQQAGCbSBPMck/fNb1eEwAlseaPxm2LtIJiNpmRBOCZptFpdtxbckxGSIJwOlHuCoVMuiDLHKXI5GOYxH0PSolwdSjqcMAR9M/v0itdGbUqXDNNLzHb/DbFQAeldFeAZfrXO+HkQK2tPerqTPR29nlXxH4f8A3O/uWUXzJUjiD8o9syPtXf8Awt44mrsC4pG4em4Ozf70/wAUeCDUpiN0Yng8EA9sjn61wngOpu+Han8ZBbtudrqBCx/EOhijSuMmujlejJSdLB6dTVKQQCMg5B7io11GTQqzPFvh6xqDudYb+NTDffofuK0qcU1Jp2iZRTVMH8M8OSxbFu2IA/UnuT1NF1EU9Dd5Ykq4HobxRGa2wXkiiaVIZ5/f8PuExtM/SiNL8LXLnI2g9TiP613AFJuMVTlY1jKPO9f4Uli4bT3myAYVQCBkENk9QcHsDkEVo+H/AAtadHuWbha4YPrjIH5RHAJg/agfHNO7uXIJYT9SOo/0qfwr4ltJk+kZJ7Vw6ujFXfZ3Rjp6uncvMu7OL8SdGuMot/4cl2BPqPBEERI9vetXwvSp5YCF1LCCjkEEn83PpbjpWlr7VnUOSnlC4C0gFBun3gHqZPArN8U8OdG3M8RaJWBIJCSf3xXNJ7lsR5ZX4iHRWFtgxBUYO7bzMKRHPUGn1Ghv2Lb3LbswIl5RVjnJx0GY96o8A16LiArYYtk5Ak4B4jPX+VaGr8R/wzbdd75bdJOGgAyev+tLyPbViMHR665Eu7CYM7YAAHWOZNdB8QeRC22faD+YEsAQFM4mZmI6Hmhn0tu05VVZVYKVBcELPO4DoCCPtzVGo0zm8vkEhvnUREbiSSCfzRtY9t3tSbjKSfHYma2v0a2nsi2YstAIyXieRIySIgCfzYxQ9kqvnIBNq48KWY7lVSTJECDtBzHU1oaqwIDsge4C3mYldp3ZYjIeNue80n1FlLq3EUFbahmYHEHZIZD6SR2HI5zNYxk5Kq+/3EZj+FadiS+oTcSSZS6evcKQftSo3/8AvWvy7wOw0ykA9Yz3mnrap+nuMqu+Y8A23kkSoiA0gycQQQQekzV1i96iCAWAUK0xhQNwJBwYnHMAUbrtOGXzAquLeQdpIAkKsrIH5sg4z1qNpmdFNs2wQ3qtlQpByTtYMRMAxKiYMTFc2ZLguivx64EdXsuwRm275UopJj1KZIcAySOcYoJWumCrjcm198nbMsCDGTkT9zWnZYNsZNitMXFSAS3EZQcgfb3io3Dop3o+ouOMwYW3JEQIBOeOI96rPXQmyjxLwYXM2rqKubjhTu9cTCdSvOCZAmsnxS20gNAZwqvndvBkSX5APSI6Vq2ty2ybVi3hhsHmNcb5dwOSv5SeJoDTa67cnc4s3VcQdoXqOVIyB3B/WqjKd/l+1iRJHu2yVQqAAAjKQbfGQ0kgtPMzVWru/iLkEqBkRk8yY65qzUaXdcIvfg3FPyqfwmIE7liQMwTHeh/EkKvDRMDK8fbAro0a30aaWJHa+FauVB9q29Je71w3w5qfTE8Gup0l2utrJ6UZWjeQ4oTxLwq3fQpcUMp6H+nalp9QTjpRyCnQW0Zfg2kawosElkX/AA2PIH8B7kdD1E0caKCTg1TetxWsWc+pHNlVKmNKrMiQqQqFODSJolTiozT0xD08CmpxQBE6ZSZKgn3ArmfjvwIvbFy0QoXLiJlApzjO5P3X/Lnq1qRWRB/571E4b4tAeJK9wgMFLDeFXchHo6kjnt71PSaZrpZ7gEiVAGQR1J9wf6+9bXxt4M2meLZKKxZkeTCjBdWz6gMFccEZ5rIe2qgutwbCigwT6Z9UdM4FebNOOOGYvA+i8GA3zdJuWywK7dsSp2sBOVJjNPo7m9gzBVYgZgBZ3GSRj/8AP0irvDvErcPNwswQgbiWZRK4yo9AjuQO9LR2xvW5JcgRsQDdwDJEn056frWTm7akg7LrukLMSzANbyuzAe2MgY9QkiOTMme9Zmk8Tkqty4YyWE7IYkkSYOJPboJmKn4t4c9m0pl0DMXaUaWboN3SFg9JJNKxb2GwXtoVUgZjdcUFWhuowY78DNXHa1bz6Csnb8Ru22F1lDWy5Zkkbbh6ZMyB0IAGK0vDdRuR2RHdvMUbt/qA2MSYna/baQf3qOpv2zctkKyhiF8tRAKer0QwjaJgkYEntQ3hFtbateuXFgPFsKCZPq2sIIYAZBEcUN7otxVBQc3hk9P/ALwW+56/6RSq/R624yBrhBc84j/mIpVwPU1r5JsyfDPFrSoyoTbLYaDuJGMDcpEAzIxxVn90tXL0C9tSNxaC7SG7EzEmDH6USngttAAgtMw+aSQxw5b0nAxtCkcHNCeG2zbmzdssI/FS7tdiu4YGAA6kRIweo6iu39LbcWatdhl7SKkfiAF2EXEf07lWEweM94OSKo1+ge5qDdbciMYO0gADJaYwW5MfSm1WlRQG27nLEn0nyyuwQRJPUmPpR6WnRwEKsxx5ZIG7cs4UmDgRme1Q5VVehFdFa2dO9pLgZVt7touJuxxJaJ4PpnODzQ2vNtwLbOrMDtV0SAW2kw0mOnpPeQTUxcm5aXaotbIgFVG04O4AYMmYz/Wr/DtKmnuOisLu9fwywOxB6pIDKynrLEj96KXrxwWkBa/xWbdq0wXCwogKVXGTA+/UmsW3q127HPrDEDrjnJ6jtWl49oLZulyAxnaAVG0cHcFAEqB395moeB6FX80XLaxGGYKrKSIDCYAUdp+ma303BLcilh2Lw/UbGB6V2Wg1IYYridRa2GJB6yOK1/h/WxgmuxNSVnXpzO30r1radwawNHcmtbTGqRq2aiCmvJI96VjI71ekGqM7vky3WoUVqrcGhiKtMykqFT1GnFMgkKcUwqQpkjinFIU4oAkKmtRFQ1GpS2pd2CqOSeKAOc/tMZV0wYwfVEHrK3BH3/pXnvhF1Wa7ZuCUZOAMqRxtJGCY5710PxV8Q/3m+AtslLc7VJgEx85PSMxPcmuc8LsL5jXQ6siCW2kkK5JgAkQTE8V52rOMpOjKeXgzLe1Lpd2DmZAiFz0I7D9627uni0birDsJBViFGeSVII4Ydse9BeN+Gk71tgbRdInHYQCeRkMPeR2qyxq74KWVbYptIrZG6FBLD2J3QSM8VMmpLcmrJJHXXLbKLuVCrg9WgncvuNxG6CDFFOVS1p9SoaFk3PTuIJlGmcEQsTzkUD45rICC4ibwinO7dySV7RyMf+dXwHUrcvJafYmy3KyMByNzAc8BiJPbmsqdKSQjPvJZu7n07M1uTuVlYqN0kYICh+wGDtojS2t20bT5ieon1KSGPEEROGEMI/Way/Hjc090qpX5+UUBCABA9PLS5JPPGa2dJrkL2QzAm5D3V9RYyJcEAyDuDcY+ma0nF7bj9v8A0d+hfrEth2AuOonA8ngdJxzHJ7zTVnXNNY3MV1lpAWJCsrkqCSdpPWJilU7H6ezEaWn8XBuSqokgCNsFpYkAfMFPJJMf6w1PxCFIAVlBYyrkkDEGZmeBgRzz3LvPYvvb2lA7nIW2y7ssARJGIiTGMVjfEvhvlXR6PO9W+4Qys6Ccqdn5Y9sR04qYRi5lWyNjxpz5iBgLRG0kgBFBnIHQntz9c0XYdtpaBtgIoMC4TOIHqjK9Imf0GsaJYW4IBAJ8ssGEekCOu3Lz2EGibeuGxZKrccALcPJO5phSAIMAdf3FE42/0oET8ZdbLE2ybkhSymQ7AgDeORAJ28jpzVNjXG4pQBwpB9W4AwsH0wCewI4mirw07W2Y3d18t67cN8kiQJAhjExiIgA81NNSAkWgzWxGAPVJMDcOowBPsOwqXSXGS2BIgZgQ3mTEIZJHbcP4cHM5/Wm1Gj3MFa4s3M4mRjaeSZHzR780KU8q8WUS4XKj07eVHq7gbSQY64rT8P0Cz5l17SuVMeapuWyYJEgEAMSOZI6xirwvuS0AarQCwi2y7M4LTuULGRiOe2Sf0qOjuEMIq3xC1eS2Nw8wBmDGCQoAThuIkniR0oIGurRk2sm2kzvvB7uBNb2mucVxngWowM102kujE1qdi4Oi0r/pVpudazNNdHfFXi7NVZO3IbcG4e9BMtW2rtV3zDDs2Po3T9ePrHenF5CcbRVFOKkwpq0OZiFSFICpCmSICpCq799bal3YKoySTAFeefE/9o+/da0hgTtN0iCTMensPfmlKSXIHV/E3xbZ0ggzcunAtr3/AO48KK4bxTxK/rWglioIJABCQDgKO/vya5/TawsxBJYPyO7cyTkjof8AajfFt1m1aRCwYONxnILSUgc4z6voMTJ4tacpvasGbd4CrF9SjiGG3JlgNxMCOpPIHIjsKHe6gUWAoJYyqkT6jIEgc/r3p7e69aNxmkBuCepIMD6ySPes3R6i4twoAN7SuekgyfrtkA+5rlUE7+RLOlvKxUgCUgbgFb1Ms5wvqAhSDOIE80La06lXZVMkAIX6epGkxzG0/wBah8PDy1LP+UlQrNK7CBuKjt6wJ9zWtZ1rpbIBCBm9RIBCrM4EfT7TWU3taSEjnPGdCQttiRutEIzmc5aDxlYAM+46URc0TtdtOodSLYMqJCklmLM5gA7m28dI7CtS7q3e0bl9wSGmFSYVZ2do5jicfcYum8Rw164pO1jtLAzBJjPynrxHGcVtBtrHV+4M0LGgDFrhLFQYKmGY4ksqx6YzgE95FK142txWtsg3hZDwgJMLA2iAPVGRnimXUK1jzEtt54MKEb1EMJkpBkEY4xHIptJrdO62yQLQCTd2KA73DGESQYxySOvFNRbTbFTLryae6d9xULkDdhPmAAPTuKVDbwcpq1tr0SGXaO0AGP1NKsM/5P3FQRdW/a3XRZL24KsASRDCN+75RmAP0oS9qFYAqha4BM7CpBaRCdY4kn36ZrbXRkWyLuzfcVncO5YqvYopIPUggjIBxM1l2LireSzaV2FtM7mUm7I9TLGIMYyTzFbKqx0a2W2NP+IfNUhwsbkHqMMQfmgAeYAJHf3qN3XJaDM9tTdLRYZ1hktbRLwVx0jJjOJzR+vFtdQx3F7BSCUc+hSzXAQYBUlnAkkQJ68Zt7xFb7uFSNonzDu9Bxn0qYkmYHM9KI84QVRZ4XorfllWD3CwDhrW8erPLFNseocEx1rS0+wIJUWi2WUneSJOWAcwCCQAe5rN1Fu9aXc1xQSSRG4F1PIxGRPWCD3ptJq7yoiIyEtO1WG/05kMIgmJ+8VnJOTyH1J6/wAk3lEDToF3brq/MZIB2AGJg8f1onRWvMDEXAZuG4nnRbTy9pELtiJjIgc+5rB8Q0eq80LeG+4R6QGViODG1TE5445ouyXtwHhFBAYso3kDcPkJMYbMgDHXrrKOEDD9frRZDfiK1oJt8oFmEkqIYEbSMbcjtzWD5wf1qu0E8DgZ4rRbWJuPlqFa4shnbH5ZUj0gDjJJzxFCa9hvO1duBj3gTWmhadF6fJpeCa0TGw/UR/Kun0l8Hv8ApXAae6oOSRXQ+HeIoI9bf8+9dTOyDOzs3BgEmiVf3kVhaXXK0ZH6j/WtTSup6/vSs0NO2/vRItB1ZW4YR/z3rJS6Ae/60VZ1cUWPaPprxYFW+dDtf69D9CM1ZFZ3jrug/vFgbnQQ6fxpzH+YcihvCvi2xqMILgfqmwkj7jEe5itYzXZz6mnJO0sG4Ky/H/iK1pVJb1PGEXnpz/CMigPiTx57KLA8ve20SR5h7xEqg9/Uc8CuUtaPzfMtlhcLfiWg7DfuC/mC53fMDPIziYrLU11HCyznlcXkyPif4k1GpuMLsG3wqL8g4Mg/xDv9RWRevKwCEeoGQ4zuwMMscz1/auh8U0aLbJdRavKIWA+0ifzFiwOAIAj69K5wW1dXKkBhHU8Zn7kxis1PdlksO8I0QYHaxkmYx29Mj9T+lbB0qah7uSpVrgMSSAjLmOCvrXEiOh6VjeH3wtu4x5Kqs8OIU8DPUg81exa2wCFQSSRG71Si4mMOeBWMrc37GbCtFbNhmUSRLFSJADTAMEcweDVG1mlUDK5+ZyAGZSO0DYMffFTua8blm4FYAE3F4IAld4jDBpUzM9qJ8H1TI7s3rtP6LjDcCRhh9zgRBw2BUPDdgwS0ApW3jAjJOSciSQBgg8e9aO59/lp8yEYIhmYHk4lYyP8Ac1mvo7t++ygqoDszQR6dxBYNMHj9vpWydXYEi1fJgEM2yJYKPUDOfVgAxIzI5GepDtZY0C6rxEs8Od0kgsflIGTEckZrOuWF3F3VmdQdqhwg2SSCzli2JA2oMwDjNblu1Z8oOwDK3qlTAKgAKGIYmZEYido7UBcu2iC7gFlAaBAdzG4FhBHEkdO5o05q8WSyy5orPlreu2/4ZCbrhI6yAcTJGcmScRnKu2GQPcS2w9Mw4O4An0mOAPaT0rpV0dxbYuobbK43EetwhPy7wTB5yB2IyKC0erNy2wuqLdxN3qJSDb+ZsJA9DmQQOGAziri+fl8waon4d4ILltXe9DMJwoiOkQvaKVQ8M+Nrli2tpThZj0jqSex709S4anqwpGS/xIrF9yBtywJMke8nM5P/AIpN46Xt21yWtkxAiF5WTy0GYJ4+9YDpBAnPSJ/5FQ3gNzn/AJ1rsWlHorcdBZ8VG5m2wWYmIwT3iQMEyBEY9zVSeJCySbJZTuncSAOZyOKxrlxmHP6VLT6VjEKzAnbxgnt9cjFHw12K2dXZ1395Ja7ctiCCd0AZ/hBYboOTGYFU6zSXQVts4DNkLbB9K5IAG0Rg7pM5g9KH0ANmN9zasglPLXzTMjDRuVcDr9q0NPasuDaMCX9JDA3Bzg4ErPTJk8YrCSUH+YGkZ/il1rmUe4pDFQrMwhCpO2JkiV2meCeIq9daEtyybfMIubCPUWyBg8CZMmJrXa1bChkKi/m3dE+ovbAVSGEwWVonrBzNYuqV1K3cO6qdn8KHcR1wznGeh+1UpLCY0y1Lty2QbqqbiAwjiYVmUqW7jcpgZiM80PJuMSTJYySe5NUFt0O0l4yZEEGOAOsg5rQ8K04ZhOO3Tr0NbQS5NdOObNHQfCocS1wj/wCII/Wa0LXwUBkOrfWR/I0f4dp3URM/sa0lc/8AOaTkztUVRkW/A2TIRfsf9Qa2fD7bAZWPtURqZgf7UaJ24/c07GvQa7bPM/aoFYqaFuYqkPTNIhNpjJFQ0mktWZNtQu4yabzeKx/iPxrylCj53MKP5n+g/wBqTdIJSUVbOd8d8Xa7qLpK/g2yEBJBBM8+0yeZxBp9Khtt5okFWB28yJMmRmNsgRyR71m6m4pVhcd0aQSrgwJHaZHfpM+9PprhVraKWPSSD6gWPqA6CIHXg1yTTvcjypvdK2E+O2t7LZljzsHLbcwRJBA5xP8AKsZfBot3Xd23DaF2iJJIbIYxAWTg4xWz4jpGuuwKsjCAH6B1jbKxEEEL+hobV2XW5p7GVRgDunks+zJB5HY+9VFv9pLsEuaQ+WtsAlkBUMRJBIDEEdSJwB3pvEfD9yW7gEAjaZMRcGfzdwARJwKE1N5Guiy5hfMjeASYII4PzAwsGeJrVsObu9L4ZRMh2+UbSPlBIElZznirlujTbEzM8Qv22b1bgZIMfxEAg9iZJ9jzRg1G5rdtViRLKOg+YEjhmKkk/YdKv1a2mdTwqeqAASRIAloVYyvbrUdDYtNdb0gEcXGJIDEnJ242wD3wOtQ2nETySuXmth7WyBcAAdgoT8u8HjIUqMGctPNZ5020kAbWnZtGQTxK/qYieD3FbmmvB1/HeWErbZY2jJO4ysxPq/bFZeqfzDCsFYZVVACyYkzwGIjOJpRfX8gHNZfySUkMjqNzEe5wSQB6gc9/fkLVBlC+YEuKbhdiWAJAAJAfEsJPqJIGeYrZ0Db7DC5sZvlzPQOm6e6lkb6D2mqfGvE7V1FRlZbqDaLm0IEnMBiSc56z2qIY6vIUBPa8y2qXC6CCxVGDWxClpJMISQqgQSSSAORK8IRVuW0BVjwQRkI5AKsDDTHWIH1Aoq2Vsm0LdwXLjQZu7SQB6hbbIjDZzkgcngjxbTF9t9rXq2IoKwR6YgbtxDKBAB7DuIrTcv8An4xGC3wbdGP7xbHsSwj9aeuk1oDuzNcYEngSQB0gg9ox046Uqj42t6+wWcBqflH1/rVTnA+v9KVKvQjwMi3J+9X6Pmesc/cU1Kk/KCN2/wD4inr5gz/8EozwliylmMnypk5MwmZ701KuefH8AyS9f/eX+b1d4z81z/3G/klKlWEfMKPKMZh63/zmtXwc/iLSpV3LynXp9HcaDgUbd+Q0qVZHUwCz81a6cfalSqkV2LQ9aBvfOaVKqH2xN/X+lcP8VOf7zdEmPKTE+5pUqzmY+J8i+oMLStcQsAx3MJInGwYqvS/+r7LI9js5HanpVhLyv87OGXJo+KXDFjJ+cdfarPG0Bu6aQD+Ja5H/AGpSpVMeUIyviv0JeZPSd4yuD8x6iuUW82/5jyep7UqVdWj5X+dIS4Oo0/8Agv8AX+jVnjC3IxkD7bL9KlWUOWI2/EhFiwRg7JnrOwZ+uBn2peI2V8vdtEwMwJ/xAOfpilSqFyxjeHqPOIjEqY9/MOfrTkTdM5i4AJzAzgdhT0qyly/oSjB8W/xH/wA5/nXUfB2F1UY/6fdj+KXz9felSrql5RyNa5YWT6V/QUqVKuQg/9k=;" parent="DfZiOr1Gd_-NJ0TTqh6M-1" vertex="1">
                    <mxGeometry x="625.71" y="1255.32" width="146" height="109.36" as="geometry"/>
                </mxCell>
                <mxCell id="vXHW-TZrkR5Rs4_hYeQm-8" value="Phone" style="shape=image;verticalLabelPosition=bottom;labelBackgroundColor=#ffffff;verticalAlign=top;aspect=fixed;imageAspect=0;image=data:image/jpeg,/9j/4AAQSkZJRgABAQAAAQABAAD/2wCEAAoHCBUVFRgVFhUYGBgYGRUYGBoYHBgZGRgYGBgZGhgVGB0cIS4lHB4rIRgZJjgmKy8xNTU1GiQ7QDszQC40NTQBDAwMEA8QGhISHzQjJCU0MTQ0NDE0MTQ0NDQ0PTQ0NDQ0NDQ1NDQ0NDQ0NDQ0NDQ0NDExMTQ0ND80NDQxNDQ0NP/AABEIALIBHAMBIgACEQEDEQH/xAAcAAEAAQUBAQAAAAAAAAAAAAAABQEDBAYHAgj/xABDEAACAQIEAwMHCQYGAgMAAAABAgADEQQSITEFQVEGMmEHEyJxgZGxFEJSVJKTodHSFmJyweHwFWOCosLxI7IXM0P/xAAYAQEAAwEAAAAAAAAAAAAAAAAAAQIDBP/EACMRAQEBAQACAgMBAAMBAAAAAAABAhESMQNREyFBMiJhgRT/2gAMAwEAAhEDEQA/AOzREQEREBERAREQEREBERAREQEREBERAREQEREBERAREQEREBERAREQEREBERAREQEREBERAREQEREBERAREQERKEwES01ZRzHxnj5WvifZK3Un9OMiJinGfumeTjD9D8f6SPyZ+08rMiYXyxvofj/SPljfQ/H+kfkz9nKzYmGMd1Uyoxq9CPZHnn7OVmRLC4pD84e3T4y4GB2luxD3ERJCIiAiIgIiICIiAiIgIiICIiAiIgIiUJgIlh6p5S0zdSTM9fJmJkrIaqBz908NWPIe+Y5qdJ4apMtfNf4tMrzVDzb3S2zD1+uW80TG7t/q0zAvKGpPDm0svV8ZS6W4vl5TNMbz0eekdOMnNPQaYhrR8ojyOM0NGaYi4gS+lQeEnyOLtgeQ+ECkvIlT4SmaVLSZpHi9r5wbNf16/GehjSO8p9n5GWs8qXmufl1FbmMtMUh+d79PjLwkS6g8vdPKll7pPq5e7aaZ+b7VuUzKzDoYwHRtD+B9Uy5vLL6VViIkhERAREQEREBES3UcKCSQABckmwAG5J5QLkTWuK9uMBhyQ+JRmHzad6rX6EIDl9tponaDyxAKyYagwYghalUqMt9mCC9z4EjxHKB1qpVA05nYXFz1PslNTvOY+SF6uJ+UY2s71HZ1oqzNeyoA7qo2UEumg00nUpju23iY8FZh1dJmvI2s+8w3+l8rZeWqtTKLxmEiuJ4kn0FP5DxmOrydaZnaycDi2ruyUmS6WzZibi+1gJM4bDMoOchmvuoIAFtpzhBVoVlqYdWZwdVGpqAm7q1uu9+R1nUaTEqCRlJAJBsSCRsSNDbwl/imdZ7/AFXfZUZXo5lYA62NvA2NjNJr1cfmIFB2AJAIXfx3nQHAy+JGk8KttJFzL7TNcavgOHYl0V3c02I1Rqdyutrd8fy3kZiKmNR2XzFd1UkBlRfSF7BgM3Ob7Fo8Z9HlXPhisTzw+L9lJT/yk1geGVKiKzVK1Mm90emgYWNtfS57+2bPaUjmfpHlWm10qIzLkxzAGwZKdHK3iCX2k5wTD3Uu3nQTYBawVXSxa+ikjXQ7yUInujYE35294vHM/R2rYpbgf9eMj61WpSIFQaHQOvdJ6dQfA/jJygAb+ual22xjlqVFQwW5dmANiy6Il9juWt/DJuc+N1f/AAlvlxPUXDC95VrzWcDj2W1z+Rk7TxwYXsBKZ1LE6zxlJMladxMOk8kqOwl8/uq39Md6MvYOoSCp3X8RyMuusxho6nrcH3fmBNcW51z7Vv7jPiInWoREQEREBETTu1HlDwWBY0qjNUqi10pAMVv9IkhQedr3gSvaftJQwNE1qzeCoO+7fRUfE7CcxY8Z40rFcuGwjghVJyq41sL2zvfS50XwkfwjHU+N8VDYpwlFATQoMe+FOlO40ue82tzsNNu7U6YUAAAAAAACwAGwA5CBw3CeSLHuo85iKNK/zVzMR4eiAPxkrh/Iktj5zGMxsbZUCi/LdjOwxA03ydcErYPCJQrhQ4aoxCkMLMwIuRz/ACm3Xnmvtfpr7Ocsl5z77m9+1pOrlRpF4hrTIrYq20jK5J1M5t660zOMerXOtpg0aJqMEXdjv0HMn2CZNSZfZyl6bseShR/qNz/6zLnlqSr95OpTCYJKQso15se83rP8pfLeyHMss829emft60G0peWme0xMTjGF8qObC97WBOmiltCdd9tJOc3XpCQzAbmWnxKLufcCfgJr7Yqq5yNkQcwuZ3F+Ze4F/wDTaWuK0FVQc9QKAAERynQEn0hmPMkmaz4ajybL8pT6XxnsOp2ImsYPBoVDZ2bmody+U20YZibEXnhnr5yFqhyDqrolhfUAFAhHr1j8P/Z5NrMpNf8A8VqUz6a5l6pclet13P8Ap90l8Ni0qKHRgQdQRMtZufa3WYrW2Np5emGFmAIO4OoM8BpdUyo1bjGAFFgV7j3sDrYjdfEdJTBe74e6TXaGlmoOfoFXHs0P+0mQvDiCNDf1TKzx00l7Eth3MlMPiBax09enxkbQEkqTzTNVsZfnAdiJiVDd0H71/drLmnQe4Txhxep6gT79Pzm2b5ainORIxETsZkREBETRvKL25HDlWmqM1WqjlSCAEtoHNwbnMRpblAzO3HbWjw5LH067qTTp662NszkbL+JsbT5rxmJNR3dtWdy7NrfMxJbnbcn85TFYt6hLVHZ2JvmYlm18SZkcF4PWxdUUaCM7nUhQSFW4Bdj81QSNT1EDeODqOIY7BrgcMaNDCebzVCBnIRg7PVddCxtYDXVj10+gpq3YLsr/AIdh2omp5xnc1GYDKtyqqAo6AKNZtMBERAoZD16WVstzbddeXTrJiWMVhw622PI9JTefKJzeVGEi2kxqiyD492qo4FhTxDBXILKFOclepC6qDyzWvY9Jg8P7XUcWCadRRbdXIRgOtidvGcesa56ayxKYvEKgJPK/9iSvZRi1AuR3ncj1L6I+BmrYKtTxNXzNFhVYasyHOlNfpM49EeCgknpuRvGAoLToIqm6gaHqCSb+28pnGp/y1E61Ocj07yw72npmmBjalkY3tsL9MxC39l7+yWk6qtnGu2bzY1GgYDMeeYqNr7Wv1mHgeJM5cZ2utx6V9TbkSPSGtrjS8VuJBH80pyaEIqgkkKVDFiB1YXJ6zDpm7qNN7E82LMLXPtI907M58Ypb1kJgiWz5iCe7a17aX1tt6I68tplPhUbR/SHS5y+6eqZ30trb1ADae2aU1qki2uFQd0ZfUT/OYxwgQlgSb9ddB834++Zd4fUEf365EtieI+vUD+A5den8pjUajU3zqd+8Pmv425N4jfnynrHE6PzYC/8AM/CQycVLgqabBgWsARfKpAuQ1spJNrfymnJqftHpveDxYdQw5/geYMy1aa12fraun8Lj1m6t/wComwUzOTWfG8aT0zMgdSpFwwII8CLGRZ7N5dabX6BtCPDMv5SSotrJFDpL/HjOuzUVurPTXloVl7yE+qzD/brMiniLbgj13HxEm4tNP/nn8qPOoxa1+6pPqH85l4ajluTubX8LbCZFol8/HM/tF11WIiaqkREChnzJ2+q8R85kx7FsruaZspSzb+acDukAeje4sLi8792w4WuJwdWg9fzCuBepcAKAwPpXIBU2sRcXBnzh2l4PQw7Wp42jiSTqKQew8cxuvuYwPHZXs/Ux2ISgmYBr5qgUutMAEgta1gcttSN59H9l+ymHwKAUkXzhRVqVNc1QqBdjcm1zrYTRfILhEFDEVbem1RUJzA+gq5gMvzdWbU7+ydbgIiICJGcU45hsML169Ont32AOu1l3PsE5j2k8syglcFRzaf8A2VbgA35INSLcyRvtA6xjMZTpIXqOqKupZ2CqPWTOV9sfK7TUGlgRnbY1mHoDX5inVzvqbD1zk/He0OJxjZsRWZ+gJsq791RoNzyvIiBkYzFvWc1Kjl3Y3ZmJLE+JPukp2V7N1sfXFGiNNC7kejTXmzfyHMy92T7JYniFTLRWyAgPUa+RB4nm1tlGvq3n0d2W7OUMDQFGivi7HvO9tWY/AchAt8E4HR4fhTToLYKrMzHvOwXVmPM6ezYTPqU8iIn0VVfsgCXuIdwj6RVftMFPxlrHHaYfNf0tPbDcyO4jsi/Sqe/Kjvb/AGzOeYeJXuNa5R1YDrbQj2gke2c+f9Rp/EZj6q5MpVdLf+RrFgbiyqTooBsPGR+JqXXQ5WvuBtaxVvYRJDiPD0quma4QF3UgsLDKbtpb0gCQD4y1WVQbhbKCQoOtxyzHmZ2Vkz8PWzor2szC7Dxva69RppPV5A8VbEN6GHp3vbKAR6AA6sRppa/TQgzXl7Y4ik5SpRzFbg2PpXHVTM7lMroAMqbcyFHMk206zTsd2uyLdQjG4FgwHXXUeEkvOvVQOrqrWvdmYixv3bDvaaW1GuoveJn7OqVsYlao7IQUT/xgcwVOuYbqxudOmWEW41F/x22MheIcMKkVMO5SoBY37j2+a42/KS/ZSniMWj5qaIyMUb0zuADcrY5dwRqbzXPEM3gujr+8WT8C3/GbNTkNhKAV0sQQodrjUHdAQeYN3sf3ZMUpyfL/AKrTPpk0zrJKid/ZItDrJOlv7P7+Mn4bzSuvS/EROxQiIgIiICIiBEdpeB08bh3w9UsEfKSUIDAqQwIuCNxzE+fONJgnf5Lw3DVa7k2885d2br5pFsAP3mG3Ibz6anO+3fAq1LCtS4ZhUVsQ+XEGmAr5GB2JtoToddAdtbgOW+TztceG13FQE0X9GqECswKZgrqb62JOl7EE+E7IvlL4WRf5SO+E7tQG5+dbLfL+9tOH9rOzQwdSjhA3nMSyq1XL3Q9QgJRQc7AbnfMNtprNRSpKncEg89RoYHeuMeWLCUtKNN65DlW1FNco/wD0VrNmB5DT2TQuMeVjiFYFUZKCkMD5tTmIYm3pNcggWFxbXWc+vKgX0gXcRiHdizszsd2YlmOltSdTLM2TgfYjH4uxpYd8p+e/oJ6wWtf2XnR+z/kYRbPjK5fa9OldV9TOdSPUB64HHcDgqlZxTpIzsdlQFmPsE6r2R8j7sVqY45F38yhux8HYaKPBbnxE65wjguHwqZMPRSmvPKACx6s25PiTJKBjYLB06KLTpoqIosqqAAB4ATJiIGLjBfIOrr+F2/4zHxx1mTiO8n8RP+0/nMLGH0pzfNf2tljES1UWX55dZgus0ApuGF7XLdf416+I8SeemvVuGI1Ra2RbguQbLmzZcgLMNdFJFv3h0E2BkI20tseY8RLFWo4uQL9baBueo9n/AFOjHyz1VblGcWq06Yu3og2AsCdFS5Ol+QYzF/wxHF3RXykkZ9dxYjxF8pI/dnrjGMp1WQPkTJmzKy3LX0uoOg57dZmUMRR0C1ksBpm0KgaWtz/pNexVGUsKoZxZDn765Us19swAjHUjTyqgzHRRbRRZcxJJ22PtlMDRpLiHY1LLZspuhVi752sAc29+8Tbla8z69Sk2jEuxOgU2v4nnv0j9JQ2GzumcA5XCkX66b/jMLFcRbBn0SzPWVkZF0zAAlVHWxO/7x6mbxg6CJSCFmcAlraXJ6Mw2A/sS3VwSVHR3RbpogCjKu+19fnN67mU1vMTIw+Au7Ukd1KO6hmU7oNcq6cgPiTpeTybTyKcuqs5be1Z7pySpnu+78P6SOWZ6nRfWPyl/j/1Ea9MuJSVnazIiICIiAiIgIiIELW7N4VsSuMaiprqLB9elgbXsSBoDa4mnp5JMMExKiq969shKqTQAcPYfSuQAdtBbxnSogcz4f5HMCjK1R61aw9JWYIrHr6ADD1ZvfNw4P2VwWFC+Yw9NGW9nyhqmt7+m12O/WTkQEREBERAREQLFbdfWZHY3vyRq7iRvEQb3E5fl9r5Wrxec57X08e9em1FnCDSyMyhWv3nsbMNuu2283Ph9RygL97nMrGlzyS9SJnkpKBpXPIQtVsKjizKGHiAZHv2dw5N8lv4SR8JK5ovJmrEIlez9AfNJ9bEiZdHh1NO6ij2TKJlM0XWr/RQJParKZpUNKi4J6BloNPQMkXhM9e6PWvxkfTmee77jL49o0ypWInazIiICIiAiIgIiICIiAiIgIiICIiAiIgY9Y7+A/nIbH45R/e0lsSbX9Q+Jmn8Vb0jOX5f9L59Mg4sdRPPysdZC5ozTLiyaONHWU+XCQ2aM0cSmPl8f4hIjNF44Jj5fKfLZECVBkcQmBjZ6GLEh7yoMcSm1xYlxcWJBXnoPHBs2GxKk2ktmDLp0moYN9ZtGEPoeyWzeVGokYlJWdzIiIgIiICIiAiIgIiICIiAiIgIiICIiBE4/FoH82WAZkzqL6sqtZyOtsyX/AIhNV4k2pkr247JjH01K1DSr0SzUaikixYAMrW1sbDUaiw8QeD1e1nEKLtTqVDmQlWWoqFlI0IJte/tmO/jur2LZ1x1GCZy/9vMV0pfZb9Uft5ivo0vsn9Ur+Kp8o6gDK3nLv28xXSl9lv1R+3eK6U/sn9Ufip5R1G8rOWft3iv8v7J/OVHbvF/5f2T+cj8OjyjqgMpecs/bzF/5f2T+cHt5i/8AL+yfzj8Ojyjqt5UGcp/b3F/5f2T+cr+32L6U/sH9Ufh0eUdXBnoTk/7f4vpS+wf1Sv8A8gYzpS+yf1R+HR5Ow4NrGbNQrqqFmIAA3PjoB77D2z55HlAxo2amviEB+N50DyecKxXECmNxteo9Km96NKwVHZbEVSFABCttpuu9t5nw3v7RdOuiViJ0KkREBERAREQEREBERAREQEREBERAREQKGc58rWAomh5w0qZqWtnKrnt0zWvEQNC7D8Oo1FbPRpvoveRW+Im2LwPC/VqH3VP8oiBcHAcJ9VofdU/ynpeA4T6rQ+6p/lEQMhOz+D+q4f7qn+mXU7PYP6ph/uqf6YiB6/Z7B/VMP91T/TLo7OYL6ph/uaX6YiB6HZvBfVMN9zS/TPY7N4L6nhvuaX6YiBcXs3gvqeG+5pfpkZ2g7P4RUYrhcOD4UqY+CxEDWOxfCcO9cB6FJhpoyIRv4idppIFAAAAAWwGgHqERAvREQEREBERAREQP/9k=;" parent="DfZiOr1Gd_-NJ0TTqh6M-1" vertex="1">
                    <mxGeometry x="605" y="845.32" width="207.42" height="130" as="geometry"/>
                </mxCell>
                <mxCell id="LBshlcq7G2-BEQelQ_nA-0" value="Phone" style="shape=image;verticalLabelPosition=bottom;labelBackgroundColor=#ffffff;verticalAlign=top;aspect=fixed;imageAspect=0;image=data:image/jpeg,/9j/4AAQSkZJRgABAQAAAQABAAD/2wCEAAoHCBUVFRgVFhUYGBgYGRUYGBoYHBgZGRgYGBgZGhgVGB0cIS4lHB4rIRgZJjgmKy8xNTU1GiQ7QDszQC40NTQBDAwMEA8QGhISHzQjJCU0MTQ0NDE0MTQ0NDQ0PTQ0NDQ0NDQ1NDQ0NDQ0NDQ0NDQ0NDExMTQ0ND80NDQxNDQ0NP/AABEIALIBHAMBIgACEQEDEQH/xAAcAAEAAQUBAQAAAAAAAAAAAAAABQEDBAYHAgj/xABDEAACAQIEAwMHCQYGAgMAAAABAgADEQQSITEFQVEGMmEHEyJxgZGxFEJSVJKTodHSFmJyweHwFWOCosLxI7IXM0P/xAAYAQEAAwEAAAAAAAAAAAAAAAAAAQIDBP/EACMRAQEBAQACAgMBAAMBAAAAAAABAhESMQNREyFBMiJhgRT/2gAMAwEAAhEDEQA/AOzREQEREBERAREQEREBERAREQEREBERAREQEREBERAREQEREBERAREQEREBERAREQEREBERAREQEREBERAREQERKEwES01ZRzHxnj5WvifZK3Un9OMiJinGfumeTjD9D8f6SPyZ+08rMiYXyxvofj/SPljfQ/H+kfkz9nKzYmGMd1Uyoxq9CPZHnn7OVmRLC4pD84e3T4y4GB2luxD3ERJCIiAiIgIiICIiAiIgIiICIiAiIgIiUJgIlh6p5S0zdSTM9fJmJkrIaqBz908NWPIe+Y5qdJ4apMtfNf4tMrzVDzb3S2zD1+uW80TG7t/q0zAvKGpPDm0svV8ZS6W4vl5TNMbz0eekdOMnNPQaYhrR8ojyOM0NGaYi4gS+lQeEnyOLtgeQ+ECkvIlT4SmaVLSZpHi9r5wbNf16/GehjSO8p9n5GWs8qXmufl1FbmMtMUh+d79PjLwkS6g8vdPKll7pPq5e7aaZ+b7VuUzKzDoYwHRtD+B9Uy5vLL6VViIkhERAREQEREBES3UcKCSQABckmwAG5J5QLkTWuK9uMBhyQ+JRmHzad6rX6EIDl9tponaDyxAKyYagwYghalUqMt9mCC9z4EjxHKB1qpVA05nYXFz1PslNTvOY+SF6uJ+UY2s71HZ1oqzNeyoA7qo2UEumg00nUpju23iY8FZh1dJmvI2s+8w3+l8rZeWqtTKLxmEiuJ4kn0FP5DxmOrydaZnaycDi2ruyUmS6WzZibi+1gJM4bDMoOchmvuoIAFtpzhBVoVlqYdWZwdVGpqAm7q1uu9+R1nUaTEqCRlJAJBsSCRsSNDbwl/imdZ7/AFXfZUZXo5lYA62NvA2NjNJr1cfmIFB2AJAIXfx3nQHAy+JGk8KttJFzL7TNcavgOHYl0V3c02I1Rqdyutrd8fy3kZiKmNR2XzFd1UkBlRfSF7BgM3Ob7Fo8Z9HlXPhisTzw+L9lJT/yk1geGVKiKzVK1Mm90emgYWNtfS57+2bPaUjmfpHlWm10qIzLkxzAGwZKdHK3iCX2k5wTD3Uu3nQTYBawVXSxa+ikjXQ7yUInujYE35294vHM/R2rYpbgf9eMj61WpSIFQaHQOvdJ6dQfA/jJygAb+ual22xjlqVFQwW5dmANiy6Il9juWt/DJuc+N1f/AAlvlxPUXDC95VrzWcDj2W1z+Rk7TxwYXsBKZ1LE6zxlJMladxMOk8kqOwl8/uq39Md6MvYOoSCp3X8RyMuusxho6nrcH3fmBNcW51z7Vv7jPiInWoREQEREBETTu1HlDwWBY0qjNUqi10pAMVv9IkhQedr3gSvaftJQwNE1qzeCoO+7fRUfE7CcxY8Z40rFcuGwjghVJyq41sL2zvfS50XwkfwjHU+N8VDYpwlFATQoMe+FOlO40ue82tzsNNu7U6YUAAAAAAACwAGwA5CBw3CeSLHuo85iKNK/zVzMR4eiAPxkrh/Iktj5zGMxsbZUCi/LdjOwxA03ydcErYPCJQrhQ4aoxCkMLMwIuRz/ACm3Xnmvtfpr7Ocsl5z77m9+1pOrlRpF4hrTIrYq20jK5J1M5t660zOMerXOtpg0aJqMEXdjv0HMn2CZNSZfZyl6bseShR/qNz/6zLnlqSr95OpTCYJKQso15se83rP8pfLeyHMss829emft60G0peWme0xMTjGF8qObC97WBOmiltCdd9tJOc3XpCQzAbmWnxKLufcCfgJr7Yqq5yNkQcwuZ3F+Ze4F/wDTaWuK0FVQc9QKAAERynQEn0hmPMkmaz4ajybL8pT6XxnsOp2ImsYPBoVDZ2bmody+U20YZibEXnhnr5yFqhyDqrolhfUAFAhHr1j8P/Z5NrMpNf8A8VqUz6a5l6pclet13P8Ap90l8Ni0qKHRgQdQRMtZufa3WYrW2Np5emGFmAIO4OoM8BpdUyo1bjGAFFgV7j3sDrYjdfEdJTBe74e6TXaGlmoOfoFXHs0P+0mQvDiCNDf1TKzx00l7Eth3MlMPiBax09enxkbQEkqTzTNVsZfnAdiJiVDd0H71/drLmnQe4Txhxep6gT79Pzm2b5ainORIxETsZkREBETRvKL25HDlWmqM1WqjlSCAEtoHNwbnMRpblAzO3HbWjw5LH067qTTp662NszkbL+JsbT5rxmJNR3dtWdy7NrfMxJbnbcn85TFYt6hLVHZ2JvmYlm18SZkcF4PWxdUUaCM7nUhQSFW4Bdj81QSNT1EDeODqOIY7BrgcMaNDCebzVCBnIRg7PVddCxtYDXVj10+gpq3YLsr/AIdh2omp5xnc1GYDKtyqqAo6AKNZtMBERAoZD16WVstzbddeXTrJiWMVhw622PI9JTefKJzeVGEi2kxqiyD492qo4FhTxDBXILKFOclepC6qDyzWvY9Jg8P7XUcWCadRRbdXIRgOtidvGcesa56ayxKYvEKgJPK/9iSvZRi1AuR3ncj1L6I+BmrYKtTxNXzNFhVYasyHOlNfpM49EeCgknpuRvGAoLToIqm6gaHqCSb+28pnGp/y1E61Ocj07yw72npmmBjalkY3tsL9MxC39l7+yWk6qtnGu2bzY1GgYDMeeYqNr7Wv1mHgeJM5cZ2utx6V9TbkSPSGtrjS8VuJBH80pyaEIqgkkKVDFiB1YXJ6zDpm7qNN7E82LMLXPtI907M58Ypb1kJgiWz5iCe7a17aX1tt6I68tplPhUbR/SHS5y+6eqZ30trb1ADae2aU1qki2uFQd0ZfUT/OYxwgQlgSb9ddB834++Zd4fUEf365EtieI+vUD+A5den8pjUajU3zqd+8Pmv425N4jfnynrHE6PzYC/8AM/CQycVLgqabBgWsARfKpAuQ1spJNrfymnJqftHpveDxYdQw5/geYMy1aa12fraun8Lj1m6t/wComwUzOTWfG8aT0zMgdSpFwwII8CLGRZ7N5dabX6BtCPDMv5SSotrJFDpL/HjOuzUVurPTXloVl7yE+qzD/brMiniLbgj13HxEm4tNP/nn8qPOoxa1+6pPqH85l4ajluTubX8LbCZFol8/HM/tF11WIiaqkREChnzJ2+q8R85kx7FsruaZspSzb+acDukAeje4sLi8792w4WuJwdWg9fzCuBepcAKAwPpXIBU2sRcXBnzh2l4PQw7Wp42jiSTqKQew8cxuvuYwPHZXs/Ux2ISgmYBr5qgUutMAEgta1gcttSN59H9l+ymHwKAUkXzhRVqVNc1QqBdjcm1zrYTRfILhEFDEVbem1RUJzA+gq5gMvzdWbU7+ydbgIiICJGcU45hsML169Ont32AOu1l3PsE5j2k8syglcFRzaf8A2VbgA35INSLcyRvtA6xjMZTpIXqOqKupZ2CqPWTOV9sfK7TUGlgRnbY1mHoDX5inVzvqbD1zk/He0OJxjZsRWZ+gJsq791RoNzyvIiBkYzFvWc1Kjl3Y3ZmJLE+JPukp2V7N1sfXFGiNNC7kejTXmzfyHMy92T7JYniFTLRWyAgPUa+RB4nm1tlGvq3n0d2W7OUMDQFGivi7HvO9tWY/AchAt8E4HR4fhTToLYKrMzHvOwXVmPM6ezYTPqU8iIn0VVfsgCXuIdwj6RVftMFPxlrHHaYfNf0tPbDcyO4jsi/Sqe/Kjvb/AGzOeYeJXuNa5R1YDrbQj2gke2c+f9Rp/EZj6q5MpVdLf+RrFgbiyqTooBsPGR+JqXXQ5WvuBtaxVvYRJDiPD0quma4QF3UgsLDKbtpb0gCQD4y1WVQbhbKCQoOtxyzHmZ2Vkz8PWzor2szC7Dxva69RppPV5A8VbEN6GHp3vbKAR6AA6sRppa/TQgzXl7Y4ik5SpRzFbg2PpXHVTM7lMroAMqbcyFHMk206zTsd2uyLdQjG4FgwHXXUeEkvOvVQOrqrWvdmYixv3bDvaaW1GuoveJn7OqVsYlao7IQUT/xgcwVOuYbqxudOmWEW41F/x22MheIcMKkVMO5SoBY37j2+a42/KS/ZSniMWj5qaIyMUb0zuADcrY5dwRqbzXPEM3gujr+8WT8C3/GbNTkNhKAV0sQQodrjUHdAQeYN3sf3ZMUpyfL/AKrTPpk0zrJKid/ZItDrJOlv7P7+Mn4bzSuvS/EROxQiIgIiICIiBEdpeB08bh3w9UsEfKSUIDAqQwIuCNxzE+fONJgnf5Lw3DVa7k2885d2br5pFsAP3mG3Ibz6anO+3fAq1LCtS4ZhUVsQ+XEGmAr5GB2JtoToddAdtbgOW+TztceG13FQE0X9GqECswKZgrqb62JOl7EE+E7IvlL4WRf5SO+E7tQG5+dbLfL+9tOH9rOzQwdSjhA3nMSyq1XL3Q9QgJRQc7AbnfMNtprNRSpKncEg89RoYHeuMeWLCUtKNN65DlW1FNco/wD0VrNmB5DT2TQuMeVjiFYFUZKCkMD5tTmIYm3pNcggWFxbXWc+vKgX0gXcRiHdizszsd2YlmOltSdTLM2TgfYjH4uxpYd8p+e/oJ6wWtf2XnR+z/kYRbPjK5fa9OldV9TOdSPUB64HHcDgqlZxTpIzsdlQFmPsE6r2R8j7sVqY45F38yhux8HYaKPBbnxE65wjguHwqZMPRSmvPKACx6s25PiTJKBjYLB06KLTpoqIosqqAAB4ATJiIGLjBfIOrr+F2/4zHxx1mTiO8n8RP+0/nMLGH0pzfNf2tljES1UWX55dZgus0ApuGF7XLdf416+I8SeemvVuGI1Ra2RbguQbLmzZcgLMNdFJFv3h0E2BkI20tseY8RLFWo4uQL9baBueo9n/AFOjHyz1VblGcWq06Yu3og2AsCdFS5Ol+QYzF/wxHF3RXykkZ9dxYjxF8pI/dnrjGMp1WQPkTJmzKy3LX0uoOg57dZmUMRR0C1ksBpm0KgaWtz/pNexVGUsKoZxZDn765Us19swAjHUjTyqgzHRRbRRZcxJJ22PtlMDRpLiHY1LLZspuhVi752sAc29+8Tbla8z69Sk2jEuxOgU2v4nnv0j9JQ2GzumcA5XCkX66b/jMLFcRbBn0SzPWVkZF0zAAlVHWxO/7x6mbxg6CJSCFmcAlraXJ6Mw2A/sS3VwSVHR3RbpogCjKu+19fnN67mU1vMTIw+Au7Ukd1KO6hmU7oNcq6cgPiTpeTybTyKcuqs5be1Z7pySpnu+78P6SOWZ6nRfWPyl/j/1Ea9MuJSVnazIiICIiAiIgIiIELW7N4VsSuMaiprqLB9elgbXsSBoDa4mnp5JMMExKiq969shKqTQAcPYfSuQAdtBbxnSogcz4f5HMCjK1R61aw9JWYIrHr6ADD1ZvfNw4P2VwWFC+Yw9NGW9nyhqmt7+m12O/WTkQEREBERAREQLFbdfWZHY3vyRq7iRvEQb3E5fl9r5Wrxec57X08e9em1FnCDSyMyhWv3nsbMNuu2283Ph9RygL97nMrGlzyS9SJnkpKBpXPIQtVsKjizKGHiAZHv2dw5N8lv4SR8JK5ovJmrEIlez9AfNJ9bEiZdHh1NO6ij2TKJlM0XWr/RQJParKZpUNKi4J6BloNPQMkXhM9e6PWvxkfTmee77jL49o0ypWInazIiICIiAiIgIiICIiAiIgIiICIiAiIgY9Y7+A/nIbH45R/e0lsSbX9Q+Jmn8Vb0jOX5f9L59Mg4sdRPPysdZC5ozTLiyaONHWU+XCQ2aM0cSmPl8f4hIjNF44Jj5fKfLZECVBkcQmBjZ6GLEh7yoMcSm1xYlxcWJBXnoPHBs2GxKk2ktmDLp0moYN9ZtGEPoeyWzeVGokYlJWdzIiIgIiICIiAiIgIiICIiAiIgIiICIiBE4/FoH82WAZkzqL6sqtZyOtsyX/AIhNV4k2pkr247JjH01K1DSr0SzUaikixYAMrW1sbDUaiw8QeD1e1nEKLtTqVDmQlWWoqFlI0IJte/tmO/jur2LZ1x1GCZy/9vMV0pfZb9Uft5ivo0vsn9Ur+Kp8o6gDK3nLv28xXSl9lv1R+3eK6U/sn9Ufip5R1G8rOWft3iv8v7J/OVHbvF/5f2T+cj8OjyjqgMpecs/bzF/5f2T+cHt5i/8AL+yfzj8Ojyjqt5UGcp/b3F/5f2T+cr+32L6U/sH9Ufh0eUdXBnoTk/7f4vpS+wf1Sv8A8gYzpS+yf1R+HR5Ow4NrGbNQrqqFmIAA3PjoB77D2z55HlAxo2amviEB+N50DyecKxXECmNxteo9Km96NKwVHZbEVSFABCttpuu9t5nw3v7RdOuiViJ0KkREBERAREQEREBERAREQEREBERAREQKGc58rWAomh5w0qZqWtnKrnt0zWvEQNC7D8Oo1FbPRpvoveRW+Im2LwPC/VqH3VP8oiBcHAcJ9VofdU/ynpeA4T6rQ+6p/lEQMhOz+D+q4f7qn+mXU7PYP6ph/uqf6YiB6/Z7B/VMP91T/TLo7OYL6ph/uaX6YiB6HZvBfVMN9zS/TPY7N4L6nhvuaX6YiBcXs3gvqeG+5pfpkZ2g7P4RUYrhcOD4UqY+CxEDWOxfCcO9cB6FJhpoyIRv4idppIFAAAAAWwGgHqERAvREQEREBERAREQP/9k=;" vertex="1" parent="DfZiOr1Gd_-NJ0TTqh6M-1">
                    <mxGeometry x="605" y="845.32" width="207.42" height="130" as="geometry"/>
                </mxCell>
                <mxCell id="LBshlcq7G2-BEQelQ_nA-1" style="edgeStyle=orthogonalEdgeStyle;rounded=0;orthogonalLoop=1;jettySize=auto;html=1;" edge="1" target="LBshlcq7G2-BEQelQ_nA-0" parent="DfZiOr1Gd_-NJ0TTqh6M-1">
                    <mxGeometry relative="1" as="geometry">
                        <mxPoint x="708.8000000000002" y="1035.32" as="sourcePoint"/>
                    </mxGeometry>
                </mxCell>
                <mxCell id="LBshlcq7G2-BEQelQ_nA-2" value="Feature Phone" style="shape=image;verticalLabelPosition=bottom;labelBackgroundColor=#ffffff;verticalAlign=top;aspect=fixed;imageAspect=0;image=data:image/jpeg,/9j/4AAQSkZJRgABAQAAAQABAAD/2wCEAAoHCBYWFRgVFhUZGRgaGhgaGhgcGBwcGhocGhwaGhgcGhocIS4lHCErIRocJjgmKy8xNTU1HCQ7QDs0Py40NTEBDAwMEA8QHhISHzQsJSs0NDQ0NDQ0NDQ0NDQ0NDQ0NDQ0NDQ0NDQxNDc0NDQ0NDQ0NjQ0NDQ0NDQ0NDQ0NDQ0NP/AABEIAOkA2QMBIgACEQEDEQH/xAAcAAABBQEBAQAAAAAAAAAAAAAAAQIDBAUGBwj/xABAEAACAQEFBQQIBAUDBAMAAAABAgARAwQSITEFQVFhcQYigZEHEzKhscHR8EJScuEjYoKishSS8SQzQ2MVNFP/xAAaAQACAwEBAAAAAAAAAAAAAAAAAQMEBQIG/8QALREAAgIBAwIEBQUBAQAAAAAAAAECAxEEEjEhQQUTUWEicYGhsTJCkdHxFCP/2gAMAwEAAhEDEQA/ANwtnl8IViE8I7Ok82aolItN0RVpFrGApIjYLJLOwdjRVJ6AmSRrnLhN/IjlOK5eCOJUfeU1bLYNqRVqKOLH6aShfL5s+719ffrOo1VGxsP6UxH3SxHRWvnC+ZFLURXGWV2iqv2Jm3n0i7Ks/Ys7a2PHDhH9zA+6ZVv6X1FfVXBF4FrSp8QqD4yaOgX7n/BG9VLsvudK6HhEwcRORHpkvNf/AK13pw7/AMcU1tnelu7uQt5ueAGnfs2DU6qQpA6EyR6Ct92c/wDTNdkbAB8IAZ8Zs3e63e9WYt7paq6ndU6/lNe8rcmmTbgoxUggjIiVLtJKtZXVepPVqVJ4fR/kbprIzacB4xrvXWRseEqMsCOa6xCKRVEWkQAKaxa10jMOee6KXAjyGB1aRC8UNGMc8oMBpgBWDQXOcjEc0jsMKRKZZmACVAyBi1+841V4Qwcz5iAGuV4/v5xKRrHP575cuFzNowXj5AbyfpLFNLulhf4iG66NSy/p7sgs7JnICgnp9JpjZGBC9taJZoMyzMAB1JNB5yh237W2Wy7NbOyQNeHFVU6KNMb0zIrou+h0pPCtt7evF7fHeLVnO4E0Vf0oMl8BNWvS1Q7ZfqylK2yfLx7I9h2n292Xdqizx3lxl3RRK83aikcwGnIbV9Lt7cFbBLO7ruouNx/Uww/2zzgxyNTcD1ljtg4x3Ni+9or1b19bavabziJYeCnur4ATMtcTGrHl90jGtSeGWn2ZGTWLAD2QAa58JHCEYBCEIAbvZXtJbXG3FtZGoNA6E9114Nz4HUGfQAeyv92S82BriGn4qj2kYbmB+6GfMU7T0c9sTcLejkm72hAtF1wnQWijiN4Go6CMUllHobJhJBic5023LgrqLezIZWAYlcwQRUMOIIpOYK0NZjavT+VLcuHx7FzTXb1tlyvuJhO+BJ3QIgw4SkWxrkb5GuZyEkCcY4KBpABFXic41hFY8o0jzgAtMo0jnHZRKwAXFGld8BXdFI0zrAAQxfL3QpH0PKAGiDlwnRdmVFXO+i+Wf7TnPw85qdnb1hda6Hun5fKbPhizCfr0MrXyxOtvjLPHPS2znal4DVy9WFrph9WhFOVSfGs4qey+nbYf/Zvqj/02nvazP+Qr+meNS4IIQhAAhCEACEIQAIQhAAhCEAPW/RD2zCkXC8N3WNLBm0VjrZk8G/DzqN4nZ7e2Z6tsSjunTl/LPnVGINQaEZgjjPoL0edqF2jdjYWx/wCos1Afi66LaDnuPPqIpRU4uMuGcyTTUo8ozlBi4daay7tC6tZsVO7yI3ESoZg3UuqTi/8ATTptjZFNf4xkaRz0jyI0tykJKIxpEbPdBk37+ccKmAEYEMPEyRQIb6e+ADBHaUgxppEausWAEZ+EZjbj9+cVVJ5QwDjDDGau6MuT4Ww16dRpJTv4cd/hM62tClth4qGU81NGHvX3zS8Pu2XY9ShrqvMqfsdtte4LfrlaWLU76EA/lcZqfBgDPlq8WLIzIwwsrFWB1DKaMD0IM+oOzd7zK7jmOu8ffCeRemnYHqL4Lwo7l4GI8BaLQOPEYW6kzXsjtkUaZ7oJ9+55tCEJwTBCEIAEIQgAQhCABCEIAE0tg7YtLrbpb2RoyGtNzD8StxBGUzYQA+nrC9We0Lql4sdSNN6sPaRuYPyO+cxbJQkHLrOC9GPa7/RXjBaN/wBPakB6nJG0W0HTQ8ugnsXaXZo/7qaH2qc9D0Mh1FHnQx3XAQs8me7s+TltdI48o7DHVpMFrHJqp5GKnHyjWB0+6R7tTWQu0Qx/jGM54QVeMUKBDADK0rWLTjHVG6IQTy6wYDWrxjcEmwxMBhgZqNacK9ZlbYRsAtBm1mcdBvGjjxUnxpNBqb5E7gCklhLbJSI5RysFjZN6oQyngymbXbnYov8AcHRRVwPWWXHGoPd8RiX+qcRsa2wM1l+Ru7zRqlKdM1/pnovZy91BSvMfOekjJW0qS7GFh03uL4f5PlQiJO69LPZ3/S31mUUsrxW0TgGr/EXwY16MJwsjLQQhCABCEIAEIQgAQhCABCEIAAnunoj7VC8WJuNuavZr/DJ/HZDLDzK/CnAzwuXtj7Re72yW9maOjBlPTUHkRUHkTATWT3vatxNk5WmRzB4j67pmO4rSdmrpfrqlsmjoHTkSM1PjUHpOIvSBCcZprr8Jn67T5/8AWP1J9JbtflS+n9AWrGlpD61m9hf6my8hqfdHiyA1OI/2+UzGjQJVaorr84xxHZ/tHEcpyAgXnAn3eUKARCYDHA7ouA8PhGoCddI7DygInVGbXux6WQ6xcPh7v+YqA/fznYmZW2VwMlvuU4LT9DkZ/wBLUPQmb+x72QQRqpqOm8SnerEOhRqFWBBHEETL2HeWUFHPfs2wN/MPwt4rQ9azX8Nu/YzL19OVvjyjr/SLsAX+4sEFbSzHrbLiSozXxWo604T5nM+rez17qChPNem8Tw30s9m/9JfC6ClleMVovANX+IvgxxDk4G6XZx2ywQ1T3xTODhCE5JQhCEACEIQAIQhAAhCEACAhACAHv/oRvZe4uh0s7Zgv6XVXp/uLec3O1OzBUWgGROfI7j4yh6HtkNYbPVnBDW7m1AO5SFVPMLi/qna3qwDoynQikFjh8PoziaeMrldUeZNkcvvqYgTlLl8uxVip1BofDfK5WYeppdU3F/T3Rpae5WwUl9fZkeHl745uURhACV+CcQCNBArHlc5GWA18pyxitG4ouGucXLiPOMDQC51gTGV+/wB4uLMbhJMnAjPlp0ExNp2ZsrRLx+F6WdpwzPcbwJw9Gm1gjL7dUdGRvZZSpz3SSqxwkpHE4KSaZf2PfCrAjVcx03ibfbHs+u0bm1mKB8nsmP4XAyryOankeU8/2De2AKP7dm2B+dNG/qWhno3Z2+g9wnI5r8xPR5VtamuxhpOm5wfD/J8u3u7PZu1m6lXVirKdVIyIMrz6I9I/o9W/D19hRLyooa5LagaBjuYaBvA5UI8D2hcLSwdrO1RkdcirChH1HMZGQlspwhCABCEIAEIQpAAhLF0ur2jYLNHdjoqKWbyAJnc7C9FF+t6NaKt3Q77Q1enJFzryYrADz8Cen+jz0bvbMLzfFKXde8qNkbWmYxA+ynM67ss53Wx+wtx2cq2rqbe2Hsu4BoRTNE9lacTUjjJdp7Xe1yJwp+QfM74CbOpXbF3rhFoopkMiAPGlKS/WuYnmzPlTnX3U+sv7J2q9kwFapUBlOmZzK8D8YCyXu1N3o4b8w94/ak5t1oZ2PasdxOOI/CcnaL7oavTefQpLlfdFajUKjVOD4ePoyr1z5cI4DfX76QJ45REbwE82ehExHoYxjTX/AIkpURQucAyMRCc47AeXnFEXDFgMkyLy8I4mlAcouOnz4+QiVO6tJ0AAeHMxxXl+3hGlONaywo6xrqI5rbNn6m1S8DJWolryBPcc9CadDOj2TeSpABoRmpkV7uqujI4qrAgjkZhbEt3XFZOf4lkQpO9l1RvEfAzY8Ov/AGSMzX0blvXKPX7lehaKGGu8cDKe29gXa9rhvFitoBoSKMv6XFGXwMxdkbRwkN+E+0PvhOss7QEAjMHQy9ZDa+nBVou3x68rk8k2v6FUJJu15K/yWq4h4OlCB1Uzlb16Idop7K2Vp+m0p/mFn0TMG9X12zQ0H4RWlRuJIzzy6V84yc8GHou2rWn+l8fXWNP85fu3og2i3tCxT9VpX/BWnsrXh/zP/uP1kZtW/O1f1N9YC3Hnuz/Qi2Rt72o4rZoT5OxH+M2E7FbKulCyG2YGmK2c4S3AIoAc8sJne7MvLOrKx7wGTb6NUDqQQfdOV/01HR2HfVWsj/I9VrTqVA54l4wBsdYbTKrgu939Wm4Ki2Ce8Yv7ZMu2rWzGK0yG9ltC6rXe6si93iRprSMaNpXI511Go0zgLLN61UXmzqKC0SopuNdRX8rUBB3EDWhB5a+XdlJBU60poQcqg8KVr0oRXKtnYl7Ng+FicKELUnWyf2K81oR0UcZ1t92atpmcm0rSoI3BhlWm4ggjjmag+TzxLWppQb/caa7/AHTV2HcDa2q/kQh3PTNV6kjyBmuezQrUuFG8gVNOROQ8ayO/7WsrunqrGg5jM13nix5zpRbfQjlNRWWR9o7yGYKDkuvU6zDcSrabXSuav1y+ssWVsriqnqN46zQqcElFMxr42OTm1giZI3DJnErsDXIeM834jpfJtyuH1X9HpPDdV51WHyuj/sfSI3KKY3EN0zjRDDFpzgTXfDGOU5AuIMqcItBXL78Inh9PGLTf/wATsRJGIKwGe+ISFGp88zGIlM5jtIps3S9KPZ7loPzITrzKnObptCeNOH1kdrZBwVIqCCCNxG+d1TcJKSFKKawxdl3oZZ1VqEH4ec6TZ20WszQ5rvHDmJ5xsgmxd7q59jvWZ/Mh08VOU7G6W2Jc9RrPUaeyNsMM83qq5UWbonc2NurrVTr5jqJiLZlQEIowAGHjQUqv5hzHjQzNsbZlNVYg8ppWe2ajDaIGHQfA5Tmenkv09TuvVwksS6MjZZCVY7woz0zPI1OWfCnjNFbzYNozLyOf+QIHhFw2P/7L5LX78JC4SXKLCnB8SRFsxsNqv8wZfdjr/b74/bOzqsbRVJDCloF9rL2XUbyNCNSKcJLY2tghxYwzUpU5kDgAooPAZ0Eda7dshpVug+sahJ8IJW1xXVoxHCUzZSRqcaip4kNQqfCNs0LewjPzVSR/uaiiXbfbldLMdWzMxb1t22euEnDrioQtOIC7uZnTqcVmXQiWohJ4gmzTTZahg1uVVahiuLEzkaBjoBkMhWoymhee0Cj2FJPE5D6zi7f1wPeeh1pQfSPsbZwBjzBKitKEFiFGnMidVqtvDycXSuUW44X5NW/7StHBqcqEhRkDTdzkbbAcqHHfLUOLKhBFQddJDHreWUGjsq5nJmA4k0BpLNtOYpR6FKjU7ZNzy2ypfNj4EJcqN9TSi8hilW4WBBLZhaBVr7R4seGmXjykl5tHY4gCSNHclmHTEThmfa3i1U1x1Gu7UVqNNeXWV4ShXLL6suWxtujhLCfryaziRPlC62+NTUUI1pz0PKOZZ3rKVqKGlzyipo7paW/rxwyBmjS4iPI3czyDTTwz16w1kUNuhSNVqmSU5e6I6L+KmlY4LxJp743pInf7rOzkmtnpkPL6mRg513xqCp+/hFcgdfeYcgOT3+7zis+4Z/CRAk8h9749KaAQAxO0t0ZlW2QfxLI4l/mX8a86iW9jbRV1S0Q91hmN/MHmD8JffMaV5fek5RQbteChysrYkpwR96+P0mlodRte1lLWUKyJ36GucDKGzbxXuHw+k0Z6SElJZPMTg4SwyMWbuSEGmrU30rQDjQjzjV2PbNXEXBXMip01BAGuXLUEbpfuN9ayJwgEMalTxoBUHdkBx0l87fpn6oczi3dcMq2qxvpwXtO6VHrz7nP2Wy7SuTPQVzqSuVBzU/seVUUtVlamJTQkdA3gc5evvaRmyBCj+VSzeDHLyHjMtL0mneGuoOpzJJzJJOdY6Xh/E/uc6pKS+FP54JbVMSleII6VFJt3e92JQKVKMMNe6WXIgmlMyMt9JjKQcwajjEtHIBIFTuHEnTpnJ7K4zXUqU3SqeEuTbvO0bACqqztpiKheeZalB0E568X1HbEzqKZhRUgHiTTvHn7pePZ+0Pec1ABJJOEA8BXQa+WZhbdnGIUqKA61GYBFc+B3daSmpxi/hX8mlKudkfiePZFRHDZgg9DEZa0qKgMpI4hWBI8aUkdrdQjqqmrAgtTQDfXhXQDx3SYCXK5OcctGXdBUz+F5NRlurDEWav5SrZHLSgPDdvJmPfnQVCKAPzv3FHge8elAOcV8RIVBVjpyA1P3vIlV7hU5ks2QO+hIJA5aGVrIQrfqaFNtty7JeoXbABhVwxJqTUVY9PdSSsJlW9yyxAYfZNTpSgOpHDIjl4zRurEopNd9K6kVOE+VJPRbu6YwU9Xp/L+LOcle8JnX7rIlGecvWi1BEzrS06zz/ium8u3fHh/k3vCdT5tO18rp9CXIRPWDhIi3X75yTCOJ85lGqXitRqeggq0+8o6hjSfOdnImI9Of0jU++fnHPTfGKDAZIxgvPzgdwihvP4RAOQ0GUzdsbLF4s2XfqrcGGhE0VA1/4j1z1nUW08o5fBzewNoM6lXytbM4XG+o0boafGdhdrYOtfPrOL7R3c2Fot7QZZLaqN67m6jL3c5t7NvgycGqsBpvBzBno9DqFKOGYXiGmw90Tek+z7gtq7BmzUAqvHi3PPLllxlcGBE0Jx3xxky6pqEk2smzdNggAhqaLhOp0ocXE1FfGQHY9mox2rBaV1Iw5gZfHIfQDPa8uMg9oeADtX45CVTZWzsSFoQB3mBLUNaZtnuMpSqUX8TNKNzmsxj/ACBUY3KAhDhC1FCaVq1N1a0oc8vCKVB1kL2Vqp9utNQFB30NaDKSriFAwzIqCNCMq66aiXKrYtKKM++mxNzf2NCy2vbKAMQammIVPnqfGU75t21buhmNdy0UeDAYj4GRuoORrSq4qalcQxgcytR4zeXZ1g9Gs2U5Z96lCKFCRQ0pnkR8JFfiP6Yk+l3W53SfTtk5M2loNERR4/XWD3/DgxoQGZVDDMVbJajWhNBv1nVXxLqtSWBbIlUOJiRTPAtTuGuWQnP2y43UhcCJ7CZVJpQFqZAAE0UV48oqp2OXsdaiumMXnn7klm5VlZaVXSoqDUUII3g/ecvWu2TQ/wAFAdS2IgdSMPzmfJ7ns82pameAA4eJOKmv6cvGS3Rjjc0VdNKxy2ReDKvd6xmr1fOuEDDZ+RJLeNRG2O0Uc000z1GelTumpedkP3WUBRXNWy/FqapUgjdlmdeGPfLoEbCtS7VotTpUmp4AVOcrwtkniK+hds00Gm5t/PJcdZStkzl1x8NZRvjgOq8mPlhHzh4lBS07b7YZX8Lk4alJcPKIX0yA+cSnWLi3nL5x1Os8keuNEnyjM+kENcx5n5CKskOQKjj8ayI8NJOTlpG4hwnLGCiPrwjYtmtIxD4p5ecTFSIr8TGAy0s1ZWVgCCCCOIORnJbNc3a2a7Oe4atZMd4OZXr+/KdepH38pidoNlG8WfdBW0Q4kbQgjTPdWnwk+mu8ua9CK2tTi0ze2Zea9w+H0miBOJ2DtI2iZ5OhwuuhDDfTgfqN07C6W+Na794nqKLVOJ5jU0OuReuF4VGxMuIEUPEZ1BFfh9M9c3+wbFmRiCimBssJJB0ocz7pgGOsbBmZVXIsaVO6gJJ55AwtqjL4mOm+ccRismpa7TsUHcsyxpSpGFfEtpv0B1PGYNveQzl2dMVKBVIwqK1oM6knKpOtBppNV9iEMAQWFDViK0wkVNAamtcgANPKVthjHhwjDxod414a1GdN2srxnGLzFfyW51TsjiTx8jGpGN0roAKVJJyAHUy5tDZ3qQpJAZnwhRWjDMnI8FzrykCEqQw1VgwrpUEHPlLkLN8MpGbZT5c0m+gNs+0NQQwwgMQu4GvifZOnlK1vsa1DiiYkNM8upZiTkKV030ynTf8AzVmaFkdWApUAMKHUCmo6gStfNroQAlgWIAVWfCqgbt5b3Sm42SfDNJSojHlGG9lgwd6oc0ArX8LNUeUks7VlOJWKsN4OfQ7iORyjHqWxu2J6UFBRVHBRu5nU06CNLS5XFqOJdTMusi57odCe3vlq4o1s5HIIvvVAfKU0QLWg11Nak9Scz4wtbZVFSQBzMxr92gRck7x46Dz3zp7ILPRHGbbnjqzUvNuqKWY0A1nCbR28ReUfRSxWnBNKnzr4Qv8AtB7Q1dshu0AnIX6847So0GS9Bv8AGZ2puVy2rg2NBpPJlulyeuaiopyMSnP3yDZYPqkJzJRT0yHmZcqeBnmZLDN8t4DWlf2ilIpaGo6/WPACKfOK2Z5xw6xpGeUeBCEcaxaxCaxK1yNKRDFZuEUJn9/CNrXp97pKiZfdYLqJsciwblFLRUXKM5OP7QXRrtai9oKqaLbKOBpRuvz6mbdwvo7roaqQDloQZevNmrKUK1BBBrpQ65TibraNdLY3dz/Dc1snOgqfZr19/Wauh1OHtZS1mnU45PTLvaBwGXMfCTohBDDIjMHhOOu1/ZDVT1G49ROhuXaOzNBaAoeIFR9ZtqakjB8twfU6FdrONVUnjmPrI7ba9qfZCLzoWPhmBKQ2ldzmLVPOnxla32lYj/yJ/uE5VcPQkd1iWMjrQEsWJLMcsTGppwFMlHIACRmZ9429Yj8degJmVee0w/Ah/qNPhJd8IrBA4zm84bOid5XtLYDMkDmTOQvPaC0bQhf0j5mZltenfNiT1JMilqYx4JI6Scueh19525ZJlixH+XP36TFvXaNzkgC+8/SYNo4AqzADiTQShb7Ysl0JY/yjLzOUry1Un+ktQ0MF+rqatvenc1Ziep+Up3i8qgqzAfE9BvmDeNs2jZLRByzPmZntUmpJJO8mpleTlL9TLsK0uiRfv+0y/dXup7z1+kfsLZrW9qqAZasdwXfLex+zVtbUJGBPzMCK/pGpnoOy9lpd1woOBLfiY8zKt+ojWtq5LdVb5Zas0CgADQASWo4GNWLU8pkFsuBfDjD7ECcs9+pgc9KTsQtctIitE6Z893hFA3RDE46HwiCzrrJAvCGHKAgVQN0crGNrGtaU0z+EeQwTVA5yNmrIg5O6vwjsHGGQwDMONT7pjbf2Ut4sypycZoTuP0M160hX74QjJxeUDWTzi4bbayY2N4qCpw49SKbn3kcx+83kvAYYlIYHQqQR5iXO0HZxLwuL2bQaNx5MN4nnl92feLsxqGTP2lJwt/UNehmvRqVNdHh+hQu0yfVHZvanhIHtDwnILty8D8deqqflGPtu3P46dFX6Szvk+5W/50ux1zMTKtteUX2nUdTn5azkrW92je07HliNPIZSFbOuQnLb7skVZ0d429Zr7ALnpQeZz90zbfblo3s0UchU+Z+kW6bAvFp7Ni9OJGEebTdunYa0NPWOq8lqx89JHK2uPLJY0yZyNo7MasSx5msmulxe0NERmPIE+Z3T0i5dkrumqFzxY1HkMpuWVmiAKihRwAAErT1sV0iiaNHqcBs/sTatQ2rBF4DvN9BOq2d2cu9jQquJvzN3j4bhNdnH7CFMvlKlmpsn3J41xiAOUQLzi0gFr0lZs7EHARc5IEFM+f3WS+rX7E5yAvWtOETXh8v3gNPOPOqyRiFAjUyPz3+AkjaxrfWNAOIkLOAJOsoN7cGA5nJ49KfKOazOprGXTfLR0iGRigi46xpjkiAQCDEaRLPX75xR84ACiQvZgghgDXUHP3GWOMitNfCMRiXrs3dnNfVBeJWq+4SmOxl24P8A7jOh3H74R508JKrbEukmJxXoYlj2Wuq/+KvNmY/EzUu9xsk9izReij5CTcOsWy+X0kbtnLlgopCYCY8xq6+MfaaHwiGRE85EpavzkkWyiYxUQCOw7hGmWLD2pyBGLPj5R9fsRzanr85XvGn3ygA497QjnwHKR05xtp7K9ZPORn//2Q==;" vertex="1" parent="DfZiOr1Gd_-NJ0TTqh6M-1">
                    <mxGeometry x="404.15" y="1030" width="139.7" height="150" as="geometry"/>
                </mxCell>
                <mxCell id="LBshlcq7G2-BEQelQ_nA-3" value="Phone" style="shape=image;verticalLabelPosition=bottom;labelBackgroundColor=#ffffff;verticalAlign=top;aspect=fixed;imageAspect=0;image=data:image/jpeg,/9j/4AAQSkZJRgABAQAAAQABAAD/2wCEAAoHCBUVFRgVFhUYGBgYGRUYGBoYHBgZGRgYGBgZGhgVGB0cIS4lHB4rIRgZJjgmKy8xNTU1GiQ7QDszQC40NTQBDAwMEA8QGhISHzQjJCU0MTQ0NDE0MTQ0NDQ0PTQ0NDQ0NDQ1NDQ0NDQ0NDQ0NDQ0NDExMTQ0ND80NDQxNDQ0NP/AABEIALIBHAMBIgACEQEDEQH/xAAcAAEAAQUBAQAAAAAAAAAAAAAABQEDBAYHAgj/xABDEAACAQIEAwMHCQYGAgMAAAABAgADEQQSITEFQVEGMmEHEyJxgZGxFEJSVJKTodHSFmJyweHwFWOCosLxI7IXM0P/xAAYAQEAAwEAAAAAAAAAAAAAAAAAAQIDBP/EACMRAQEBAQACAgMBAAMBAAAAAAABAhESMQNREyFBMiJhgRT/2gAMAwEAAhEDEQA/AOzREQEREBERAREQEREBERAREQEREBERAREQEREBERAREQEREBERAREQEREBERAREQEREBERAREQEREBERAREQERKEwES01ZRzHxnj5WvifZK3Un9OMiJinGfumeTjD9D8f6SPyZ+08rMiYXyxvofj/SPljfQ/H+kfkz9nKzYmGMd1Uyoxq9CPZHnn7OVmRLC4pD84e3T4y4GB2luxD3ERJCIiAiIgIiICIiAiIgIiICIiAiIgIiUJgIlh6p5S0zdSTM9fJmJkrIaqBz908NWPIe+Y5qdJ4apMtfNf4tMrzVDzb3S2zD1+uW80TG7t/q0zAvKGpPDm0svV8ZS6W4vl5TNMbz0eekdOMnNPQaYhrR8ojyOM0NGaYi4gS+lQeEnyOLtgeQ+ECkvIlT4SmaVLSZpHi9r5wbNf16/GehjSO8p9n5GWs8qXmufl1FbmMtMUh+d79PjLwkS6g8vdPKll7pPq5e7aaZ+b7VuUzKzDoYwHRtD+B9Uy5vLL6VViIkhERAREQEREBES3UcKCSQABckmwAG5J5QLkTWuK9uMBhyQ+JRmHzad6rX6EIDl9tponaDyxAKyYagwYghalUqMt9mCC9z4EjxHKB1qpVA05nYXFz1PslNTvOY+SF6uJ+UY2s71HZ1oqzNeyoA7qo2UEumg00nUpju23iY8FZh1dJmvI2s+8w3+l8rZeWqtTKLxmEiuJ4kn0FP5DxmOrydaZnaycDi2ruyUmS6WzZibi+1gJM4bDMoOchmvuoIAFtpzhBVoVlqYdWZwdVGpqAm7q1uu9+R1nUaTEqCRlJAJBsSCRsSNDbwl/imdZ7/AFXfZUZXo5lYA62NvA2NjNJr1cfmIFB2AJAIXfx3nQHAy+JGk8KttJFzL7TNcavgOHYl0V3c02I1Rqdyutrd8fy3kZiKmNR2XzFd1UkBlRfSF7BgM3Ob7Fo8Z9HlXPhisTzw+L9lJT/yk1geGVKiKzVK1Mm90emgYWNtfS57+2bPaUjmfpHlWm10qIzLkxzAGwZKdHK3iCX2k5wTD3Uu3nQTYBawVXSxa+ikjXQ7yUInujYE35294vHM/R2rYpbgf9eMj61WpSIFQaHQOvdJ6dQfA/jJygAb+ual22xjlqVFQwW5dmANiy6Il9juWt/DJuc+N1f/AAlvlxPUXDC95VrzWcDj2W1z+Rk7TxwYXsBKZ1LE6zxlJMladxMOk8kqOwl8/uq39Md6MvYOoSCp3X8RyMuusxho6nrcH3fmBNcW51z7Vv7jPiInWoREQEREBETTu1HlDwWBY0qjNUqi10pAMVv9IkhQedr3gSvaftJQwNE1qzeCoO+7fRUfE7CcxY8Z40rFcuGwjghVJyq41sL2zvfS50XwkfwjHU+N8VDYpwlFATQoMe+FOlO40ue82tzsNNu7U6YUAAAAAAACwAGwA5CBw3CeSLHuo85iKNK/zVzMR4eiAPxkrh/Iktj5zGMxsbZUCi/LdjOwxA03ydcErYPCJQrhQ4aoxCkMLMwIuRz/ACm3Xnmvtfpr7Ocsl5z77m9+1pOrlRpF4hrTIrYq20jK5J1M5t660zOMerXOtpg0aJqMEXdjv0HMn2CZNSZfZyl6bseShR/qNz/6zLnlqSr95OpTCYJKQso15se83rP8pfLeyHMss829emft60G0peWme0xMTjGF8qObC97WBOmiltCdd9tJOc3XpCQzAbmWnxKLufcCfgJr7Yqq5yNkQcwuZ3F+Ze4F/wDTaWuK0FVQc9QKAAERynQEn0hmPMkmaz4ajybL8pT6XxnsOp2ImsYPBoVDZ2bmody+U20YZibEXnhnr5yFqhyDqrolhfUAFAhHr1j8P/Z5NrMpNf8A8VqUz6a5l6pclet13P8Ap90l8Ni0qKHRgQdQRMtZufa3WYrW2Np5emGFmAIO4OoM8BpdUyo1bjGAFFgV7j3sDrYjdfEdJTBe74e6TXaGlmoOfoFXHs0P+0mQvDiCNDf1TKzx00l7Eth3MlMPiBax09enxkbQEkqTzTNVsZfnAdiJiVDd0H71/drLmnQe4Txhxep6gT79Pzm2b5ainORIxETsZkREBETRvKL25HDlWmqM1WqjlSCAEtoHNwbnMRpblAzO3HbWjw5LH067qTTp662NszkbL+JsbT5rxmJNR3dtWdy7NrfMxJbnbcn85TFYt6hLVHZ2JvmYlm18SZkcF4PWxdUUaCM7nUhQSFW4Bdj81QSNT1EDeODqOIY7BrgcMaNDCebzVCBnIRg7PVddCxtYDXVj10+gpq3YLsr/AIdh2omp5xnc1GYDKtyqqAo6AKNZtMBERAoZD16WVstzbddeXTrJiWMVhw622PI9JTefKJzeVGEi2kxqiyD492qo4FhTxDBXILKFOclepC6qDyzWvY9Jg8P7XUcWCadRRbdXIRgOtidvGcesa56ayxKYvEKgJPK/9iSvZRi1AuR3ncj1L6I+BmrYKtTxNXzNFhVYasyHOlNfpM49EeCgknpuRvGAoLToIqm6gaHqCSb+28pnGp/y1E61Ocj07yw72npmmBjalkY3tsL9MxC39l7+yWk6qtnGu2bzY1GgYDMeeYqNr7Wv1mHgeJM5cZ2utx6V9TbkSPSGtrjS8VuJBH80pyaEIqgkkKVDFiB1YXJ6zDpm7qNN7E82LMLXPtI907M58Ypb1kJgiWz5iCe7a17aX1tt6I68tplPhUbR/SHS5y+6eqZ30trb1ADae2aU1qki2uFQd0ZfUT/OYxwgQlgSb9ddB834++Zd4fUEf365EtieI+vUD+A5den8pjUajU3zqd+8Pmv425N4jfnynrHE6PzYC/8AM/CQycVLgqabBgWsARfKpAuQ1spJNrfymnJqftHpveDxYdQw5/geYMy1aa12fraun8Lj1m6t/wComwUzOTWfG8aT0zMgdSpFwwII8CLGRZ7N5dabX6BtCPDMv5SSotrJFDpL/HjOuzUVurPTXloVl7yE+qzD/brMiniLbgj13HxEm4tNP/nn8qPOoxa1+6pPqH85l4ajluTubX8LbCZFol8/HM/tF11WIiaqkREChnzJ2+q8R85kx7FsruaZspSzb+acDukAeje4sLi8792w4WuJwdWg9fzCuBepcAKAwPpXIBU2sRcXBnzh2l4PQw7Wp42jiSTqKQew8cxuvuYwPHZXs/Ux2ISgmYBr5qgUutMAEgta1gcttSN59H9l+ymHwKAUkXzhRVqVNc1QqBdjcm1zrYTRfILhEFDEVbem1RUJzA+gq5gMvzdWbU7+ydbgIiICJGcU45hsML169Ont32AOu1l3PsE5j2k8syglcFRzaf8A2VbgA35INSLcyRvtA6xjMZTpIXqOqKupZ2CqPWTOV9sfK7TUGlgRnbY1mHoDX5inVzvqbD1zk/He0OJxjZsRWZ+gJsq791RoNzyvIiBkYzFvWc1Kjl3Y3ZmJLE+JPukp2V7N1sfXFGiNNC7kejTXmzfyHMy92T7JYniFTLRWyAgPUa+RB4nm1tlGvq3n0d2W7OUMDQFGivi7HvO9tWY/AchAt8E4HR4fhTToLYKrMzHvOwXVmPM6ezYTPqU8iIn0VVfsgCXuIdwj6RVftMFPxlrHHaYfNf0tPbDcyO4jsi/Sqe/Kjvb/AGzOeYeJXuNa5R1YDrbQj2gke2c+f9Rp/EZj6q5MpVdLf+RrFgbiyqTooBsPGR+JqXXQ5WvuBtaxVvYRJDiPD0quma4QF3UgsLDKbtpb0gCQD4y1WVQbhbKCQoOtxyzHmZ2Vkz8PWzor2szC7Dxva69RppPV5A8VbEN6GHp3vbKAR6AA6sRppa/TQgzXl7Y4ik5SpRzFbg2PpXHVTM7lMroAMqbcyFHMk206zTsd2uyLdQjG4FgwHXXUeEkvOvVQOrqrWvdmYixv3bDvaaW1GuoveJn7OqVsYlao7IQUT/xgcwVOuYbqxudOmWEW41F/x22MheIcMKkVMO5SoBY37j2+a42/KS/ZSniMWj5qaIyMUb0zuADcrY5dwRqbzXPEM3gujr+8WT8C3/GbNTkNhKAV0sQQodrjUHdAQeYN3sf3ZMUpyfL/AKrTPpk0zrJKid/ZItDrJOlv7P7+Mn4bzSuvS/EROxQiIgIiICIiBEdpeB08bh3w9UsEfKSUIDAqQwIuCNxzE+fONJgnf5Lw3DVa7k2885d2br5pFsAP3mG3Ibz6anO+3fAq1LCtS4ZhUVsQ+XEGmAr5GB2JtoToddAdtbgOW+TztceG13FQE0X9GqECswKZgrqb62JOl7EE+E7IvlL4WRf5SO+E7tQG5+dbLfL+9tOH9rOzQwdSjhA3nMSyq1XL3Q9QgJRQc7AbnfMNtprNRSpKncEg89RoYHeuMeWLCUtKNN65DlW1FNco/wD0VrNmB5DT2TQuMeVjiFYFUZKCkMD5tTmIYm3pNcggWFxbXWc+vKgX0gXcRiHdizszsd2YlmOltSdTLM2TgfYjH4uxpYd8p+e/oJ6wWtf2XnR+z/kYRbPjK5fa9OldV9TOdSPUB64HHcDgqlZxTpIzsdlQFmPsE6r2R8j7sVqY45F38yhux8HYaKPBbnxE65wjguHwqZMPRSmvPKACx6s25PiTJKBjYLB06KLTpoqIosqqAAB4ATJiIGLjBfIOrr+F2/4zHxx1mTiO8n8RP+0/nMLGH0pzfNf2tljES1UWX55dZgus0ApuGF7XLdf416+I8SeemvVuGI1Ra2RbguQbLmzZcgLMNdFJFv3h0E2BkI20tseY8RLFWo4uQL9baBueo9n/AFOjHyz1VblGcWq06Yu3og2AsCdFS5Ol+QYzF/wxHF3RXykkZ9dxYjxF8pI/dnrjGMp1WQPkTJmzKy3LX0uoOg57dZmUMRR0C1ksBpm0KgaWtz/pNexVGUsKoZxZDn765Us19swAjHUjTyqgzHRRbRRZcxJJ22PtlMDRpLiHY1LLZspuhVi752sAc29+8Tbla8z69Sk2jEuxOgU2v4nnv0j9JQ2GzumcA5XCkX66b/jMLFcRbBn0SzPWVkZF0zAAlVHWxO/7x6mbxg6CJSCFmcAlraXJ6Mw2A/sS3VwSVHR3RbpogCjKu+19fnN67mU1vMTIw+Au7Ukd1KO6hmU7oNcq6cgPiTpeTybTyKcuqs5be1Z7pySpnu+78P6SOWZ6nRfWPyl/j/1Ea9MuJSVnazIiICIiAiIgIiIELW7N4VsSuMaiprqLB9elgbXsSBoDa4mnp5JMMExKiq969shKqTQAcPYfSuQAdtBbxnSogcz4f5HMCjK1R61aw9JWYIrHr6ADD1ZvfNw4P2VwWFC+Yw9NGW9nyhqmt7+m12O/WTkQEREBERAREQLFbdfWZHY3vyRq7iRvEQb3E5fl9r5Wrxec57X08e9em1FnCDSyMyhWv3nsbMNuu2283Ph9RygL97nMrGlzyS9SJnkpKBpXPIQtVsKjizKGHiAZHv2dw5N8lv4SR8JK5ovJmrEIlez9AfNJ9bEiZdHh1NO6ij2TKJlM0XWr/RQJParKZpUNKi4J6BloNPQMkXhM9e6PWvxkfTmee77jL49o0ypWInazIiICIiAiIgIiICIiAiIgIiICIiAiIgY9Y7+A/nIbH45R/e0lsSbX9Q+Jmn8Vb0jOX5f9L59Mg4sdRPPysdZC5ozTLiyaONHWU+XCQ2aM0cSmPl8f4hIjNF44Jj5fKfLZECVBkcQmBjZ6GLEh7yoMcSm1xYlxcWJBXnoPHBs2GxKk2ktmDLp0moYN9ZtGEPoeyWzeVGokYlJWdzIiIgIiICIiAiIgIiICIiAiIgIiICIiBE4/FoH82WAZkzqL6sqtZyOtsyX/AIhNV4k2pkr247JjH01K1DSr0SzUaikixYAMrW1sbDUaiw8QeD1e1nEKLtTqVDmQlWWoqFlI0IJte/tmO/jur2LZ1x1GCZy/9vMV0pfZb9Uft5ivo0vsn9Ur+Kp8o6gDK3nLv28xXSl9lv1R+3eK6U/sn9Ufip5R1G8rOWft3iv8v7J/OVHbvF/5f2T+cj8OjyjqgMpecs/bzF/5f2T+cHt5i/8AL+yfzj8Ojyjqt5UGcp/b3F/5f2T+cr+32L6U/sH9Ufh0eUdXBnoTk/7f4vpS+wf1Sv8A8gYzpS+yf1R+HR5Ow4NrGbNQrqqFmIAA3PjoB77D2z55HlAxo2amviEB+N50DyecKxXECmNxteo9Km96NKwVHZbEVSFABCttpuu9t5nw3v7RdOuiViJ0KkREBERAREQEREBERAREQEREBERAREQKGc58rWAomh5w0qZqWtnKrnt0zWvEQNC7D8Oo1FbPRpvoveRW+Im2LwPC/VqH3VP8oiBcHAcJ9VofdU/ynpeA4T6rQ+6p/lEQMhOz+D+q4f7qn+mXU7PYP6ph/uqf6YiB6/Z7B/VMP91T/TLo7OYL6ph/uaX6YiB6HZvBfVMN9zS/TPY7N4L6nhvuaX6YiBcXs3gvqeG+5pfpkZ2g7P4RUYrhcOD4UqY+CxEDWOxfCcO9cB6FJhpoyIRv4idppIFAAAAAWwGgHqERAvREQEREBERAREQP/9k=;" vertex="1" parent="DfZiOr1Gd_-NJ0TTqh6M-1">
                    <mxGeometry x="370.28999999999996" y="840" width="207.42" height="130" as="geometry"/>
                </mxCell>
                <mxCell id="LBshlcq7G2-BEQelQ_nA-4" style="edgeStyle=orthogonalEdgeStyle;rounded=0;orthogonalLoop=1;jettySize=auto;html=1;" edge="1" parent="DfZiOr1Gd_-NJ0TTqh6M-1" target="LBshlcq7G2-BEQelQ_nA-3">
                    <mxGeometry relative="1" as="geometry">
                        <mxPoint x="474.09000000000015" y="1030" as="sourcePoint"/>
                    </mxGeometry>
                </mxCell>
                <mxCell id="LBshlcq7G2-BEQelQ_nA-5" value="SINGLE (LEVEL) INHERITANCE" style="rounded=1;whiteSpace=wrap;html=1;fillColor=#b0e3e6;strokeColor=#0e8088;fontStyle=1;" vertex="1" parent="DfZiOr1Gd_-NJ0TTqh6M-1">
                    <mxGeometry x="330" y="1215" width="230" height="40" as="geometry"/>
                </mxCell>
                <mxCell id="LBshlcq7G2-BEQelQ_nA-6" value="MULTI LEVEL INHERITANCE" style="rounded=1;whiteSpace=wrap;html=1;fillColor=#b0e3e6;strokeColor=#0e8088;fontStyle=1;" vertex="1" parent="DfZiOr1Gd_-NJ0TTqh6M-1">
                    <mxGeometry x="583.71" y="1430" width="230" height="40" as="geometry"/>
                </mxCell>
                <mxCell id="LBshlcq7G2-BEQelQ_nA-7" value="Telephone" style="rounded=1;whiteSpace=wrap;html=1;fillColor=#fad9d5;strokeColor=#ae4132;fontStyle=1;verticalAlign=middle;" vertex="1" parent="DfZiOr1Gd_-NJ0TTqh6M-1">
                    <mxGeometry x="860" y="910" width="130" height="40" as="geometry"/>
                </mxCell>
                <mxCell id="LBshlcq7G2-BEQelQ_nA-8" value="MusicPlayer" style="rounded=1;whiteSpace=wrap;html=1;fillColor=#fad9d5;strokeColor=#ae4132;fontStyle=1;verticalAlign=middle;" vertex="1" parent="DfZiOr1Gd_-NJ0TTqh6M-1">
                    <mxGeometry x="1040" y="910" width="130" height="40" as="geometry"/>
                </mxCell>
                <mxCell id="LBshlcq7G2-BEQelQ_nA-10" style="edgeStyle=orthogonalEdgeStyle;rounded=0;orthogonalLoop=1;jettySize=auto;html=1;entryX=0.5;entryY=1;entryDx=0;entryDy=0;" edge="1" parent="DfZiOr1Gd_-NJ0TTqh6M-1" source="LBshlcq7G2-BEQelQ_nA-9" target="LBshlcq7G2-BEQelQ_nA-7">
                    <mxGeometry relative="1" as="geometry"/>
                </mxCell>
                <mxCell id="LBshlcq7G2-BEQelQ_nA-11" style="edgeStyle=orthogonalEdgeStyle;rounded=0;orthogonalLoop=1;jettySize=auto;html=1;entryX=0.5;entryY=1;entryDx=0;entryDy=0;" edge="1" parent="DfZiOr1Gd_-NJ0TTqh6M-1" source="LBshlcq7G2-BEQelQ_nA-9" target="LBshlcq7G2-BEQelQ_nA-8">
                    <mxGeometry relative="1" as="geometry"/>
                </mxCell>
                <mxCell id="LBshlcq7G2-BEQelQ_nA-9" value="SMART PHONE" style="rounded=1;whiteSpace=wrap;html=1;fillColor=#fad9d5;strokeColor=#ae4132;fontStyle=1;verticalAlign=middle;" vertex="1" parent="DfZiOr1Gd_-NJ0TTqh6M-1">
                    <mxGeometry x="950" y="1035.32" width="130" height="40" as="geometry"/>
                </mxCell>
                <mxCell id="LBshlcq7G2-BEQelQ_nA-12" value="MULTIPLE INHERITANCE" style="rounded=1;whiteSpace=wrap;html=1;fillColor=#e51400;strokeColor=#B20000;fontStyle=1;fontColor=#ffffff;" vertex="1" parent="DfZiOr1Gd_-NJ0TTqh6M-1">
                    <mxGeometry x="890" y="1100" width="230" height="40" as="geometry"/>
                </mxCell>
                <mxCell id="LBshlcq7G2-BEQelQ_nA-13" value="Telephone" style="rounded=1;whiteSpace=wrap;html=1;fillColor=#fad9d5;strokeColor=#ae4132;fontStyle=1;verticalAlign=middle;" vertex="1" parent="DfZiOr1Gd_-NJ0TTqh6M-1">
                    <mxGeometry x="960" y="1215" width="130" height="40" as="geometry"/>
                </mxCell>
                <mxCell id="LBshlcq7G2-BEQelQ_nA-18" value="HIERARCHICAL INHERITANCE" style="rounded=1;whiteSpace=wrap;html=1;fillColor=#b0e3e6;strokeColor=#0e8088;fontStyle=1;" vertex="1" parent="DfZiOr1Gd_-NJ0TTqh6M-1">
                    <mxGeometry x="890" y="1405" width="230" height="40" as="geometry"/>
                </mxCell>
                <mxCell id="LBshlcq7G2-BEQelQ_nA-21" style="edgeStyle=orthogonalEdgeStyle;rounded=0;orthogonalLoop=1;jettySize=auto;html=1;entryX=0.397;entryY=0.99;entryDx=0;entryDy=0;entryPerimeter=0;" edge="1" parent="DfZiOr1Gd_-NJ0TTqh6M-1" source="LBshlcq7G2-BEQelQ_nA-19" target="LBshlcq7G2-BEQelQ_nA-13">
                    <mxGeometry relative="1" as="geometry"/>
                </mxCell>
                <mxCell id="LBshlcq7G2-BEQelQ_nA-19" value="PHONE 3G&lt;span style=&quot;white-space: pre&quot;&gt;&#9;&lt;/span&gt;" style="rounded=1;whiteSpace=wrap;html=1;fillColor=#fad9d5;strokeColor=#ae4132;fontStyle=1;verticalAlign=middle;" vertex="1" parent="DfZiOr1Gd_-NJ0TTqh6M-1">
                    <mxGeometry x="870" y="1320" width="130" height="40" as="geometry"/>
                </mxCell>
                <mxCell id="LBshlcq7G2-BEQelQ_nA-22" style="edgeStyle=orthogonalEdgeStyle;rounded=0;orthogonalLoop=1;jettySize=auto;html=1;entryX=0.385;entryY=0.875;entryDx=0;entryDy=0;entryPerimeter=0;" edge="1" parent="DfZiOr1Gd_-NJ0TTqh6M-1" source="LBshlcq7G2-BEQelQ_nA-20" target="LBshlcq7G2-BEQelQ_nA-13">
                    <mxGeometry relative="1" as="geometry"/>
                </mxCell>
                <mxCell id="LBshlcq7G2-BEQelQ_nA-20" value="PHONE 4G" style="rounded=1;whiteSpace=wrap;html=1;fillColor=#fad9d5;strokeColor=#ae4132;fontStyle=1;verticalAlign=middle;" vertex="1" parent="DfZiOr1Gd_-NJ0TTqh6M-1">
                    <mxGeometry x="1040" y="1324.68" width="130" height="40" as="geometry"/>
                </mxCell>
                <mxCell id="LBshlcq7G2-BEQelQ_nA-36" value="" style="edgeStyle=orthogonalEdgeStyle;rounded=0;orthogonalLoop=1;jettySize=auto;html=1;" edge="1" parent="DfZiOr1Gd_-NJ0TTqh6M-1" source="LBshlcq7G2-BEQelQ_nA-29" target="LBshlcq7G2-BEQelQ_nA-35">
                    <mxGeometry relative="1" as="geometry"/>
                </mxCell>
                <mxCell id="LBshlcq7G2-BEQelQ_nA-29" value="SMARTPHONE" style="rounded=1;whiteSpace=wrap;html=1;fillColor=#fad9d5;strokeColor=#ae4132;fontStyle=1;verticalAlign=middle;" vertex="1" parent="DfZiOr1Gd_-NJ0TTqh6M-1">
                    <mxGeometry x="1310" y="1060" width="130" height="40" as="geometry"/>
                </mxCell>
                <mxCell id="LBshlcq7G2-BEQelQ_nA-30" value="HYBRID INHERITANCE" style="rounded=1;whiteSpace=wrap;html=1;fillColor=#b0e3e6;strokeColor=#0e8088;fontStyle=1;" vertex="1" parent="DfZiOr1Gd_-NJ0TTqh6M-1">
                    <mxGeometry x="1240" y="1250" width="230" height="40" as="geometry"/>
                </mxCell>
                <mxCell id="LBshlcq7G2-BEQelQ_nA-31" style="edgeStyle=orthogonalEdgeStyle;rounded=0;orthogonalLoop=1;jettySize=auto;html=1;entryX=0.397;entryY=0.99;entryDx=0;entryDy=0;entryPerimeter=0;" edge="1" parent="DfZiOr1Gd_-NJ0TTqh6M-1" source="LBshlcq7G2-BEQelQ_nA-32" target="LBshlcq7G2-BEQelQ_nA-29">
                    <mxGeometry relative="1" as="geometry"/>
                </mxCell>
                <mxCell id="LBshlcq7G2-BEQelQ_nA-32" value="PHONE 3G&lt;span style=&quot;white-space: pre&quot;&gt;&#9;&lt;/span&gt;" style="rounded=1;whiteSpace=wrap;html=1;fillColor=#fad9d5;strokeColor=#ae4132;fontStyle=1;verticalAlign=middle;" vertex="1" parent="DfZiOr1Gd_-NJ0TTqh6M-1">
                    <mxGeometry x="1220" y="1169.68" width="130" height="40" as="geometry"/>
                </mxCell>
                <mxCell id="LBshlcq7G2-BEQelQ_nA-33" style="edgeStyle=orthogonalEdgeStyle;rounded=0;orthogonalLoop=1;jettySize=auto;html=1;entryX=0.385;entryY=0.875;entryDx=0;entryDy=0;entryPerimeter=0;" edge="1" parent="DfZiOr1Gd_-NJ0TTqh6M-1" source="LBshlcq7G2-BEQelQ_nA-34" target="LBshlcq7G2-BEQelQ_nA-29">
                    <mxGeometry relative="1" as="geometry"/>
                </mxCell>
                <mxCell id="LBshlcq7G2-BEQelQ_nA-34" value="PHONE 4G" style="rounded=1;whiteSpace=wrap;html=1;fillColor=#fad9d5;strokeColor=#ae4132;fontStyle=1;verticalAlign=middle;" vertex="1" parent="DfZiOr1Gd_-NJ0TTqh6M-1">
                    <mxGeometry x="1390" y="1169.68" width="130" height="40" as="geometry"/>
                </mxCell>
                <mxCell id="LBshlcq7G2-BEQelQ_nA-35" value="TELEPHONE" style="rounded=1;whiteSpace=wrap;html=1;fillColor=#fad9d5;strokeColor=#ae4132;fontStyle=1;verticalAlign=middle;" vertex="1" parent="DfZiOr1Gd_-NJ0TTqh6M-1">
                    <mxGeometry x="1310" y="940" width="130" height="40" as="geometry"/>
                </mxCell>
                <mxCell id="LBshlcq7G2-BEQelQ_nA-37" value="java.lang.Object" style="rounded=1;whiteSpace=wrap;html=1;fillColor=#fad9d5;strokeColor=#ae4132;fontStyle=1;verticalAlign=middle;" vertex="1" parent="DfZiOr1Gd_-NJ0TTqh6M-1">
                    <mxGeometry x="200" y="1500" width="130" height="40" as="geometry"/>
                </mxCell>
                <mxCell id="LBshlcq7G2-BEQelQ_nA-38" value="java.lang.Object" style="rounded=1;whiteSpace=wrap;html=1;fillColor=#fad9d5;strokeColor=#ae4132;fontStyle=1;verticalAlign=middle;" vertex="1" parent="DfZiOr1Gd_-NJ0TTqh6M-1">
                    <mxGeometry x="370.28999999999996" y="1500" width="130" height="40" as="geometry"/>
                </mxCell>
                <mxCell id="LBshlcq7G2-BEQelQ_nA-40" style="edgeStyle=orthogonalEdgeStyle;rounded=0;orthogonalLoop=1;jettySize=auto;html=1;entryX=0.5;entryY=1;entryDx=0;entryDy=0;" edge="1" parent="DfZiOr1Gd_-NJ0TTqh6M-1" source="LBshlcq7G2-BEQelQ_nA-39" target="LBshlcq7G2-BEQelQ_nA-38">
                    <mxGeometry relative="1" as="geometry"/>
                </mxCell>
                <mxCell id="LBshlcq7G2-BEQelQ_nA-39" value="java.lang.Throwable" style="rounded=1;whiteSpace=wrap;html=1;fillColor=#fad9d5;strokeColor=#ae4132;fontStyle=1;verticalAlign=middle;" vertex="1" parent="DfZiOr1Gd_-NJ0TTqh6M-1">
                    <mxGeometry x="369.99999999999994" y="1600" width="130" height="40" as="geometry"/>
                </mxCell>
                <mxCell id="LBshlcq7G2-BEQelQ_nA-41" value="java.lang.Object" style="rounded=1;whiteSpace=wrap;html=1;fillColor=#fad9d5;strokeColor=#ae4132;fontStyle=1;verticalAlign=middle;" vertex="1" parent="DfZiOr1Gd_-NJ0TTqh6M-1">
                    <mxGeometry x="779.15" y="1500" width="130" height="40" as="geometry"/>
                </mxCell>
                <mxCell id="LBshlcq7G2-BEQelQ_nA-42" style="edgeStyle=orthogonalEdgeStyle;rounded=0;orthogonalLoop=1;jettySize=auto;html=1;entryX=0.5;entryY=1;entryDx=0;entryDy=0;" edge="1" parent="DfZiOr1Gd_-NJ0TTqh6M-1" source="LBshlcq7G2-BEQelQ_nA-43" target="LBshlcq7G2-BEQelQ_nA-41">
                    <mxGeometry relative="1" as="geometry"/>
                </mxCell>
                <mxCell id="LBshlcq7G2-BEQelQ_nA-43" value="java.lang.Number" style="rounded=1;whiteSpace=wrap;html=1;fillColor=#fad9d5;strokeColor=#ae4132;fontStyle=1;verticalAlign=middle;" vertex="1" parent="DfZiOr1Gd_-NJ0TTqh6M-1">
                    <mxGeometry x="778.8599999999999" y="1600" width="130" height="40" as="geometry"/>
                </mxCell>
                <mxCell id="LBshlcq7G2-BEQelQ_nA-46" style="edgeStyle=orthogonalEdgeStyle;rounded=0;orthogonalLoop=1;jettySize=auto;html=1;entryX=0.5;entryY=1;entryDx=0;entryDy=0;" edge="1" parent="DfZiOr1Gd_-NJ0TTqh6M-1" source="LBshlcq7G2-BEQelQ_nA-44" target="LBshlcq7G2-BEQelQ_nA-43">
                    <mxGeometry relative="1" as="geometry"/>
                </mxCell>
                <mxCell id="LBshlcq7G2-BEQelQ_nA-44" value="java.lang.Integer" style="rounded=1;whiteSpace=wrap;html=1;fillColor=#fad9d5;strokeColor=#ae4132;fontStyle=1;verticalAlign=middle;" vertex="1" parent="DfZiOr1Gd_-NJ0TTqh6M-1">
                    <mxGeometry x="659.9999999999999" y="1710" width="130" height="40" as="geometry"/>
                </mxCell>
                <mxCell id="LBshlcq7G2-BEQelQ_nA-47" style="edgeStyle=orthogonalEdgeStyle;rounded=0;orthogonalLoop=1;jettySize=auto;html=1;entryX=0.5;entryY=1;entryDx=0;entryDy=0;" edge="1" parent="DfZiOr1Gd_-NJ0TTqh6M-1" source="LBshlcq7G2-BEQelQ_nA-45" target="LBshlcq7G2-BEQelQ_nA-43">
                    <mxGeometry relative="1" as="geometry"/>
                </mxCell>
                <mxCell id="LBshlcq7G2-BEQelQ_nA-45" value="java.lang.Float" style="rounded=1;whiteSpace=wrap;html=1;fillColor=#fad9d5;strokeColor=#ae4132;fontStyle=1;verticalAlign=middle;" vertex="1" parent="DfZiOr1Gd_-NJ0TTqh6M-1">
                    <mxGeometry x="869.9999999999999" y="1710" width="130" height="40" as="geometry"/>
                </mxCell>
                <mxCell id="LBshlcq7G2-BEQelQ_nA-50" value="" style="edgeStyle=orthogonalEdgeStyle;rounded=0;orthogonalLoop=1;jettySize=auto;html=1;" edge="1" parent="DfZiOr1Gd_-NJ0TTqh6M-1" source="LBshlcq7G2-BEQelQ_nA-48" target="LBshlcq7G2-BEQelQ_nA-49">
                    <mxGeometry relative="1" as="geometry"/>
                </mxCell>
                <mxCell id="LBshlcq7G2-BEQelQ_nA-52" value="" style="edgeStyle=orthogonalEdgeStyle;rounded=0;orthogonalLoop=1;jettySize=auto;html=1;" edge="1" parent="DfZiOr1Gd_-NJ0TTqh6M-1" source="LBshlcq7G2-BEQelQ_nA-48" target="LBshlcq7G2-BEQelQ_nA-51">
                    <mxGeometry relative="1" as="geometry"/>
                </mxCell>
                <mxCell id="LBshlcq7G2-BEQelQ_nA-60" value="" style="edgeStyle=orthogonalEdgeStyle;rounded=0;orthogonalLoop=1;jettySize=auto;html=1;" edge="1" parent="DfZiOr1Gd_-NJ0TTqh6M-1" source="LBshlcq7G2-BEQelQ_nA-48" target="LBshlcq7G2-BEQelQ_nA-59">
                    <mxGeometry relative="1" as="geometry"/>
                </mxCell>
                <mxCell id="LBshlcq7G2-BEQelQ_nA-48" value="class A" style="rounded=1;whiteSpace=wrap;html=1;fillColor=#fad9d5;strokeColor=#ae4132;fontStyle=1;verticalAlign=middle;" vertex="1" parent="DfZiOr1Gd_-NJ0TTqh6M-1">
                    <mxGeometry x="274.15" y="1780" width="130" height="40" as="geometry"/>
                </mxCell>
                <mxCell id="LBshlcq7G2-BEQelQ_nA-49" value="class B2" style="rounded=1;whiteSpace=wrap;html=1;fillColor=#fad9d5;strokeColor=#ae4132;fontStyle=1;verticalAlign=middle;" vertex="1" parent="DfZiOr1Gd_-NJ0TTqh6M-1">
                    <mxGeometry x="149.99999999999997" y="1870" width="130" height="40" as="geometry"/>
                </mxCell>
                <mxCell id="LBshlcq7G2-BEQelQ_nA-51" value="class B3" style="rounded=1;whiteSpace=wrap;html=1;fillColor=#fad9d5;strokeColor=#ae4132;fontStyle=1;verticalAlign=middle;" vertex="1" parent="DfZiOr1Gd_-NJ0TTqh6M-1">
                    <mxGeometry x="390" y="1870" width="130" height="40" as="geometry"/>
                </mxCell>
                <mxCell id="LBshlcq7G2-BEQelQ_nA-54" style="edgeStyle=orthogonalEdgeStyle;rounded=0;orthogonalLoop=1;jettySize=auto;html=1;" edge="1" parent="DfZiOr1Gd_-NJ0TTqh6M-1" source="LBshlcq7G2-BEQelQ_nA-53" target="LBshlcq7G2-BEQelQ_nA-49">
                    <mxGeometry relative="1" as="geometry"/>
                </mxCell>
                <mxCell id="LBshlcq7G2-BEQelQ_nA-55" style="edgeStyle=orthogonalEdgeStyle;rounded=0;orthogonalLoop=1;jettySize=auto;html=1;" edge="1" parent="DfZiOr1Gd_-NJ0TTqh6M-1" source="LBshlcq7G2-BEQelQ_nA-53" target="LBshlcq7G2-BEQelQ_nA-51">
                    <mxGeometry relative="1" as="geometry"/>
                </mxCell>
                <mxCell id="LBshlcq7G2-BEQelQ_nA-53" value="class D" style="rounded=1;whiteSpace=wrap;html=1;fillColor=#fad9d5;strokeColor=#ae4132;fontStyle=1;verticalAlign=middle;" vertex="1" parent="DfZiOr1Gd_-NJ0TTqh6M-1">
                    <mxGeometry x="259.99999999999994" y="2010" width="130" height="40" as="geometry"/>
                </mxCell>
                <mxCell id="LBshlcq7G2-BEQelQ_nA-56" value="mA()" style="rounded=1;whiteSpace=wrap;html=1;fillColor=#b0e3e6;strokeColor=#0e8088;fontStyle=1;verticalAlign=middle;" vertex="1" parent="DfZiOr1Gd_-NJ0TTqh6M-1">
                    <mxGeometry x="440" y="2140" width="130" height="20" as="geometry"/>
                </mxCell>
                <mxCell id="LBshlcq7G2-BEQelQ_nA-57" value="m()" style="rounded=1;whiteSpace=wrap;html=1;fillColor=#b0e3e6;strokeColor=#0e8088;fontStyle=1;verticalAlign=middle;" vertex="1" parent="DfZiOr1Gd_-NJ0TTqh6M-1">
                    <mxGeometry y="1930" width="130" height="20" as="geometry"/>
                </mxCell>
                <mxCell id="LBshlcq7G2-BEQelQ_nA-58" value="m()" style="rounded=1;whiteSpace=wrap;html=1;fillColor=#b0e3e6;strokeColor=#0e8088;fontStyle=1;verticalAlign=middle;" vertex="1" parent="DfZiOr1Gd_-NJ0TTqh6M-1">
                    <mxGeometry x="440" y="2020" width="130" height="20" as="geometry"/>
                </mxCell>
                <mxCell id="LBshlcq7G2-BEQelQ_nA-59" value="class B1" style="rounded=1;whiteSpace=wrap;html=1;fillColor=#fad9d5;strokeColor=#ae4132;fontStyle=1;verticalAlign=middle;" vertex="1" parent="DfZiOr1Gd_-NJ0TTqh6M-1">
                    <mxGeometry x="-50" y="1870" width="130" height="40" as="geometry"/>
                </mxCell>
                <mxCell id="LBshlcq7G2-BEQelQ_nA-61" value="m()" style="rounded=1;whiteSpace=wrap;html=1;fillColor=#b0e3e6;strokeColor=#0e8088;fontStyle=1;verticalAlign=middle;" vertex="1" parent="DfZiOr1Gd_-NJ0TTqh6M-1">
                    <mxGeometry x="250" y="1920" width="130" height="20" as="geometry"/>
                </mxCell>
                <mxCell id="LBshlcq7G2-BEQelQ_nA-62" value="m()" style="rounded=1;whiteSpace=wrap;html=1;fillColor=#b0e3e6;strokeColor=#0e8088;fontStyle=1;verticalAlign=middle;" vertex="1" parent="DfZiOr1Gd_-NJ0TTqh6M-1">
                    <mxGeometry x="560" y="1900" width="130" height="20" as="geometry"/>
                </mxCell>
                <mxCell id="LBshlcq7G2-BEQelQ_nA-63" value="" style="rhombus;whiteSpace=wrap;html=1;rounded=1;fontStyle=1;strokeColor=#ae4132;fillColor=#fad9d5;" vertex="1" parent="DfZiOr1Gd_-NJ0TTqh6M-1">
                    <mxGeometry x="300" y="2180" width="80" height="80" as="geometry"/>
                </mxCell>
                <mxCell id="LBshlcq7G2-BEQelQ_nA-65" value="class A" style="rounded=1;whiteSpace=wrap;html=1;fillColor=#fad9d5;strokeColor=#ae4132;fontStyle=1;verticalAlign=middle;" vertex="1" parent="DfZiOr1Gd_-NJ0TTqh6M-1">
                    <mxGeometry x="274.15" y="2130" width="130" height="40" as="geometry"/>
                </mxCell>
                <mxCell id="LBshlcq7G2-BEQelQ_nA-66" value="class B2" style="rounded=1;whiteSpace=wrap;html=1;fillColor=#fad9d5;strokeColor=#ae4132;fontStyle=1;verticalAlign=middle;" vertex="1" parent="DfZiOr1Gd_-NJ0TTqh6M-1">
                    <mxGeometry x="144.14999999999998" y="2200" width="130" height="40" as="geometry"/>
                </mxCell>
                <mxCell id="LBshlcq7G2-BEQelQ_nA-67" value="class B3" style="rounded=1;whiteSpace=wrap;html=1;fillColor=#fad9d5;strokeColor=#ae4132;fontStyle=1;verticalAlign=middle;" vertex="1" parent="DfZiOr1Gd_-NJ0TTqh6M-1">
                    <mxGeometry x="409" y="2200" width="130" height="40" as="geometry"/>
                </mxCell>
                <mxCell id="LBshlcq7G2-BEQelQ_nA-68" value="class D" style="rounded=1;whiteSpace=wrap;html=1;fillColor=#fad9d5;strokeColor=#ae4132;fontStyle=1;verticalAlign=middle;" vertex="1" parent="DfZiOr1Gd_-NJ0TTqh6M-1">
                    <mxGeometry x="274.1499999999999" y="2270" width="130" height="40" as="geometry"/>
                </mxCell>
                <mxCell id="LBshlcq7G2-BEQelQ_nA-69" value="mA()" style="rounded=1;whiteSpace=wrap;html=1;fillColor=#b0e3e6;strokeColor=#0e8088;fontStyle=1;verticalAlign=middle;" vertex="1" parent="DfZiOr1Gd_-NJ0TTqh6M-1">
                    <mxGeometry x="-20" y="2210" width="130" height="20" as="geometry"/>
                </mxCell>
                <mxCell id="LBshlcq7G2-BEQelQ_nA-70" value="mA()" style="rounded=1;whiteSpace=wrap;html=1;fillColor=#b0e3e6;strokeColor=#0e8088;fontStyle=1;verticalAlign=middle;" vertex="1" parent="DfZiOr1Gd_-NJ0TTqh6M-1">
                    <mxGeometry x="760" y="2280" width="130" height="20" as="geometry"/>
                </mxCell>
                <mxCell id="LBshlcq7G2-BEQelQ_nA-71" value="mA()" style="rounded=1;whiteSpace=wrap;html=1;fillColor=#b0e3e6;strokeColor=#0e8088;fontStyle=1;verticalAlign=middle;" vertex="1" parent="DfZiOr1Gd_-NJ0TTqh6M-1">
                    <mxGeometry x="660" y="2230" width="130" height="20" as="geometry"/>
                </mxCell>
                <mxCell id="LBshlcq7G2-BEQelQ_nA-72" value="mA()" style="rounded=1;whiteSpace=wrap;html=1;fillColor=#b0e3e6;strokeColor=#0e8088;fontStyle=1;verticalAlign=middle;" vertex="1" parent="DfZiOr1Gd_-NJ0TTqh6M-1">
                    <mxGeometry x="577.71" y="2280" width="130" height="20" as="geometry"/>
                </mxCell>
                <mxCell id="LBshlcq7G2-BEQelQ_nA-73" value="mA()" style="rounded=1;whiteSpace=wrap;html=1;fillColor=#b0e3e6;strokeColor=#0e8088;fontStyle=1;verticalAlign=middle;" vertex="1" parent="DfZiOr1Gd_-NJ0TTqh6M-1">
                    <mxGeometry x="274.15" y="2340" width="130" height="20" as="geometry"/>
                </mxCell>
                <mxCell id="LBshlcq7G2-BEQelQ_nA-75" value="mA()" style="rounded=1;whiteSpace=wrap;html=1;fillColor=#b0e3e6;strokeColor=#0e8088;fontStyle=1;verticalAlign=middle;" vertex="1" parent="DfZiOr1Gd_-NJ0TTqh6M-1">
                    <mxGeometry x="660" y="2330" width="130" height="20" as="geometry"/>
                </mxCell>
                <mxCell id="LBshlcq7G2-BEQelQ_nA-77" value="" style="rhombus;whiteSpace=wrap;html=1;rounded=1;fontStyle=1;strokeColor=#ae4132;fillColor=#fad9d5;" vertex="1" parent="DfZiOr1Gd_-NJ0TTqh6M-1">
                    <mxGeometry x="690" y="2250" width="80" height="80" as="geometry"/>
                </mxCell>
            </root>
        </mxGraphModel>
    </diagram>
    <diagram id="fch5mMDt3K_G43iBSskp" name="exception handling">
        <mxGraphModel dx="1874" dy="600" grid="1" gridSize="10" guides="1" tooltips="1" connect="1" arrows="1" fold="1" page="1" pageScale="1" pageWidth="850" pageHeight="1100" math="0" shadow="0">
            <root>
                <mxCell id="yyIly0KIowWvOVNxReJx-0"/>
                <mxCell id="yyIly0KIowWvOVNxReJx-1" parent="yyIly0KIowWvOVNxReJx-0"/>
                <mxCell id="yyIly0KIowWvOVNxReJx-5" value="" style="edgeStyle=orthogonalEdgeStyle;rounded=0;orthogonalLoop=1;jettySize=auto;html=1;" parent="yyIly0KIowWvOVNxReJx-1" source="yyIly0KIowWvOVNxReJx-2" target="yyIly0KIowWvOVNxReJx-4" edge="1">
                    <mxGeometry relative="1" as="geometry"/>
                </mxCell>
                <mxCell id="yyIly0KIowWvOVNxReJx-2" value="Adding 2 numbers" style="rounded=1;whiteSpace=wrap;html=1;fillColor=#76608a;strokeColor=#432D57;fontColor=#ffffff;" parent="yyIly0KIowWvOVNxReJx-1" vertex="1">
                    <mxGeometry x="40" y="30" width="240" height="60" as="geometry"/>
                </mxCell>
                <mxCell id="yyIly0KIowWvOVNxReJx-7" value="" style="edgeStyle=orthogonalEdgeStyle;rounded=0;orthogonalLoop=1;jettySize=auto;html=1;" parent="yyIly0KIowWvOVNxReJx-1" source="yyIly0KIowWvOVNxReJx-4" target="yyIly0KIowWvOVNxReJx-6" edge="1">
                    <mxGeometry relative="1" as="geometry"/>
                </mxCell>
                <mxCell id="yyIly0KIowWvOVNxReJx-4" value="accept num1 [string], num2&amp;nbsp;" style="rounded=1;whiteSpace=wrap;html=1;fillColor=#76608a;strokeColor=#432D57;fontColor=#ffffff;" parent="yyIly0KIowWvOVNxReJx-1" vertex="1">
                    <mxGeometry x="185" y="140" width="240" height="60" as="geometry"/>
                </mxCell>
                <mxCell id="yyIly0KIowWvOVNxReJx-10" value="" style="edgeStyle=orthogonalEdgeStyle;rounded=0;orthogonalLoop=1;jettySize=auto;html=1;" parent="yyIly0KIowWvOVNxReJx-1" source="yyIly0KIowWvOVNxReJx-6" target="yyIly0KIowWvOVNxReJx-9" edge="1">
                    <mxGeometry relative="1" as="geometry"/>
                </mxCell>
                <mxCell id="yyIly0KIowWvOVNxReJx-6" value="handle exception" style="rounded=1;whiteSpace=wrap;html=1;fillColor=#dae8fc;strokeColor=#6c8ebf;" parent="yyIly0KIowWvOVNxReJx-1" vertex="1">
                    <mxGeometry x="480" y="230" width="240" height="60" as="geometry"/>
                </mxCell>
                <mxCell id="yyIly0KIowWvOVNxReJx-8" value="Adding 2 numbers, 1st number is wrong format, accept the 1st number" style="rounded=1;whiteSpace=wrap;html=1;fillColor=#fad9d5;strokeColor=#ae4132;fontStyle=1;verticalAlign=middle;" parent="yyIly0KIowWvOVNxReJx-1" vertex="1">
                    <mxGeometry x="380" y="30" width="380" height="40" as="geometry"/>
                </mxCell>
                <mxCell id="yyIly0KIowWvOVNxReJx-12" style="edgeStyle=orthogonalEdgeStyle;rounded=0;orthogonalLoop=1;jettySize=auto;html=1;entryX=1;entryY=0.5;entryDx=0;entryDy=0;" parent="yyIly0KIowWvOVNxReJx-1" source="yyIly0KIowWvOVNxReJx-9" target="yyIly0KIowWvOVNxReJx-11" edge="1">
                    <mxGeometry relative="1" as="geometry">
                        <Array as="points">
                            <mxPoint x="770" y="360"/>
                            <mxPoint x="770" y="170"/>
                        </Array>
                    </mxGeometry>
                </mxCell>
                <mxCell id="yyIly0KIowWvOVNxReJx-9" value="accept num2" style="rounded=1;whiteSpace=wrap;html=1;fillColor=#6d8764;strokeColor=#3A5431;fontColor=#ffffff;" parent="yyIly0KIowWvOVNxReJx-1" vertex="1">
                    <mxGeometry x="480" y="330" width="240" height="60" as="geometry"/>
                </mxCell>
                <mxCell id="yyIly0KIowWvOVNxReJx-11" value="sum num1 + num2" style="rounded=1;whiteSpace=wrap;html=1;fillColor=#76608a;strokeColor=#432D57;fontColor=#ffffff;" parent="yyIly0KIowWvOVNxReJx-1" vertex="1">
                    <mxGeometry x="480" y="140" width="240" height="60" as="geometry"/>
                </mxCell>
                <mxCell id="yyIly0KIowWvOVNxReJx-15" value="" style="edgeStyle=orthogonalEdgeStyle;rounded=0;orthogonalLoop=1;jettySize=auto;html=1;" parent="yyIly0KIowWvOVNxReJx-1" source="yyIly0KIowWvOVNxReJx-13" target="yyIly0KIowWvOVNxReJx-14" edge="1">
                    <mxGeometry relative="1" as="geometry"/>
                </mxCell>
                <mxCell id="yyIly0KIowWvOVNxReJx-17" value="" style="edgeStyle=orthogonalEdgeStyle;rounded=0;orthogonalLoop=1;jettySize=auto;html=1;" parent="yyIly0KIowWvOVNxReJx-1" source="yyIly0KIowWvOVNxReJx-13" target="yyIly0KIowWvOVNxReJx-16" edge="1">
                    <mxGeometry relative="1" as="geometry"/>
                </mxCell>
                <mxCell id="yyIly0KIowWvOVNxReJx-13" value="exception" style="rounded=1;whiteSpace=wrap;html=1;fillColor=#6d8764;strokeColor=#3A5431;verticalAlign=middle;align=center;fontStyle=1;fontColor=#ffffff;" parent="yyIly0KIowWvOVNxReJx-1" vertex="1">
                    <mxGeometry x="60" y="320" width="100" height="50" as="geometry"/>
                </mxCell>
                <mxCell id="yyIly0KIowWvOVNxReJx-21" value="" style="edgeStyle=orthogonalEdgeStyle;rounded=0;orthogonalLoop=1;jettySize=auto;html=1;" parent="yyIly0KIowWvOVNxReJx-1" source="yyIly0KIowWvOVNxReJx-14" target="yyIly0KIowWvOVNxReJx-20" edge="1">
                    <mxGeometry relative="1" as="geometry"/>
                </mxCell>
                <mxCell id="yyIly0KIowWvOVNxReJx-23" value="" style="edgeStyle=orthogonalEdgeStyle;rounded=0;orthogonalLoop=1;jettySize=auto;html=1;" parent="yyIly0KIowWvOVNxReJx-1" source="yyIly0KIowWvOVNxReJx-14" target="yyIly0KIowWvOVNxReJx-22" edge="1">
                    <mxGeometry relative="1" as="geometry"/>
                </mxCell>
                <mxCell id="yyIly0KIowWvOVNxReJx-14" value="handle" style="rounded=1;whiteSpace=wrap;html=1;fillColor=#6d8764;strokeColor=#3A5431;verticalAlign=middle;align=center;fontStyle=1;fontColor=#ffffff;" parent="yyIly0KIowWvOVNxReJx-1" vertex="1">
                    <mxGeometry x="-60" y="420" width="100" height="50" as="geometry"/>
                </mxCell>
                <mxCell id="yyIly0KIowWvOVNxReJx-19" value="" style="edgeStyle=orthogonalEdgeStyle;rounded=0;orthogonalLoop=1;jettySize=auto;html=1;" parent="yyIly0KIowWvOVNxReJx-1" source="yyIly0KIowWvOVNxReJx-16" target="yyIly0KIowWvOVNxReJx-18" edge="1">
                    <mxGeometry relative="1" as="geometry"/>
                </mxCell>
                <mxCell id="yyIly0KIowWvOVNxReJx-16" value="unhandled" style="whiteSpace=wrap;html=1;rounded=1;fontStyle=1;strokeColor=#3A5431;fillColor=#6d8764;fontColor=#ffffff;" parent="yyIly0KIowWvOVNxReJx-1" vertex="1">
                    <mxGeometry x="190" y="410" width="120" height="60" as="geometry"/>
                </mxCell>
                <mxCell id="yyIly0KIowWvOVNxReJx-18" value="abruptly halt" style="whiteSpace=wrap;html=1;rounded=1;fontStyle=1;strokeColor=#B20000;fillColor=#e51400;fontColor=#ffffff;" parent="yyIly0KIowWvOVNxReJx-1" vertex="1">
                    <mxGeometry x="390" y="410" width="120" height="60" as="geometry"/>
                </mxCell>
                <mxCell id="yyIly0KIowWvOVNxReJx-25" value="" style="edgeStyle=orthogonalEdgeStyle;rounded=0;orthogonalLoop=1;jettySize=auto;html=1;" parent="yyIly0KIowWvOVNxReJx-1" source="yyIly0KIowWvOVNxReJx-20" target="yyIly0KIowWvOVNxReJx-24" edge="1">
                    <mxGeometry relative="1" as="geometry"/>
                </mxCell>
                <mxCell id="yyIly0KIowWvOVNxReJx-20" value="print theexception" style="rounded=1;whiteSpace=wrap;html=1;fillColor=#e6d0de;strokeColor=#996185;verticalAlign=middle;align=center;fontStyle=1;gradientColor=#d5739d;" parent="yyIly0KIowWvOVNxReJx-1" vertex="1">
                    <mxGeometry x="-200" y="520" width="100" height="50" as="geometry"/>
                </mxCell>
                <mxCell id="yyIly0KIowWvOVNxReJx-22" value="continue the regular flow" style="rounded=1;whiteSpace=wrap;html=1;fillColor=#e6d0de;strokeColor=#996185;verticalAlign=middle;align=center;fontStyle=1;gradientColor=#d5739d;" parent="yyIly0KIowWvOVNxReJx-1" vertex="1">
                    <mxGeometry x="70" y="520" width="100" height="50" as="geometry"/>
                </mxCell>
                <mxCell id="yyIly0KIowWvOVNxReJx-24" value="program continues" style="rounded=1;whiteSpace=wrap;html=1;fillColor=#e6d0de;strokeColor=#996185;verticalAlign=middle;align=center;fontStyle=1;gradientColor=#d5739d;" parent="yyIly0KIowWvOVNxReJx-1" vertex="1">
                    <mxGeometry x="-200" y="650" width="100" height="50" as="geometry"/>
                </mxCell>
                <mxCell id="yyIly0KIowWvOVNxReJx-26" value="add num1 + num2" style="rounded=1;whiteSpace=wrap;html=1;fillColor=#6d8764;strokeColor=#3A5431;verticalAlign=middle;align=center;fontStyle=1;fontColor=#ffffff;" parent="yyIly0KIowWvOVNxReJx-1" vertex="1">
                    <mxGeometry x="-270" y="460" width="100" height="50" as="geometry"/>
                </mxCell>
                <mxCell id="M1oerVhrYacm8ML4gh9a-0" value="" style="shape=image;verticalLabelPosition=bottom;labelBackgroundColor=#ffffff;verticalAlign=top;aspect=fixed;imageAspect=0;image=https://encrypted-tbn0.gstatic.com/images?q=tbn:ANd9GcRXLktsqjivweK6HmNRd0nlhblOH0k8iNfxPg&amp;usqp=CAU;" vertex="1" parent="yyIly0KIowWvOVNxReJx-1">
                    <mxGeometry x="-580" y="789.96" width="245" height="163.04" as="geometry"/>
                </mxCell>
                <mxCell id="M1oerVhrYacm8ML4gh9a-1" value="" style="shape=image;verticalLabelPosition=bottom;labelBackgroundColor=#ffffff;verticalAlign=top;aspect=fixed;imageAspect=0;image=https://wisxi.com/wp-content/uploads/2018/09/67185-1-e1539184038254.jpg;" vertex="1" parent="yyIly0KIowWvOVNxReJx-1">
                    <mxGeometry x="-250" y="790" width="180" height="180" as="geometry"/>
                </mxCell>
                <mxCell id="M1oerVhrYacm8ML4gh9a-3" style="edgeStyle=orthogonalEdgeStyle;rounded=0;orthogonalLoop=1;jettySize=auto;html=1;" edge="1" parent="yyIly0KIowWvOVNxReJx-1" source="M1oerVhrYacm8ML4gh9a-2" target="M1oerVhrYacm8ML4gh9a-0">
                    <mxGeometry relative="1" as="geometry"/>
                </mxCell>
                <mxCell id="M1oerVhrYacm8ML4gh9a-4" style="edgeStyle=orthogonalEdgeStyle;rounded=0;orthogonalLoop=1;jettySize=auto;html=1;" edge="1" parent="yyIly0KIowWvOVNxReJx-1" source="M1oerVhrYacm8ML4gh9a-2" target="M1oerVhrYacm8ML4gh9a-1">
                    <mxGeometry relative="1" as="geometry">
                        <Array as="points">
                            <mxPoint x="-240" y="1000"/>
                            <mxPoint x="-130" y="1000"/>
                        </Array>
                    </mxGeometry>
                </mxCell>
                <mxCell id="M1oerVhrYacm8ML4gh9a-2" value="Flyer&lt;br&gt;flyFromSourceToDestination()&lt;br&gt;" style="rounded=1;whiteSpace=wrap;html=1;fillColor=#fad9d5;strokeColor=#ae4132;fontStyle=1;verticalAlign=middle;" vertex="1" parent="yyIly0KIowWvOVNxReJx-1">
                    <mxGeometry x="-450" y="1040" width="240" height="80" as="geometry"/>
                </mxCell>
            </root>
        </mxGraphModel>
    </diagram>
    <diagram id="cVS2jsjaKYubrtHx-7v6" name="collections">
        <mxGraphModel dx="600" dy="583" grid="1" gridSize="10" guides="1" tooltips="1" connect="1" arrows="1" fold="1" page="1" pageScale="1" pageWidth="850" pageHeight="1100" math="0" shadow="0">
            <root>
                <mxCell id="O6RcpYqHboCYTjXhN9Kp-0"/>
                <mxCell id="O6RcpYqHboCYTjXhN9Kp-1" parent="O6RcpYqHboCYTjXhN9Kp-0"/>
                <mxCell id="R2RdKMsnJbfWnwAHmaUv-8" value="Sort Order" style="rounded=1;whiteSpace=wrap;html=1;fillColor=#d0cee2;strokeColor=#56517e;verticalAlign=bottom;" parent="O6RcpYqHboCYTjXhN9Kp-1" vertex="1">
                    <mxGeometry x="502" y="1160" width="152" height="150" as="geometry"/>
                </mxCell>
                <mxCell id="O6RcpYqHboCYTjXhN9Kp-3" value="" style="shape=image;verticalLabelPosition=bottom;labelBackgroundColor=#ffffff;verticalAlign=top;aspect=fixed;imageAspect=0;image=https://marcus-biel.com/wp-content/uploads/2015/08/class-and-interface-hierarchy.png;" parent="O6RcpYqHboCYTjXhN9Kp-1" vertex="1">
                    <mxGeometry x="40" y="40" width="798.63" height="450" as="geometry"/>
                </mxCell>
                <mxCell id="O6RcpYqHboCYTjXhN9Kp-4" value="Green" style="whiteSpace=wrap;html=1;aspect=fixed;" parent="O6RcpYqHboCYTjXhN9Kp-1" vertex="1">
                    <mxGeometry x="360" y="630" width="80" height="80" as="geometry"/>
                </mxCell>
                <mxCell id="O6RcpYqHboCYTjXhN9Kp-9" value="multithreading" style="edgeStyle=orthogonalEdgeStyle;rounded=0;orthogonalLoop=1;jettySize=auto;html=1;entryX=0;entryY=0.5;entryDx=0;entryDy=0;" parent="O6RcpYqHboCYTjXhN9Kp-1" source="O6RcpYqHboCYTjXhN9Kp-5" target="O6RcpYqHboCYTjXhN9Kp-4" edge="1">
                    <mxGeometry relative="1" as="geometry"/>
                </mxCell>
                <mxCell id="O6RcpYqHboCYTjXhN9Kp-5" value="" style="verticalLabelPosition=bottom;html=1;verticalAlign=top;align=center;strokeColor=none;fillColor=#00BEF2;shape=mxgraph.azure.user;" parent="O6RcpYqHboCYTjXhN9Kp-1" vertex="1">
                    <mxGeometry x="230" y="645" width="47.5" height="50" as="geometry"/>
                </mxCell>
                <mxCell id="O6RcpYqHboCYTjXhN9Kp-8" style="edgeStyle=orthogonalEdgeStyle;rounded=0;orthogonalLoop=1;jettySize=auto;html=1;" parent="O6RcpYqHboCYTjXhN9Kp-1" source="O6RcpYqHboCYTjXhN9Kp-6" target="O6RcpYqHboCYTjXhN9Kp-4" edge="1">
                    <mxGeometry relative="1" as="geometry"/>
                </mxCell>
                <mxCell id="O6RcpYqHboCYTjXhN9Kp-11" value="multirheading" style="edgeLabel;html=1;align=center;verticalAlign=middle;resizable=0;points=[];" parent="O6RcpYqHboCYTjXhN9Kp-8" vertex="1" connectable="0">
                    <mxGeometry x="-0.1956" y="-1" relative="1" as="geometry">
                        <mxPoint as="offset"/>
                    </mxGeometry>
                </mxCell>
                <mxCell id="O6RcpYqHboCYTjXhN9Kp-6" value="" style="verticalLabelPosition=bottom;html=1;verticalAlign=top;align=center;strokeColor=none;fillColor=#00BEF2;shape=mxgraph.azure.user;" parent="O6RcpYqHboCYTjXhN9Kp-1" vertex="1">
                    <mxGeometry x="260" y="560" width="47.5" height="50" as="geometry"/>
                </mxCell>
                <mxCell id="O6RcpYqHboCYTjXhN9Kp-10" style="edgeStyle=orthogonalEdgeStyle;rounded=0;orthogonalLoop=1;jettySize=auto;html=1;entryX=0.5;entryY=1;entryDx=0;entryDy=0;" parent="O6RcpYqHboCYTjXhN9Kp-1" source="O6RcpYqHboCYTjXhN9Kp-7" target="O6RcpYqHboCYTjXhN9Kp-4" edge="1">
                    <mxGeometry relative="1" as="geometry"/>
                </mxCell>
                <mxCell id="O6RcpYqHboCYTjXhN9Kp-12" value="multithreading" style="edgeLabel;html=1;align=center;verticalAlign=middle;resizable=0;points=[];" parent="O6RcpYqHboCYTjXhN9Kp-10" vertex="1" connectable="0">
                    <mxGeometry x="-0.0587" y="-4" relative="1" as="geometry">
                        <mxPoint as="offset"/>
                    </mxGeometry>
                </mxCell>
                <mxCell id="O6RcpYqHboCYTjXhN9Kp-7" value="" style="verticalLabelPosition=bottom;html=1;verticalAlign=top;align=center;strokeColor=none;fillColor=#00BEF2;shape=mxgraph.azure.user;" parent="O6RcpYqHboCYTjXhN9Kp-1" vertex="1">
                    <mxGeometry x="280" y="730" width="47.5" height="50" as="geometry"/>
                </mxCell>
                <mxCell id="O6RcpYqHboCYTjXhN9Kp-14" value="synchronization" style="edgeStyle=orthogonalEdgeStyle;rounded=0;orthogonalLoop=1;jettySize=auto;html=1;entryX=1;entryY=0.5;entryDx=0;entryDy=0;" parent="O6RcpYqHboCYTjXhN9Kp-1" source="O6RcpYqHboCYTjXhN9Kp-13" target="O6RcpYqHboCYTjXhN9Kp-4" edge="1">
                    <mxGeometry relative="1" as="geometry">
                        <Array as="points">
                            <mxPoint x="485" y="564"/>
                            <mxPoint x="485" y="670"/>
                        </Array>
                    </mxGeometry>
                </mxCell>
                <mxCell id="O6RcpYqHboCYTjXhN9Kp-13" value="" style="aspect=fixed;perimeter=ellipsePerimeter;html=1;align=center;shadow=0;dashed=0;spacingTop=3;image;image=img/lib/active_directory/user_accounts.svg;" parent="O6RcpYqHboCYTjXhN9Kp-1" vertex="1">
                    <mxGeometry x="530" y="540" width="50" height="48.5" as="geometry"/>
                </mxCell>
                <mxCell id="O6RcpYqHboCYTjXhN9Kp-18" value="" style="edgeStyle=orthogonalEdgeStyle;rounded=0;orthogonalLoop=1;jettySize=auto;html=1;" parent="O6RcpYqHboCYTjXhN9Kp-1" source="O6RcpYqHboCYTjXhN9Kp-15" target="O6RcpYqHboCYTjXhN9Kp-17" edge="1">
                    <mxGeometry relative="1" as="geometry"/>
                </mxCell>
                <mxCell id="O6RcpYqHboCYTjXhN9Kp-15" value="ArrayList (Light)" style="whiteSpace=wrap;html=1;aspect=fixed;" parent="O6RcpYqHboCYTjXhN9Kp-1" vertex="1">
                    <mxGeometry x="500" y="750" width="80" height="80" as="geometry"/>
                </mxCell>
                <mxCell id="O6RcpYqHboCYTjXhN9Kp-20" value="" style="edgeStyle=orthogonalEdgeStyle;rounded=0;orthogonalLoop=1;jettySize=auto;html=1;" parent="O6RcpYqHboCYTjXhN9Kp-1" source="O6RcpYqHboCYTjXhN9Kp-16" target="O6RcpYqHboCYTjXhN9Kp-19" edge="1">
                    <mxGeometry relative="1" as="geometry"/>
                </mxCell>
                <mxCell id="O6RcpYqHboCYTjXhN9Kp-16" value="Vector (Heavy)" style="whiteSpace=wrap;html=1;aspect=fixed;" parent="O6RcpYqHboCYTjXhN9Kp-1" vertex="1">
                    <mxGeometry x="650" y="750" width="80" height="80" as="geometry"/>
                </mxCell>
                <mxCell id="O6RcpYqHboCYTjXhN9Kp-17" value="Not Thread Safe" style="whiteSpace=wrap;html=1;" parent="O6RcpYqHboCYTjXhN9Kp-1" vertex="1">
                    <mxGeometry x="480" y="920" width="120" height="60" as="geometry"/>
                </mxCell>
                <mxCell id="O6RcpYqHboCYTjXhN9Kp-19" value="Thread Safe" style="whiteSpace=wrap;html=1;" parent="O6RcpYqHboCYTjXhN9Kp-1" vertex="1">
                    <mxGeometry x="630" y="920" width="120" height="60" as="geometry"/>
                </mxCell>
                <mxCell id="O6RcpYqHboCYTjXhN9Kp-25" style="edgeStyle=orthogonalEdgeStyle;rounded=0;orthogonalLoop=1;jettySize=auto;html=1;" parent="O6RcpYqHboCYTjXhN9Kp-1" source="O6RcpYqHboCYTjXhN9Kp-23" target="O6RcpYqHboCYTjXhN9Kp-24" edge="1">
                    <mxGeometry relative="1" as="geometry"/>
                </mxCell>
                <mxCell id="O6RcpYqHboCYTjXhN9Kp-26" value="synchronous (phone call)" style="edgeLabel;html=1;align=center;verticalAlign=middle;resizable=0;points=[];" parent="O6RcpYqHboCYTjXhN9Kp-25" vertex="1" connectable="0">
                    <mxGeometry x="-0.1922" relative="1" as="geometry">
                        <mxPoint as="offset"/>
                    </mxGeometry>
                </mxCell>
                <mxCell id="O6RcpYqHboCYTjXhN9Kp-23" value="" style="sketch=0;aspect=fixed;pointerEvents=1;shadow=0;dashed=0;html=1;strokeColor=none;labelPosition=center;verticalLabelPosition=bottom;verticalAlign=top;align=center;fillColor=#00188D;shape=mxgraph.azure.user" parent="O6RcpYqHboCYTjXhN9Kp-1" vertex="1">
                    <mxGeometry x="50" y="970" width="47" height="50" as="geometry"/>
                </mxCell>
                <mxCell id="O6RcpYqHboCYTjXhN9Kp-24" value="" style="sketch=0;aspect=fixed;pointerEvents=1;shadow=0;dashed=0;html=1;strokeColor=none;labelPosition=center;verticalLabelPosition=bottom;verticalAlign=top;align=center;fillColor=#00188D;shape=mxgraph.azure.user" parent="O6RcpYqHboCYTjXhN9Kp-1" vertex="1">
                    <mxGeometry x="250" y="970" width="47" height="50" as="geometry"/>
                </mxCell>
                <mxCell id="O6RcpYqHboCYTjXhN9Kp-31" style="edgeStyle=orthogonalEdgeStyle;rounded=0;orthogonalLoop=1;jettySize=auto;html=1;entryX=0.349;entryY=0.58;entryDx=0;entryDy=0;entryPerimeter=0;" parent="O6RcpYqHboCYTjXhN9Kp-1" source="O6RcpYqHboCYTjXhN9Kp-29" target="O6RcpYqHboCYTjXhN9Kp-30" edge="1">
                    <mxGeometry relative="1" as="geometry"/>
                </mxCell>
                <mxCell id="O6RcpYqHboCYTjXhN9Kp-32" value="asynchronous" style="edgeLabel;html=1;align=center;verticalAlign=middle;resizable=0;points=[];" parent="O6RcpYqHboCYTjXhN9Kp-31" vertex="1" connectable="0">
                    <mxGeometry x="-0.3333" y="2" relative="1" as="geometry">
                        <mxPoint as="offset"/>
                    </mxGeometry>
                </mxCell>
                <mxCell id="O6RcpYqHboCYTjXhN9Kp-29" value="" style="sketch=0;aspect=fixed;pointerEvents=1;shadow=0;dashed=0;html=1;strokeColor=none;labelPosition=center;verticalLabelPosition=bottom;verticalAlign=top;align=center;fillColor=#00188D;shape=mxgraph.azure.user" parent="O6RcpYqHboCYTjXhN9Kp-1" vertex="1">
                    <mxGeometry x="50" y="1060" width="47" height="50" as="geometry"/>
                </mxCell>
                <mxCell id="O6RcpYqHboCYTjXhN9Kp-30" value="" style="sketch=0;aspect=fixed;pointerEvents=1;shadow=0;dashed=0;html=1;strokeColor=none;labelPosition=center;verticalLabelPosition=bottom;verticalAlign=top;align=center;fillColor=#00188D;shape=mxgraph.azure.user" parent="O6RcpYqHboCYTjXhN9Kp-1" vertex="1">
                    <mxGeometry x="233" y="1050" width="47" height="50" as="geometry"/>
                </mxCell>
                <mxCell id="R2RdKMsnJbfWnwAHmaUv-0" value="List (Insertion Order)" style="rounded=1;whiteSpace=wrap;html=1;fillColor=#d0cee2;strokeColor=#56517e;verticalAlign=bottom;" parent="O6RcpYqHboCYTjXhN9Kp-1" vertex="1">
                    <mxGeometry x="328" y="1170" width="152" height="220" as="geometry"/>
                </mxCell>
                <mxCell id="R2RdKMsnJbfWnwAHmaUv-1" value="&lt;font&gt;Pen&lt;/font&gt;" style="rounded=1;whiteSpace=wrap;html=1;fontColor=#00994D;verticalAlign=bottom;" parent="O6RcpYqHboCYTjXhN9Kp-1" vertex="1">
                    <mxGeometry x="342" y="1270" width="116" height="30" as="geometry"/>
                </mxCell>
                <mxCell id="R2RdKMsnJbfWnwAHmaUv-2" value="&lt;font&gt;Book&lt;/font&gt;" style="rounded=1;whiteSpace=wrap;html=1;fontColor=#00994D;verticalAlign=bottom;" parent="O6RcpYqHboCYTjXhN9Kp-1" vertex="1">
                    <mxGeometry x="342" y="1210" width="116" height="30" as="geometry"/>
                </mxCell>
                <mxCell id="R2RdKMsnJbfWnwAHmaUv-3" value="&lt;font&gt;Laptop&lt;/font&gt;" style="rounded=1;whiteSpace=wrap;html=1;fontColor=#00994D;verticalAlign=bottom;" parent="O6RcpYqHboCYTjXhN9Kp-1" vertex="1">
                    <mxGeometry x="342" y="1180" width="116" height="30" as="geometry"/>
                </mxCell>
                <mxCell id="R2RdKMsnJbfWnwAHmaUv-4" value="&lt;font&gt;Pen&lt;/font&gt;" style="rounded=1;whiteSpace=wrap;html=1;fontColor=#00994D;verticalAlign=bottom;" parent="O6RcpYqHboCYTjXhN9Kp-1" vertex="1">
                    <mxGeometry x="520" y="1240" width="116" height="30" as="geometry"/>
                </mxCell>
                <mxCell id="R2RdKMsnJbfWnwAHmaUv-5" value="&lt;font&gt;Book&lt;/font&gt;" style="rounded=1;whiteSpace=wrap;html=1;fontColor=#00994D;verticalAlign=bottom;" parent="O6RcpYqHboCYTjXhN9Kp-1" vertex="1">
                    <mxGeometry x="520" y="1180" width="116" height="30" as="geometry"/>
                </mxCell>
                <mxCell id="R2RdKMsnJbfWnwAHmaUv-6" value="&lt;font&gt;Laptop&lt;/font&gt;" style="rounded=1;whiteSpace=wrap;html=1;fontColor=#00994D;verticalAlign=bottom;" parent="O6RcpYqHboCYTjXhN9Kp-1" vertex="1">
                    <mxGeometry x="520" y="1210" width="116" height="30" as="geometry"/>
                </mxCell>
                <mxCell id="R2RdKMsnJbfWnwAHmaUv-9" value="&lt;font&gt;Cookie&lt;/font&gt;" style="rounded=1;whiteSpace=wrap;html=1;fontColor=#00994D;verticalAlign=bottom;" parent="O6RcpYqHboCYTjXhN9Kp-1" vertex="1">
                    <mxGeometry x="342" y="1240" width="116" height="30" as="geometry"/>
                </mxCell>
            </root>
        </mxGraphModel>
    </diagram>
</mxfile>